<svg width="312" height="31" viewBox="0 0 312 31" fill="none" xmlns="http://www.w3.org/2000/svg">
<mask id="path-1-outside-1_1_3" maskUnits="userSpaceOnUse" x="-0.626114" y="-0.251556" width="313" height="31" fill="black">
<rect fill="white" x="-0.626114" y="-0.251556" width="313" height="31"/>
<path d="M15.4626 13.0901L4.70107 17.3605L15.4626 21.7449V26.1862L0.999998 19.9228V14.7983L15.4626 8.53492V13.0901ZM38.1541 2.55627V5.63101H31.4353V28.7484H25.058V5.63101H18.2253V2.55627H38.1541ZM58.8734 25.7306C57.2791 28.0841 54.4132 29.2609 50.2756 29.2609C48.0739 29.2609 46.2139 28.9382 44.6955 28.2929C41.0134 26.6227 39.1724 22.4092 39.1724 15.6524C39.1724 11.6666 39.8746 8.47798 41.2791 6.08652C42.8734 3.39139 45.8723 2.04382 50.2756 2.04382C54.4132 2.04382 57.2791 3.25853 58.8734 5.68795C60.5057 8.07941 61.3218 11.4199 61.3218 15.7093C61.3218 19.9987 60.5057 23.3392 58.8734 25.7306ZM45.6065 15.6524C45.6065 17.892 45.7204 19.771 45.9482 21.2894C46.1759 22.8078 46.6504 24.0984 47.3717 25.1613C48.0929 26.1862 49.0609 26.6986 50.2756 26.6986C53.3883 26.6986 54.9446 23.0165 54.9446 15.6524C54.9446 8.28818 53.3883 4.60609 50.2756 4.60609C49.0609 4.60609 48.0929 5.13753 47.3717 6.2004C46.6504 7.22531 46.1759 8.49696 45.9482 10.0153C45.7204 11.5337 45.6065 13.4127 45.6065 15.6524ZM65.7097 2.55627H75.1617C78.5781 2.55627 81.1593 3.39139 82.9055 5.06161C84.9933 7.03551 86.0371 10.5658 86.0371 15.6524C86.0371 19.8279 85.259 23.0545 83.7026 25.3321C82.1842 27.6097 79.3373 28.7484 75.1617 28.7484H65.7097V2.55627ZM72.1439 26.4139H74.1368C75.5793 26.4139 76.6991 25.9015 77.4962 24.8766C78.3313 23.8137 78.8817 22.561 79.1475 21.1186C79.4132 19.6381 79.546 17.8161 79.546 15.6524C79.546 13.4887 79.4132 11.6856 79.1475 10.2431C78.8817 8.76268 78.3313 7.51001 77.4962 6.4851C76.6991 5.42223 75.5793 4.89079 74.1368 4.89079H72.1439V26.4139ZM108.936 25.7306C107.342 28.0841 104.476 29.2609 100.338 29.2609C98.1364 29.2609 96.2764 28.9382 94.758 28.2929C91.0759 26.6227 89.2349 22.4092 89.2349 15.6524C89.2349 11.6666 89.9371 8.47798 91.3416 6.08652C92.9359 3.39139 95.9348 2.04382 100.338 2.04382C104.476 2.04382 107.342 3.25853 108.936 5.68795C110.568 8.07941 111.384 11.4199 111.384 15.7093C111.384 19.9987 110.568 23.3392 108.936 25.7306ZM95.669 15.6524C95.669 17.892 95.7829 19.771 96.0107 21.2894C96.2384 22.8078 96.7129 24.0984 97.4342 25.1613C98.1554 26.1862 99.1234 26.6986 100.338 26.6986C103.451 26.6986 105.007 23.0165 105.007 15.6524C105.007 8.28818 103.451 4.60609 100.338 4.60609C99.1234 4.60609 98.1554 5.13753 97.4342 6.2004C96.7129 7.22531 96.2384 8.49696 96.0107 10.0153C95.7829 11.5337 95.669 13.4127 95.669 15.6524ZM127.445 15.2538V19.3534H114.861V15.2538H127.445ZM151.25 9.67371L146.125 10.4709C145.973 8.53492 145.594 7.09245 144.986 6.14346C144.417 5.19447 143.335 4.71997 141.741 4.71997C140.185 4.71997 139.065 5.53611 138.381 7.16837C137.698 8.76268 137.357 11.5907 137.357 15.6524C137.357 19.6761 137.698 22.5041 138.381 24.1363C139.065 25.7686 140.222 26.5847 141.855 26.5847C143.525 26.5847 144.645 26.0153 145.214 24.8766C145.822 23.7378 146.125 22.0296 146.125 19.752L151.307 19.9798C151.079 23.1304 150.339 25.4649 149.086 26.9833C147.833 28.5017 145.309 29.2609 141.513 29.2609C137.717 29.2609 135.003 28.1601 133.371 25.9584C131.739 23.7567 130.922 20.3214 130.922 15.6524C130.922 10.9833 131.739 7.54797 133.371 5.34631C135.003 3.14465 137.907 2.04382 142.083 2.04382C145.271 2.04382 147.53 2.68913 148.858 3.97976C150.187 5.23243 150.984 7.13041 151.25 9.67371ZM165.682 26.357C164.088 28.2929 161.962 29.2609 159.305 29.2609C157.521 29.2609 156.079 28.7484 154.978 27.7235C153.915 26.6607 153.383 25.2372 153.383 23.4531C153.383 21.669 154.01 20.3214 155.262 19.4104C156.515 18.4614 158.641 17.7212 161.64 17.1897L165.17 16.5065V14.4566C165.17 12.0652 164.316 10.8694 162.608 10.8694C160.71 10.8694 159.685 12.4068 159.533 15.4815L154.294 14.8552C154.522 12.4258 155.262 10.6417 156.515 9.50289C157.768 8.32614 159.856 7.73777 162.778 7.73777C168.586 7.73777 171.49 10.1102 171.49 14.8552V28.7484H167.277L165.682 26.357ZM159.02 23.2823C159.02 25.0664 159.988 25.9584 161.924 25.9584C162.949 25.9584 164.031 25.3511 165.17 24.1363V19.0687L162.608 19.5812C160.216 20.1126 159.02 21.3463 159.02 23.2823ZM183.462 28.7484H177.085V1.92994L183.462 1.13279V28.7484ZM206.655 19.3534H194.527C194.527 21.9347 194.812 23.7188 195.381 24.7057C195.951 25.6547 196.843 26.1292 198.058 26.1292C200.107 26.1292 201.132 25.0094 201.132 22.7698L206.371 22.8837C206.181 24.8576 205.441 26.4139 204.15 27.5527C202.86 28.6915 200.601 29.2609 197.374 29.2609C194.186 29.2609 191.851 28.3688 190.371 26.5847C188.928 24.8006 188.207 22.1055 188.207 18.4993C188.207 11.325 191.32 7.73777 197.545 7.73777C203.619 7.73777 206.655 11.3819 206.655 18.6702V19.3534ZM200.506 16.2218C200.43 14.3617 200.164 13.0142 199.709 12.179C199.291 11.306 198.589 10.8694 197.602 10.8694C196.653 10.8694 195.951 11.249 195.495 12.0082C195.078 12.7295 194.793 14.134 194.641 16.2218H200.506ZM216.283 10.0723C218.598 8.51594 220.876 7.73777 223.116 7.73777C225.355 7.73777 227.007 8.3641 228.069 9.61677C229.17 10.8315 229.721 12.4068 229.721 14.3427V28.7484H223.4V15.1399C223.4 13.8113 223.23 12.8433 222.888 12.236C222.546 11.6286 221.844 11.325 220.781 11.325C219.756 11.325 218.712 11.6856 217.649 12.4068V28.7484H211.272V8.25022H214.176L216.283 10.0723ZM252.867 1.13279V28.7484H248.539L247.173 26.8125C245.54 28.4448 243.718 29.2609 241.706 29.2609C236.582 29.2609 234.02 25.8255 234.02 18.9548C234.02 11.4768 236.886 7.73777 242.617 7.73777C244.022 7.73777 245.313 8.04145 246.489 8.6488V1.92994L252.867 1.13279ZM243.528 26.1292C244.705 26.1292 245.692 25.6547 246.489 24.7057V11.7805C245.882 11.4768 245.237 11.325 244.553 11.325C241.744 11.325 240.34 13.7923 240.34 18.7271C240.34 23.6618 241.403 26.1292 243.528 26.1292ZM269.932 26.357C268.338 28.2929 266.212 29.2609 263.555 29.2609C261.771 29.2609 260.329 28.7484 259.228 27.7235C258.165 26.6607 257.633 25.2372 257.633 23.4531C257.633 21.669 258.26 20.3214 259.512 19.4104C260.765 18.4614 262.891 17.7212 265.89 17.1897L269.42 16.5065V14.4566C269.42 12.0652 268.566 10.8694 266.858 10.8694C264.96 10.8694 263.935 12.4068 263.783 15.4815L258.544 14.8552C258.772 12.4258 259.512 10.6417 260.765 9.50289C262.018 8.32614 264.106 7.73777 267.028 7.73777C272.836 7.73777 275.74 10.1102 275.74 14.8552V28.7484H271.527L269.932 26.357ZM263.27 23.2823C263.27 25.0664 264.238 25.9584 266.174 25.9584C267.199 25.9584 268.281 25.3511 269.42 24.1363V19.0687L266.858 19.5812C264.466 20.1126 263.27 21.3463 263.27 23.2823ZM284.239 8.25022L286.801 11.8374C288.357 9.33207 290.521 8.0794 293.292 8.0794V12.5776C291.204 12.5776 289.743 12.8623 288.908 13.4317C288.111 14.0011 287.712 14.8742 287.712 16.0509V28.7484H281.335V8.25022H284.239ZM310.775 14.7983V19.9228L296.312 26.1862V21.7449L307.074 17.3605L296.312 13.0901V8.53492L310.775 14.7983Z"/>
</mask>
<path d="M15.4626 13.0901L4.70107 17.3605L15.4626 21.7449V26.1862L0.999998 19.9228V14.7983L15.4626 8.53492V13.0901ZM38.1541 2.55627V5.63101H31.4353V28.7484H25.058V5.63101H18.2253V2.55627H38.1541ZM58.8734 25.7306C57.2791 28.0841 54.4132 29.2609 50.2756 29.2609C48.0739 29.2609 46.2139 28.9382 44.6955 28.2929C41.0134 26.6227 39.1724 22.4092 39.1724 15.6524C39.1724 11.6666 39.8746 8.47798 41.2791 6.08652C42.8734 3.39139 45.8723 2.04382 50.2756 2.04382C54.4132 2.04382 57.2791 3.25853 58.8734 5.68795C60.5057 8.07941 61.3218 11.4199 61.3218 15.7093C61.3218 19.9987 60.5057 23.3392 58.8734 25.7306ZM45.6065 15.6524C45.6065 17.892 45.7204 19.771 45.9482 21.2894C46.1759 22.8078 46.6504 24.0984 47.3717 25.1613C48.0929 26.1862 49.0609 26.6986 50.2756 26.6986C53.3883 26.6986 54.9446 23.0165 54.9446 15.6524C54.9446 8.28818 53.3883 4.60609 50.2756 4.60609C49.0609 4.60609 48.0929 5.13753 47.3717 6.2004C46.6504 7.22531 46.1759 8.49696 45.9482 10.0153C45.7204 11.5337 45.6065 13.4127 45.6065 15.6524ZM65.7097 2.55627H75.1617C78.5781 2.55627 81.1593 3.39139 82.9055 5.06161C84.9933 7.03551 86.0371 10.5658 86.0371 15.6524C86.0371 19.8279 85.259 23.0545 83.7026 25.3321C82.1842 27.6097 79.3373 28.7484 75.1617 28.7484H65.7097V2.55627ZM72.1439 26.4139H74.1368C75.5793 26.4139 76.6991 25.9015 77.4962 24.8766C78.3313 23.8137 78.8817 22.561 79.1475 21.1186C79.4132 19.6381 79.546 17.8161 79.546 15.6524C79.546 13.4887 79.4132 11.6856 79.1475 10.2431C78.8817 8.76268 78.3313 7.51001 77.4962 6.4851C76.6991 5.42223 75.5793 4.89079 74.1368 4.89079H72.1439V26.4139ZM108.936 25.7306C107.342 28.0841 104.476 29.2609 100.338 29.2609C98.1364 29.2609 96.2764 28.9382 94.758 28.2929C91.0759 26.6227 89.2349 22.4092 89.2349 15.6524C89.2349 11.6666 89.9371 8.47798 91.3416 6.08652C92.9359 3.39139 95.9348 2.04382 100.338 2.04382C104.476 2.04382 107.342 3.25853 108.936 5.68795C110.568 8.07941 111.384 11.4199 111.384 15.7093C111.384 19.9987 110.568 23.3392 108.936 25.7306ZM95.669 15.6524C95.669 17.892 95.7829 19.771 96.0107 21.2894C96.2384 22.8078 96.7129 24.0984 97.4342 25.1613C98.1554 26.1862 99.1234 26.6986 100.338 26.6986C103.451 26.6986 105.007 23.0165 105.007 15.6524C105.007 8.28818 103.451 4.60609 100.338 4.60609C99.1234 4.60609 98.1554 5.13753 97.4342 6.2004C96.7129 7.22531 96.2384 8.49696 96.0107 10.0153C95.7829 11.5337 95.669 13.4127 95.669 15.6524ZM127.445 15.2538V19.3534H114.861V15.2538H127.445ZM151.25 9.67371L146.125 10.4709C145.973 8.53492 145.594 7.09245 144.986 6.14346C144.417 5.19447 143.335 4.71997 141.741 4.71997C140.185 4.71997 139.065 5.53611 138.381 7.16837C137.698 8.76268 137.357 11.5907 137.357 15.6524C137.357 19.6761 137.698 22.5041 138.381 24.1363C139.065 25.7686 140.222 26.5847 141.855 26.5847C143.525 26.5847 144.645 26.0153 145.214 24.8766C145.822 23.7378 146.125 22.0296 146.125 19.752L151.307 19.9798C151.079 23.1304 150.339 25.4649 149.086 26.9833C147.833 28.5017 145.309 29.2609 141.513 29.2609C137.717 29.2609 135.003 28.1601 133.371 25.9584C131.739 23.7567 130.922 20.3214 130.922 15.6524C130.922 10.9833 131.739 7.54797 133.371 5.34631C135.003 3.14465 137.907 2.04382 142.083 2.04382C145.271 2.04382 147.53 2.68913 148.858 3.97976C150.187 5.23243 150.984 7.13041 151.25 9.67371ZM165.682 26.357C164.088 28.2929 161.962 29.2609 159.305 29.2609C157.521 29.2609 156.079 28.7484 154.978 27.7235C153.915 26.6607 153.383 25.2372 153.383 23.4531C153.383 21.669 154.01 20.3214 155.262 19.4104C156.515 18.4614 158.641 17.7212 161.64 17.1897L165.17 16.5065V14.4566C165.17 12.0652 164.316 10.8694 162.608 10.8694C160.71 10.8694 159.685 12.4068 159.533 15.4815L154.294 14.8552C154.522 12.4258 155.262 10.6417 156.515 9.50289C157.768 8.32614 159.856 7.73777 162.778 7.73777C168.586 7.73777 171.49 10.1102 171.49 14.8552V28.7484H167.277L165.682 26.357ZM159.02 23.2823C159.02 25.0664 159.988 25.9584 161.924 25.9584C162.949 25.9584 164.031 25.3511 165.17 24.1363V19.0687L162.608 19.5812C160.216 20.1126 159.02 21.3463 159.02 23.2823ZM183.462 28.7484H177.085V1.92994L183.462 1.13279V28.7484ZM206.655 19.3534H194.527C194.527 21.9347 194.812 23.7188 195.381 24.7057C195.951 25.6547 196.843 26.1292 198.058 26.1292C200.107 26.1292 201.132 25.0094 201.132 22.7698L206.371 22.8837C206.181 24.8576 205.441 26.4139 204.15 27.5527C202.86 28.6915 200.601 29.2609 197.374 29.2609C194.186 29.2609 191.851 28.3688 190.371 26.5847C188.928 24.8006 188.207 22.1055 188.207 18.4993C188.207 11.325 191.32 7.73777 197.545 7.73777C203.619 7.73777 206.655 11.3819 206.655 18.6702V19.3534ZM200.506 16.2218C200.43 14.3617 200.164 13.0142 199.709 12.179C199.291 11.306 198.589 10.8694 197.602 10.8694C196.653 10.8694 195.951 11.249 195.495 12.0082C195.078 12.7295 194.793 14.134 194.641 16.2218H200.506ZM216.283 10.0723C218.598 8.51594 220.876 7.73777 223.116 7.73777C225.355 7.73777 227.007 8.3641 228.069 9.61677C229.17 10.8315 229.721 12.4068 229.721 14.3427V28.7484H223.4V15.1399C223.4 13.8113 223.23 12.8433 222.888 12.236C222.546 11.6286 221.844 11.325 220.781 11.325C219.756 11.325 218.712 11.6856 217.649 12.4068V28.7484H211.272V8.25022H214.176L216.283 10.0723ZM252.867 1.13279V28.7484H248.539L247.173 26.8125C245.54 28.4448 243.718 29.2609 241.706 29.2609C236.582 29.2609 234.02 25.8255 234.02 18.9548C234.02 11.4768 236.886 7.73777 242.617 7.73777C244.022 7.73777 245.313 8.04145 246.489 8.6488V1.92994L252.867 1.13279ZM243.528 26.1292C244.705 26.1292 245.692 25.6547 246.489 24.7057V11.7805C245.882 11.4768 245.237 11.325 244.553 11.325C241.744 11.325 240.34 13.7923 240.34 18.7271C240.34 23.6618 241.403 26.1292 243.528 26.1292ZM269.932 26.357C268.338 28.2929 266.212 29.2609 263.555 29.2609C261.771 29.2609 260.329 28.7484 259.228 27.7235C258.165 26.6607 257.633 25.2372 257.633 23.4531C257.633 21.669 258.26 20.3214 259.512 19.4104C260.765 18.4614 262.891 17.7212 265.89 17.1897L269.42 16.5065V14.4566C269.42 12.0652 268.566 10.8694 266.858 10.8694C264.96 10.8694 263.935 12.4068 263.783 15.4815L258.544 14.8552C258.772 12.4258 259.512 10.6417 260.765 9.50289C262.018 8.32614 264.106 7.73777 267.028 7.73777C272.836 7.73777 275.74 10.1102 275.74 14.8552V28.7484H271.527L269.932 26.357ZM263.27 23.2823C263.27 25.0664 264.238 25.9584 266.174 25.9584C267.199 25.9584 268.281 25.3511 269.42 24.1363V19.0687L266.858 19.5812C264.466 20.1126 263.27 21.3463 263.27 23.2823ZM284.239 8.25022L286.801 11.8374C288.357 9.33207 290.521 8.0794 293.292 8.0794V12.5776C291.204 12.5776 289.743 12.8623 288.908 13.4317C288.111 14.0011 287.712 14.8742 287.712 16.0509V28.7484H281.335V8.25022H284.239ZM310.775 14.7983V19.9228L296.312 26.1862V21.7449L307.074 17.3605L296.312 13.0901V8.53492L310.775 14.7983Z" fill="url(#paint0_linear_1_3)"/>
<path d="M15.4626 13.0901L15.8315 14.0196L16.4626 13.7691V13.0901H15.4626ZM4.70107 17.3605L4.33222 16.4311L2.02067 17.3483L4.32377 18.2866L4.70107 17.3605ZM15.4626 21.7449H16.4626V21.0725L15.8399 20.8188L15.4626 21.7449ZM15.4626 26.1862L15.0652 27.1038L16.4626 27.709V26.1862H15.4626ZM1 19.9228H0V20.5795L0.602592 20.8405L1 19.9228ZM1 14.7983L0.602592 13.8806L0 14.1416V14.7983H1ZM15.4626 8.53492H16.4626V7.0121L15.0652 7.61728L15.4626 8.53492ZM15.4626 13.0901L15.0938 12.1606L4.33222 16.4311L4.70107 17.3605L5.06991 18.29L15.8315 14.0196L15.4626 13.0901ZM4.70107 17.3605L4.32377 18.2866L15.0853 22.671L15.4626 21.7449L15.8399 20.8188L5.07836 16.4344L4.70107 17.3605ZM15.4626 21.7449H14.4626V26.1862H15.4626H16.4626V21.7449H15.4626ZM15.4626 26.1862L15.86 25.2685L1.3974 19.0052L1 19.9228L0.602592 20.8405L15.0652 27.1038L15.4626 26.1862ZM1 19.9228H2V14.7983H1H0V19.9228H1ZM1 14.7983L1.3974 15.7159L15.86 9.45256L15.4626 8.53492L15.0652 7.61728L0.602592 13.8806L1 14.7983ZM15.4626 8.53492H14.4626V13.0901H15.4626H16.4626V8.53492H15.4626ZM38.1541 2.55627H39.1541V1.55627H38.1541V2.55627ZM38.1541 5.631V6.631H39.1541V5.631H38.1541ZM31.4353 5.631V4.631H30.4353V5.631H31.4353ZM31.4353 28.7484V29.7484H32.4353V28.7484H31.4353ZM25.0581 28.7484H24.0581V29.7484H25.0581V28.7484ZM25.0581 5.631H26.0581V4.631H25.0581V5.631ZM18.2253 5.631H17.2253V6.631H18.2253V5.631ZM18.2253 2.55627V1.55627H17.2253V2.55627H18.2253ZM38.1541 2.55627H37.1541V5.631H38.1541H39.1541V2.55627H38.1541ZM38.1541 5.631V4.631H31.4353V5.631V6.631H38.1541V5.631ZM31.4353 5.631H30.4353V28.7484H31.4353H32.4353V5.631H31.4353ZM31.4353 28.7484V27.7484H25.0581V28.7484V29.7484H31.4353V28.7484ZM25.0581 28.7484H26.0581V5.631H25.0581H24.0581V28.7484H25.0581ZM25.0581 5.631V4.631H18.2253V5.631V6.631H25.0581V5.631ZM18.2253 5.631H19.2253V2.55627H18.2253H17.2253V5.631H18.2253ZM18.2253 2.55627V3.55627H38.1541V2.55627V1.55627H18.2253V2.55627ZM58.8734 25.7307L58.0475 25.1669L58.0455 25.1698L58.8734 25.7307ZM44.6955 28.2929L44.2824 29.2036L44.2933 29.2086L44.3044 29.2133L44.6955 28.2929ZM41.2791 6.08652L40.4184 5.57738L40.4168 5.5801L41.2791 6.08652ZM58.8734 5.68794L58.0374 6.2366L58.0424 6.24419L58.0475 6.25169L58.8734 5.68794ZM45.9482 21.2894L46.9371 21.141V21.141L45.9482 21.2894ZM47.3717 25.1613L46.5442 25.7228L46.549 25.7298L46.5539 25.7367L47.3717 25.1613ZM47.3717 6.2004L48.1895 6.77589L48.1944 6.76894L48.1991 6.7619L47.3717 6.2004ZM45.9482 10.0154L46.9371 10.1637V10.1637L45.9482 10.0154ZM58.8734 25.7307L58.0455 25.1698C56.7125 27.1376 54.2429 28.2609 50.2756 28.2609V29.2609V30.2609C54.5834 30.2609 57.8458 29.0307 59.7014 26.2915L58.8734 25.7307ZM50.2756 29.2609V28.2609C48.1658 28.2609 46.4474 27.9509 45.0866 27.3726L44.6955 28.2929L44.3044 29.2133C45.9804 29.9256 47.982 30.2609 50.2756 30.2609V29.2609ZM44.6955 28.2929L45.1086 27.3822C41.986 25.9658 40.1724 22.302 40.1724 15.6524H39.1724H38.1724C38.1724 22.5164 40.0409 27.2796 44.2824 29.2036L44.6955 28.2929ZM39.1724 15.6524H40.1724C40.1724 11.7713 40.8581 8.77802 42.1414 6.59294L41.2791 6.08652L40.4168 5.5801C38.8911 8.17794 38.1724 11.5619 38.1724 15.6524H39.1724ZM41.2791 6.08652L42.1398 6.59566C43.4856 4.32071 46.0663 3.04382 50.2756 3.04382V2.04382V1.04382C45.6783 1.04382 42.2613 2.46207 40.4184 5.57738L41.2791 6.08652ZM50.2756 2.04382V3.04382C54.2311 3.04382 56.6993 4.19755 58.0374 6.2366L58.8734 5.68794L59.7095 5.13929C57.859 2.3195 54.5953 1.04382 50.2756 1.04382V2.04382ZM58.8734 5.68794L58.0475 6.25169C59.5239 8.41478 60.3218 11.5295 60.3218 15.7093H61.3218H62.3218C62.3218 11.3102 61.4875 7.74403 59.6994 5.12421L58.8734 5.68794ZM61.3218 15.7093H60.3218C60.3218 19.8891 59.5239 23.0038 58.0475 25.1669L58.8734 25.7307L59.6994 26.2944C61.4875 23.6746 62.3218 20.1084 62.3218 15.7093H61.3218ZM45.6065 15.6524H44.6065C44.6065 17.9213 44.7216 19.8535 44.9592 21.4377L45.9482 21.2894L46.9371 21.141C46.7192 19.6884 46.6065 17.8627 46.6065 15.6524H45.6065ZM45.9482 21.2894L44.9592 21.4377C45.2049 23.0756 45.724 24.5141 46.5442 25.7228L47.3717 25.1613L48.1991 24.5998C47.5768 23.6827 47.1469 22.5399 46.9371 21.141L45.9482 21.2894ZM47.3717 25.1613L46.5539 25.7367C47.4553 27.0178 48.7234 27.6986 50.2756 27.6986V26.6986V25.6986C49.3984 25.6986 48.7305 25.3546 48.1895 24.5858L47.3717 25.1613ZM50.2756 26.6986V27.6986C51.2671 27.6986 52.1687 27.3997 52.9375 26.7934C53.6913 26.199 54.2654 25.3508 54.6985 24.3264C55.5558 22.2981 55.9446 19.3746 55.9446 15.6524H54.9446H53.9446C53.9446 19.2943 53.5553 21.8939 52.8563 23.5477C52.5111 24.3643 52.1125 24.897 51.6991 25.223C51.3006 25.5373 50.8404 25.6986 50.2756 25.6986V26.6986ZM54.9446 15.6524H55.9446C55.9446 11.9301 55.5558 9.00656 54.6985 6.97833C54.2654 5.95389 53.6913 5.10575 52.9375 4.51128C52.1687 3.90501 51.2671 3.60609 50.2756 3.60609V4.60609V5.60609C50.8404 5.60609 51.3006 5.76743 51.6991 6.0817C52.1125 6.40775 52.5111 6.94039 52.8563 7.75699C53.5553 9.41084 53.9446 12.0104 53.9446 15.6524H54.9446ZM50.2756 4.60609V3.60609C48.7074 3.60609 47.4388 4.32049 46.5442 5.6389L47.3717 6.2004L48.1991 6.7619C48.747 5.95457 49.4143 5.60609 50.2756 5.60609V4.60609ZM47.3717 6.2004L46.5539 5.62491C45.7253 6.8024 45.205 8.22891 44.9592 9.867L45.9482 10.0154L46.9371 10.1637C47.1469 8.76501 47.5756 7.64822 48.1895 6.77589L47.3717 6.2004ZM45.9482 10.0154L44.9592 9.867C44.7216 11.4512 44.6065 13.3834 44.6065 15.6524H45.6065H46.6065C46.6065 13.4421 46.7192 11.6163 46.9371 10.1637L45.9482 10.0154ZM65.7097 2.55627V1.55627H64.7097V2.55627H65.7097ZM82.9055 5.06161L82.2142 5.78426L82.2185 5.78825L82.9055 5.06161ZM83.7026 25.3321L82.8769 24.7678L82.8706 24.7774L83.7026 25.3321ZM65.7097 28.7484H64.7097V29.7484H65.7097V28.7484ZM72.1439 26.4139H71.1439V27.4139H72.1439V26.4139ZM77.4962 24.8766L76.7099 24.2587L76.7069 24.2626L77.4962 24.8766ZM79.1475 21.1186L80.1309 21.2997L80.1317 21.2952L79.1475 21.1186ZM79.1475 10.2431L78.1632 10.4198L78.164 10.4243L79.1475 10.2431ZM77.4962 6.4851L76.6962 7.0851L76.7083 7.10118L76.721 7.11678L77.4962 6.4851ZM72.1439 4.89079V3.89079H71.1439V4.89079H72.1439ZM65.7097 2.55627V3.55627H75.1617V2.55627V1.55627H65.7097V2.55627ZM75.1617 2.55627V3.55627C78.4276 3.55627 80.7194 4.35435 82.2142 5.78426L82.9055 5.06161L83.5967 4.33897C81.5993 2.42841 78.7285 1.55627 75.1617 1.55627V2.55627ZM82.9055 5.06161L82.2185 5.78825C83.9984 7.47109 85.0371 10.6441 85.0371 15.6524H86.0371H87.0371C87.0371 10.4874 85.9881 6.59994 83.5925 4.33496L82.9055 5.06161ZM86.0371 15.6524H85.0371C85.0371 19.7235 84.2752 22.7217 82.877 24.7679L83.7026 25.3321L84.5283 25.8963C86.2428 23.3873 87.0371 19.9323 87.0371 15.6524H86.0371ZM83.7026 25.3321L82.8706 24.7774C81.6208 26.6519 79.1876 27.7484 75.1617 27.7484V28.7484V29.7484C79.4869 29.7484 82.7476 28.5674 84.5347 25.8868L83.7026 25.3321ZM75.1617 28.7484V27.7484H65.7097V28.7484V29.7484H75.1617V28.7484ZM65.7097 28.7484H66.7097V2.55627H65.7097H64.7097V28.7484H65.7097ZM72.1439 26.4139V27.4139H74.1368V26.4139V25.4139H72.1439V26.4139ZM74.1368 26.4139V27.4139C75.8487 27.4139 77.2762 26.7883 78.2856 25.4905L77.4962 24.8766L76.7069 24.2626C76.122 25.0146 75.3098 25.4139 74.1368 25.4139V26.4139ZM77.4962 24.8766L78.2825 25.4944C79.2261 24.2934 79.8384 22.8877 80.1309 21.2997L79.1475 21.1186L78.164 20.9374C77.9251 22.2344 77.4365 23.3339 76.7099 24.2587L77.4962 24.8766ZM79.1475 21.1186L80.1317 21.2952C80.4114 19.7373 80.546 17.8519 80.546 15.6524H79.546H78.546C78.546 17.7802 78.415 19.539 78.1632 20.9419L79.1475 21.1186ZM79.546 15.6524H80.546C80.546 13.4536 80.4115 11.585 80.1309 10.0619L79.1475 10.2431L78.164 10.4243C78.4149 11.7861 78.546 13.5237 78.546 15.6524H79.546ZM79.1475 10.2431L80.1317 10.0664C79.8402 8.44237 79.2277 7.02703 78.2715 5.85342L77.4962 6.4851L76.721 7.11678C77.4349 7.99299 77.9233 9.08298 78.1632 10.4198L79.1475 10.2431ZM77.4962 6.4851L78.2962 5.8851C77.2922 4.54642 75.8628 3.89079 74.1368 3.89079V4.89079V5.89079C75.2957 5.89079 76.1059 6.29803 76.6962 7.0851L77.4962 6.4851ZM74.1368 4.89079V3.89079H72.1439V4.89079V5.89079H74.1368V4.89079ZM72.1439 4.89079H71.1439V26.4139H72.1439H73.1439V4.89079H72.1439ZM108.936 25.7307L108.11 25.1669L108.108 25.1698L108.936 25.7307ZM94.758 28.2929L94.3449 29.2036L94.3558 29.2086L94.3669 29.2133L94.758 28.2929ZM91.3416 6.08652L90.4809 5.57738L90.4794 5.5801L91.3416 6.08652ZM108.936 5.68794L108.1 6.2366L108.105 6.24419L108.11 6.25169L108.936 5.68794ZM96.0107 21.2894L96.9996 21.141V21.141L96.0107 21.2894ZM97.4342 25.1613L96.6067 25.7228L96.6115 25.7298L96.6163 25.7367L97.4342 25.1613ZM97.4342 6.2004L98.252 6.77589L98.2569 6.76894L98.2616 6.7619L97.4342 6.2004ZM96.0107 10.0154L96.9996 10.1637V10.1637L96.0107 10.0154ZM108.936 25.7307L108.108 25.1698C106.775 27.1376 104.305 28.2609 100.338 28.2609V29.2609V30.2609C104.646 30.2609 107.908 29.0307 109.764 26.2915L108.936 25.7307ZM100.338 29.2609V28.2609C98.2283 28.2609 96.5099 27.9509 95.1491 27.3726L94.758 28.2929L94.3669 29.2133C96.0429 29.9256 98.0445 30.2609 100.338 30.2609V29.2609ZM94.758 28.2929L95.1711 27.3822C92.0485 25.9658 90.2349 22.302 90.2349 15.6524H89.2349H88.2349C88.2349 22.5164 90.1034 27.2796 94.3449 29.2036L94.758 28.2929ZM89.2349 15.6524H90.2349C90.2349 11.7713 90.9206 8.77802 92.2039 6.59294L91.3416 6.08652L90.4794 5.5801C88.9536 8.17794 88.2349 11.5619 88.2349 15.6524H89.2349ZM91.3416 6.08652L92.2023 6.59566C93.5481 4.32071 96.1288 3.04382 100.338 3.04382V2.04382V1.04382C95.7408 1.04382 92.3238 2.46207 90.481 5.57738L91.3416 6.08652ZM100.338 2.04382V3.04382C104.294 3.04382 106.762 4.19755 108.1 6.2366L108.936 5.68794L109.772 5.13929C107.922 2.3195 104.658 1.04382 100.338 1.04382V2.04382ZM108.936 5.68794L108.11 6.25169C109.586 8.41478 110.384 11.5295 110.384 15.7093H111.384H112.384C112.384 11.3102 111.55 7.74403 109.762 5.12421L108.936 5.68794ZM111.384 15.7093H110.384C110.384 19.8891 109.586 23.0038 108.11 25.1669L108.936 25.7307L109.762 26.2944C111.55 23.6746 112.384 20.1084 112.384 15.7093H111.384ZM95.669 15.6524H94.669C94.669 17.9213 94.7841 19.8535 95.0217 21.4377L96.0107 21.2894L96.9996 21.141C96.7817 19.6884 96.669 17.8627 96.669 15.6524H95.669ZM96.0107 21.2894L95.0217 21.4377C95.2674 23.0756 95.7865 24.5141 96.6067 25.7228L97.4342 25.1613L98.2616 24.5998C97.6393 23.6827 97.2094 22.5399 96.9996 21.141L96.0107 21.2894ZM97.4342 25.1613L96.6163 25.7367C97.5178 27.0178 98.7858 27.6986 100.338 27.6986V26.6986V25.6986C99.4609 25.6986 98.793 25.3546 98.252 24.5858L97.4342 25.1613ZM100.338 26.6986V27.6986C101.33 27.6986 102.231 27.3997 103 26.7934C103.754 26.199 104.328 25.3508 104.761 24.3264C105.618 22.2981 106.007 19.3746 106.007 15.6524H105.007H104.007C104.007 19.2943 103.618 21.8939 102.919 23.5477C102.574 24.3643 102.175 24.897 101.762 25.223C101.363 25.5373 100.903 25.6986 100.338 25.6986V26.6986ZM105.007 15.6524H106.007C106.007 11.9301 105.618 9.00656 104.761 6.97833C104.328 5.95389 103.754 5.10575 103 4.51128C102.231 3.90501 101.33 3.60609 100.338 3.60609V4.60609V5.60609C100.903 5.60609 101.363 5.76743 101.762 6.0817C102.175 6.40775 102.574 6.94039 102.919 7.75699C103.618 9.41084 104.007 12.0104 104.007 15.6524H105.007ZM100.338 4.60609V3.60609C98.7699 3.60609 97.5013 4.32049 96.6067 5.6389L97.4342 6.2004L98.2616 6.7619C98.8095 5.95457 99.4768 5.60609 100.338 5.60609V4.60609ZM97.4342 6.2004L96.6163 5.62491C95.7878 6.8024 95.2675 8.22891 95.0217 9.867L96.0107 10.0154L96.9996 10.1637C97.2094 8.76501 97.6381 7.64822 98.252 6.77589L97.4342 6.2004ZM96.0107 10.0154L95.0217 9.867C94.7841 11.4512 94.669 13.3834 94.669 15.6524H95.669H96.669C96.669 13.4421 96.7817 11.6163 96.9996 10.1637L96.0107 10.0154ZM127.445 15.2538H128.445V14.2538H127.445V15.2538ZM127.445 19.3534V20.3534H128.445V19.3534H127.445ZM114.861 19.3534H113.861V20.3534H114.861V19.3534ZM114.861 15.2538V14.2538H113.861V15.2538H114.861ZM127.445 15.2538H126.445V19.3534H127.445H128.445V15.2538H127.445ZM127.445 19.3534V18.3534H114.861V19.3534V20.3534H127.445V19.3534ZM114.861 19.3534H115.861V15.2538H114.861H113.861V19.3534H114.861ZM114.861 15.2538V16.2538H127.445V15.2538V14.2538H114.861V15.2538ZM151.25 9.67371L151.403 10.6618L152.343 10.5156L152.244 9.56979L151.25 9.67371ZM146.125 10.4709L145.128 10.5491L145.213 11.6248L146.279 11.459L146.125 10.4709ZM144.986 6.14346L144.129 6.65796L144.136 6.67035L144.144 6.68251L144.986 6.14346ZM138.381 7.16837L139.301 7.56231L139.304 7.55451L138.381 7.16837ZM138.381 24.1363L139.304 23.7502V23.7502L138.381 24.1363ZM145.214 24.8766L144.332 24.406L144.326 24.4176L144.32 24.4293L145.214 24.8766ZM146.125 19.752L146.169 18.753L145.125 18.7071V19.752H146.125ZM151.307 19.9798L152.304 20.0519L152.378 19.0259L151.351 18.9807L151.307 19.9798ZM149.086 26.9833L148.315 26.3469L149.086 26.9833ZM133.371 25.9584L132.567 26.554V26.554L133.371 25.9584ZM133.371 5.34631L132.567 4.75075V4.75075L133.371 5.34631ZM148.858 3.97976L148.162 4.69704L148.167 4.70224L148.172 4.70735L148.858 3.97976ZM151.25 9.67371L151.096 8.68559L145.972 9.48274L146.125 10.4709L146.279 11.459L151.403 10.6618L151.25 9.67371ZM146.125 10.4709L147.122 10.3927C146.966 8.39582 146.567 6.75865 145.829 5.60441L144.986 6.14346L144.144 6.68251C144.62 7.42625 144.981 8.67403 145.128 10.5491L146.125 10.4709ZM144.986 6.14346L145.844 5.62897C145.021 4.2572 143.517 3.71997 141.741 3.71997V4.71997V5.71997C143.154 5.71997 143.813 6.13174 144.129 6.65796L144.986 6.14346ZM141.741 4.71997V3.71997C140.778 3.71997 139.897 3.97603 139.145 4.52393C138.402 5.06557 137.852 5.84361 137.459 6.78223L138.381 7.16837L139.304 7.55451C139.594 6.86087 139.946 6.41471 140.323 6.14021C140.691 5.87199 141.147 5.71997 141.741 5.71997V4.71997ZM138.381 7.16837L137.462 6.77445C136.69 8.57539 136.357 11.5894 136.357 15.6524H137.357H138.357C138.357 11.5919 138.706 8.94997 139.301 7.56229L138.381 7.16837ZM137.357 15.6524H136.357C136.357 19.6821 136.692 22.6892 137.459 24.5225L138.381 24.1363L139.304 23.7502C138.705 22.319 138.357 19.6701 138.357 15.6524H137.357ZM138.381 24.1363L137.459 24.5225C137.855 25.469 138.419 26.2495 139.186 26.79C139.958 27.3343 140.865 27.5847 141.855 27.5847V26.5847V25.5847C141.212 25.5847 140.724 25.4271 140.338 25.1553C139.947 24.8796 139.591 24.436 139.304 23.7502L138.381 24.1363ZM141.855 26.5847V27.5847C143.765 27.5847 145.316 26.91 146.109 25.3238L145.214 24.8766L144.32 24.4293C143.974 25.1207 143.285 25.5847 141.855 25.5847V26.5847ZM145.214 24.8766L146.097 25.3471C146.82 23.9914 147.125 22.0858 147.125 19.752H146.125H145.125C145.125 21.9734 144.824 23.4841 144.332 24.406L145.214 24.8766ZM146.125 19.752L146.081 20.751L151.263 20.9788L151.307 19.9798L151.351 18.9807L146.169 18.753L146.125 19.752ZM151.307 19.9798L150.309 19.9077C150.088 22.9664 149.377 25.0591 148.315 26.3469L149.086 26.9833L149.857 27.6197C151.3 25.8707 152.07 23.2944 152.304 20.0519L151.307 19.9798ZM149.086 26.9833L148.315 26.3469C147.369 27.4935 145.263 28.2609 141.513 28.2609V29.2609V30.2609C145.355 30.2609 148.298 29.5099 149.857 27.6197L149.086 26.9833ZM141.513 29.2609V28.2609C137.903 28.2609 135.552 27.2208 134.174 25.3628L133.371 25.9584L132.567 26.554C134.455 29.0994 137.531 30.2609 141.513 30.2609V29.2609ZM133.371 25.9584L134.174 25.3628C132.732 23.4175 131.922 20.2428 131.922 15.6524H130.922H129.922C129.922 20.4 130.745 24.096 132.567 26.554L133.371 25.9584ZM130.922 15.6524H131.922C131.922 11.0619 132.732 7.88719 134.174 5.94186L133.371 5.34631L132.567 4.75075C130.745 7.20875 129.922 10.9047 129.922 15.6524H130.922ZM133.371 5.34631L134.174 5.94186C135.535 4.10631 138.053 3.04382 142.083 3.04382V2.04382V1.04382C137.761 1.04382 134.471 2.18298 132.567 4.75075L133.371 5.34631ZM142.083 2.04382V3.04382C145.185 3.04382 147.115 3.68077 148.162 4.69704L148.858 3.97976L149.555 3.26248C147.944 1.69749 145.357 1.04382 142.083 1.04382V2.04382ZM148.858 3.97976L148.172 4.70735C149.268 5.74052 150.004 7.37778 150.255 9.77762L151.25 9.67371L152.244 9.56979C151.964 6.88304 151.106 4.72435 149.544 3.25217L148.858 3.97976ZM165.682 26.357L166.514 25.8023L165.767 24.6812L164.91 25.7213L165.682 26.357ZM154.978 27.7235L154.271 28.4306L154.283 28.4433L154.296 28.4554L154.978 27.7235ZM155.262 19.4104L155.851 20.2191L155.859 20.2134L155.866 20.2075L155.262 19.4104ZM161.64 17.1897L161.814 18.1744L161.822 18.173L161.83 18.1715L161.64 17.1897ZM165.17 16.5065L165.36 17.4882L166.17 17.3315V16.5065H165.17ZM159.533 15.4815L159.414 16.4745L160.479 16.6018L160.532 15.5309L159.533 15.4815ZM154.294 14.8552L153.299 14.7619L153.208 15.7324L154.176 15.8481L154.294 14.8552ZM156.515 9.50289L157.188 10.2428L157.194 10.2373L157.2 10.2317L156.515 9.50289ZM171.49 28.7484V29.7484H172.49V28.7484H171.49ZM167.277 28.7484L166.445 29.3031L166.742 29.7484H167.277V28.7484ZM165.17 24.1363L165.899 24.8203L166.17 24.5318V24.1363H165.17ZM165.17 19.0687H166.17V17.8489L164.974 18.0882L165.17 19.0687ZM162.608 19.5812L162.412 18.6006L162.401 18.6027L162.391 18.605L162.608 19.5812ZM165.682 26.357L164.91 25.7213C163.519 27.4113 161.684 28.2609 159.305 28.2609V29.2609V30.2609C162.241 30.2609 164.657 29.1746 166.454 26.9927L165.682 26.357ZM159.305 29.2609V28.2609C157.724 28.2609 156.541 27.8129 155.659 26.9916L154.978 27.7235L154.296 28.4554C155.616 29.684 157.318 30.2609 159.305 30.2609V29.2609ZM154.978 27.7235L155.685 27.0164C154.844 26.1757 154.383 25.0252 154.383 23.4531H153.383H152.383C152.383 25.4491 152.986 27.1457 154.271 28.4306L154.978 27.7235ZM153.383 23.4531H154.383C154.383 21.9333 154.899 20.9115 155.851 20.2191L155.262 19.4104L154.674 18.6016C153.121 19.7313 152.383 21.4047 152.383 23.4531H153.383ZM155.262 19.4104L155.866 20.2075C156.922 19.4075 158.851 18.6995 161.814 18.1744L161.64 17.1897L161.465 16.2051C158.431 16.7429 156.108 17.5152 154.659 18.6133L155.262 19.4104ZM161.64 17.1897L161.83 18.1715L165.36 17.4882L165.17 16.5065L164.98 15.5247L161.45 16.2079L161.64 17.1897ZM165.17 16.5065H166.17V14.4566H165.17H164.17V16.5065H165.17ZM165.17 14.4566H166.17C166.17 13.1721 165.946 12.029 165.343 11.185C164.696 10.279 163.725 9.86944 162.608 9.86944V10.8694V11.8694C163.199 11.8694 163.509 12.0578 163.716 12.3475C163.967 12.6992 164.17 13.3497 164.17 14.4566H165.17ZM162.608 10.8694V9.86944C161.335 9.86944 160.287 10.4119 159.583 11.4678C158.925 12.4561 158.614 13.8213 158.534 15.4322L159.533 15.4815L160.532 15.5309C160.604 14.067 160.881 13.1262 161.248 12.5772C161.569 12.0957 161.982 11.8694 162.608 11.8694V10.8694ZM159.533 15.4815L159.652 14.4886L154.413 13.8623L154.294 14.8552L154.176 15.8481L159.414 16.4745L159.533 15.4815ZM154.294 14.8552L155.29 14.9485C155.505 12.6589 156.187 11.1527 157.188 10.2428L156.515 9.50289L155.842 8.76295C154.338 10.1306 153.54 12.1927 153.299 14.7619L154.294 14.8552ZM156.515 9.50289L157.2 10.2317C158.174 9.31655 159.944 8.73777 162.778 8.73777V7.73777V6.73777C159.767 6.73777 157.362 7.33574 155.83 8.77405L156.515 9.50289ZM162.778 7.73777V8.73777C165.572 8.73777 167.481 9.31238 168.68 10.2915C169.839 11.2391 170.49 12.6963 170.49 14.8552H171.49H172.49C172.49 12.2692 171.689 10.1676 169.945 8.74272C168.24 7.3494 165.793 6.73777 162.778 6.73777V7.73777ZM171.49 14.8552H170.49V28.7484H171.49H172.49V14.8552H171.49ZM171.49 28.7484V27.7484H167.277V28.7484V29.7484H171.49V28.7484ZM167.277 28.7484L168.109 28.1937L166.514 25.8023L165.682 26.357L164.85 26.9117L166.445 29.3031L167.277 28.7484ZM159.02 23.2822H158.02C158.02 24.3504 158.314 25.3292 159.069 26.0247C159.808 26.706 160.822 26.9584 161.924 26.9584V25.9584V24.9584C161.091 24.9584 160.653 24.7647 160.424 24.554C160.211 24.3575 160.02 23.9982 160.02 23.2822H159.02ZM161.924 25.9584V26.9584C163.357 26.9584 164.686 26.115 165.899 24.8203L165.17 24.1363L164.44 23.4524C163.377 24.5871 162.542 24.9584 161.924 24.9584V25.9584ZM165.17 24.1363H166.17V19.0687H165.17H164.17V24.1363H165.17ZM165.17 19.0687L164.974 18.0882L162.412 18.6006L162.608 19.5812L162.804 20.5618L165.366 20.0493L165.17 19.0687ZM162.608 19.5812L162.391 18.605C161.082 18.8959 159.98 19.4039 159.199 20.2091C158.397 21.0367 158.02 22.0902 158.02 23.2822H159.02H160.02C160.02 22.5383 160.242 22.0071 160.635 21.601C161.051 21.1724 161.742 20.7979 162.825 20.5574L162.608 19.5812ZM183.462 28.7484V29.7484H184.462V28.7484H183.462ZM177.085 28.7484H176.085V29.7484H177.085V28.7484ZM177.085 1.92994L176.961 0.93766L176.085 1.04716V1.92994H177.085ZM183.462 1.13278H184.462V0L183.338 0.140511L183.462 1.13278ZM183.462 28.7484V27.7484H177.085V28.7484V29.7484H183.462V28.7484ZM177.085 28.7484H178.085V1.92994H177.085H176.085V28.7484H177.085ZM177.085 1.92994L177.209 2.92222L183.586 2.12506L183.462 1.13278L183.338 0.140511L176.961 0.93766L177.085 1.92994ZM183.462 1.13278H182.462V28.7484H183.462H184.462V1.13278H183.462ZM206.655 19.3534V20.3534H207.655V19.3534H206.655ZM194.527 19.3534V18.3534H193.527V19.3534H194.527ZM195.381 24.7057L194.515 25.2055L194.52 25.2129L194.524 25.2202L195.381 24.7057ZM201.132 22.7698L201.154 21.77L200.132 21.7478V22.7698H201.132ZM206.371 22.8837L207.366 22.9794L207.469 21.9073L206.393 21.8839L206.371 22.8837ZM204.15 27.5527L203.489 26.8029V26.8029L204.15 27.5527ZM190.371 26.5847L189.593 27.2135L189.601 27.2233L190.371 26.5847ZM200.506 16.2218V17.2218H201.548L201.505 16.181L200.506 16.2218ZM199.709 12.179L198.807 12.6105L198.818 12.6345L198.831 12.6579L199.709 12.179ZM195.495 12.0082L194.638 11.4937L194.634 11.5004L194.63 11.5072L195.495 12.0082ZM194.641 16.2218L193.644 16.1492L193.566 17.2218H194.641V16.2218ZM206.655 19.3534V18.3534H194.527V19.3534V20.3534H206.655V19.3534ZM194.527 19.3534H193.527C193.527 21.9401 193.801 23.967 194.515 25.2055L195.381 24.7057L196.248 24.206C195.823 23.4706 195.527 21.9293 195.527 19.3534H194.527ZM195.381 24.7057L194.524 25.2202C195.294 26.5042 196.533 27.1292 198.058 27.1292V26.1292V25.1292C197.153 25.1292 196.607 24.8052 196.239 24.1912L195.381 24.7057ZM198.058 26.1292V27.1292C199.261 27.1292 200.34 26.7966 201.101 25.9645C201.847 25.1493 202.132 24.0229 202.132 22.7698H201.132H200.132C200.132 23.7563 199.905 24.3097 199.626 24.6142C199.363 24.902 198.904 25.1292 198.058 25.1292V26.1292ZM201.132 22.7698L201.111 23.7696L206.349 23.8834L206.371 22.8837L206.393 21.8839L201.154 21.77L201.132 22.7698ZM206.371 22.8837L205.375 22.788C205.206 24.5506 204.56 25.8574 203.489 26.8029L204.15 27.5527L204.812 28.3026C206.321 26.9704 207.156 25.1646 207.366 22.9794L206.371 22.8837ZM204.15 27.5527L203.489 26.8029C202.484 27.689 200.545 28.2609 197.374 28.2609V29.2609V30.2609C200.657 30.2609 203.235 29.694 204.812 28.3026L204.15 27.5527ZM197.374 29.2609V28.2609C194.366 28.2609 192.367 27.424 191.14 25.9462L190.371 26.5847L189.601 27.2233C191.336 29.3137 194.006 30.2609 197.374 30.2609V29.2609ZM190.371 26.5847L191.148 25.956C189.912 24.4265 189.207 21.9998 189.207 18.4993H188.207H187.207C187.207 22.2112 187.945 25.1748 189.593 27.2135L190.371 26.5847ZM188.207 18.4993H189.207C189.207 15.0342 189.962 12.6221 191.297 11.0835C192.608 9.57208 194.626 8.73777 197.545 8.73777V7.73777V6.73777C194.238 6.73777 191.587 7.69705 189.786 9.77277C188.009 11.8214 187.207 14.7901 187.207 18.4993H188.207ZM197.545 7.73777V8.73777C200.375 8.73777 202.332 9.57801 203.61 11.111C204.916 12.679 205.655 15.1403 205.655 18.6702H206.655H207.655C207.655 14.9118 206.876 11.9068 205.146 9.83068C203.387 7.71959 200.789 6.73777 197.545 6.73777V7.73777ZM206.655 18.6702H205.655V19.3534H206.655H207.655V18.6702H206.655ZM200.506 16.2218L201.505 16.181C201.428 14.2872 201.157 12.746 200.587 11.7002L199.709 12.179L198.831 12.6579C199.172 13.2823 199.432 14.4362 199.507 16.2625L200.506 16.2218ZM199.709 12.179L200.611 11.7476C200.334 11.1688 199.936 10.6827 199.397 10.3476C198.859 10.0132 198.246 9.86944 197.602 9.86944V10.8694V11.8694C197.945 11.8694 198.177 11.944 198.341 12.0461C198.504 12.1475 198.666 12.3162 198.807 12.6105L199.709 12.179ZM197.602 10.8694V9.86944C196.332 9.86944 195.289 10.408 194.638 11.4937L195.495 12.0082L196.353 12.5227C196.612 12.0901 196.974 11.8694 197.602 11.8694V10.8694ZM195.495 12.0082L194.63 11.5072C194.341 12.0057 194.139 12.6602 193.989 13.4039C193.835 14.1619 193.722 15.0804 193.644 16.1492L194.641 16.2218L195.639 16.2943C195.713 15.2754 195.818 14.4476 195.949 13.8012C196.083 13.1404 196.232 12.732 196.361 12.5093L195.495 12.0082ZM194.641 16.2218V17.2218H200.506V16.2218V15.2218H194.641V16.2218ZM216.283 10.0723L215.629 10.8287L216.207 11.3284L216.841 10.9022L216.283 10.0723ZM228.069 9.61678L227.307 10.2637L227.317 10.2762L227.328 10.2883L228.069 9.61678ZM229.721 28.7484V29.7484H230.721V28.7484H229.721ZM223.4 28.7484H222.4V29.7484H223.4V28.7484ZM222.888 12.236L223.759 11.7457L222.888 12.236ZM217.649 12.4068L217.088 11.5793L216.649 11.8769V12.4068H217.649ZM217.649 28.7484V29.7484H218.649V28.7484H217.649ZM211.272 28.7484H210.272V29.7484H211.272V28.7484ZM211.272 8.25022V7.25022H210.272V8.25022H211.272ZM214.176 8.25022L214.83 7.49386L214.549 7.25022H214.176V8.25022ZM216.283 10.0723L216.841 10.9022C219.032 9.4294 221.119 8.73777 223.116 8.73777V7.73777V6.73777C220.633 6.73777 218.165 7.60248 215.725 9.24233L216.283 10.0723ZM223.116 7.73777V8.73777C225.174 8.73777 226.496 9.30844 227.307 10.2637L228.069 9.61678L228.832 8.9698C227.517 7.41977 225.537 6.73777 223.116 6.73777V7.73777ZM228.069 9.61678L227.328 10.2883C228.233 11.2866 228.721 12.6074 228.721 14.3428H229.721H230.721C230.721 12.2062 230.107 10.3764 228.81 8.94525L228.069 9.61678ZM229.721 14.3428H228.721V28.7484H229.721H230.721V14.3428H229.721ZM229.721 28.7484V27.7484H223.4V28.7484V29.7484H229.721V28.7484ZM223.4 28.7484H224.4V15.1399H223.4H222.4V28.7484H223.4ZM223.4 15.1399H224.4C224.4 13.7693 224.232 12.5854 223.759 11.7457L222.888 12.236L222.016 12.7262C222.227 13.1013 222.4 13.8533 222.4 15.1399H223.4ZM222.888 12.236L223.759 11.7457C223.159 10.6778 221.999 10.325 220.781 10.325V11.325V12.325C221.689 12.325 221.934 12.5795 222.016 12.7262L222.888 12.236ZM220.781 11.325V10.325C219.511 10.325 218.274 10.7742 217.088 11.5793L217.649 12.4068L218.211 13.2343C219.15 12.5969 220.002 12.325 220.781 12.325V11.325ZM217.649 12.4068H216.649V28.7484H217.649H218.649V12.4068H217.649ZM217.649 28.7484V27.7484H211.272V28.7484V29.7484H217.649V28.7484ZM211.272 28.7484H212.272V8.25022H211.272H210.272V28.7484H211.272ZM211.272 8.25022V9.25022H214.176V8.25022V7.25022H211.272V8.25022ZM214.176 8.25022L213.522 9.00658L215.629 10.8287L216.283 10.0723L216.937 9.31593L214.83 7.49386L214.176 8.25022ZM252.867 1.13278H253.867V0L252.743 0.140511L252.867 1.13278ZM252.867 28.7484V29.7484H253.867V28.7484H252.867ZM248.539 28.7484L247.722 29.3251L248.021 29.7484H248.539V28.7484ZM247.173 26.8125L247.99 26.2358L247.305 25.2659L246.465 26.1054L247.173 26.8125ZM246.489 8.6488L246.031 9.53742L247.489 10.2903V8.6488H246.489ZM246.489 1.92994L246.365 0.93766L245.489 1.04716V1.92994H246.489ZM246.489 24.7057L247.255 25.3489L247.489 25.07V24.7057H246.489ZM246.489 11.7805H247.489V11.1624L246.937 10.886L246.489 11.7805ZM252.867 1.13278H251.867V28.7484H252.867H253.867V1.13278H252.867ZM252.867 28.7484V27.7484H248.539V28.7484V29.7484H252.867V28.7484ZM248.539 28.7484L249.356 28.1718L247.99 26.2358L247.173 26.8125L246.356 27.3892L247.722 29.3251L248.539 28.7484ZM247.173 26.8125L246.465 26.1054C244.991 27.5801 243.413 28.2609 241.706 28.2609V29.2609V30.2609C244.023 30.2609 246.09 29.3094 247.88 27.5196L247.173 26.8125ZM241.706 29.2609V28.2609C239.39 28.2609 237.797 27.5001 236.743 26.0865C235.648 24.6179 235.02 22.2949 235.02 18.9548H234.02H233.02C233.02 22.4855 233.673 25.3155 235.14 27.2823C236.648 29.304 238.898 30.2609 241.706 30.2609V29.2609ZM234.02 18.9548H235.02C235.02 15.3154 235.722 12.7693 236.963 11.1504C238.165 9.58185 239.987 8.73777 242.617 8.73777V7.73777V6.73777C239.516 6.73777 237.039 7.76321 235.375 9.93369C233.75 12.0538 233.02 15.1162 233.02 18.9548H234.02ZM242.617 7.73777V8.73777C243.872 8.73777 245.004 9.00768 246.031 9.53742L246.489 8.6488L246.948 7.76018C245.621 7.07521 244.172 6.73777 242.617 6.73777V7.73777ZM246.489 8.6488H247.489V1.92994H246.489H245.489V8.6488H246.489ZM246.489 1.92994L246.613 2.92222L252.991 2.12506L252.867 1.13278L252.743 0.140511L246.365 0.93766L246.489 1.92994ZM243.528 26.1292V27.1292C245.018 27.1292 246.279 26.5103 247.255 25.3489L246.489 24.7057L245.724 24.0625C245.105 24.7991 244.392 25.1292 243.528 25.1292V26.1292ZM246.489 24.7057H247.489V11.7805H246.489H245.489V24.7057H246.489ZM246.489 11.7805L246.937 10.886C246.189 10.5125 245.391 10.325 244.553 10.325V11.325V12.325C245.082 12.325 245.575 12.4411 246.042 12.6749L246.489 11.7805ZM244.553 11.325V10.325C242.785 10.325 241.402 11.1389 240.524 12.6808C239.694 14.1391 239.34 16.1976 239.34 18.7271H240.34H241.34C241.34 16.3218 241.688 14.6793 242.262 13.6702C242.789 12.7447 243.513 12.325 244.553 12.325V11.325ZM240.34 18.7271H239.34C239.34 21.2357 239.605 23.2509 240.219 24.6743C240.53 25.3969 240.952 26.0166 241.521 26.4575C242.105 26.9092 242.788 27.1292 243.528 27.1292V26.1292V25.1292C243.206 25.1292 242.959 25.0409 242.745 24.8757C242.518 24.6998 242.276 24.3942 242.055 23.8831C241.606 22.8391 241.34 21.1533 241.34 18.7271H240.34ZM269.932 26.357L270.764 25.8023L270.017 24.6812L269.16 25.7213L269.932 26.357ZM259.228 27.7235L258.521 28.4306L258.533 28.4433L258.546 28.4554L259.228 27.7235ZM259.512 19.4104L260.101 20.2191L260.109 20.2134L260.116 20.2075L259.512 19.4104ZM265.89 17.1897L266.064 18.1744L266.072 18.173L266.08 18.1715L265.89 17.1897ZM269.42 16.5065L269.61 17.4882L270.42 17.3315V16.5065H269.42ZM263.783 15.4815L263.664 16.4745L264.729 16.6018L264.782 15.5309L263.783 15.4815ZM258.544 14.8552L257.549 14.7619L257.458 15.7324L258.426 15.8481L258.544 14.8552ZM260.765 9.50289L261.438 10.2428L261.444 10.2373L261.45 10.2317L260.765 9.50289ZM275.74 28.7484V29.7484H276.74V28.7484H275.74ZM271.527 28.7484L270.695 29.3031L270.992 29.7484H271.527V28.7484ZM269.42 24.1363L270.149 24.8203L270.42 24.5318V24.1363H269.42ZM269.42 19.0687H270.42V17.8489L269.224 18.0882L269.42 19.0687ZM266.858 19.5812L266.662 18.6006L266.651 18.6027L266.641 18.605L266.858 19.5812ZM269.932 26.357L269.16 25.7213C267.769 27.4113 265.934 28.2609 263.555 28.2609V29.2609V30.2609C266.491 30.2609 268.907 29.1746 270.704 26.9927L269.932 26.357ZM263.555 29.2609V28.2609C261.974 28.2609 260.791 27.8129 259.909 26.9916L259.228 27.7235L258.546 28.4554C259.866 29.684 261.568 30.2609 263.555 30.2609V29.2609ZM259.228 27.7235L259.935 27.0164C259.094 26.1757 258.633 25.0252 258.633 23.4531H257.633H256.633C256.633 25.4491 257.236 27.1457 258.521 28.4306L259.228 27.7235ZM257.633 23.4531H258.633C258.633 21.9333 259.149 20.9115 260.101 20.2191L259.512 19.4104L258.924 18.6016C257.371 19.7313 256.633 21.4047 256.633 23.4531H257.633ZM259.512 19.4104L260.116 20.2075C261.172 19.4075 263.101 18.6995 266.064 18.1744L265.89 17.1897L265.715 16.2051C262.68 16.7429 260.358 17.5152 258.909 18.6133L259.512 19.4104ZM265.89 17.1897L266.08 18.1715L269.61 17.4882L269.42 16.5065L269.23 15.5247L265.7 16.2079L265.89 17.1897ZM269.42 16.5065H270.42V14.4566H269.42H268.42V16.5065H269.42ZM269.42 14.4566H270.42C270.42 13.1721 270.196 12.029 269.593 11.185C268.946 10.279 267.975 9.86944 266.858 9.86944V10.8694V11.8694C267.449 11.8694 267.759 12.0578 267.966 12.3475C268.217 12.6992 268.42 13.3497 268.42 14.4566H269.42ZM266.858 10.8694V9.86944C265.585 9.86944 264.537 10.4119 263.833 11.4678C263.175 12.4561 262.864 13.8213 262.784 15.4322L263.783 15.4815L264.782 15.5309C264.854 14.067 265.131 13.1262 265.498 12.5772C265.819 12.0957 266.232 11.8694 266.858 11.8694V10.8694ZM263.783 15.4815L263.902 14.4886L258.663 13.8623L258.544 14.8552L258.426 15.8481L263.664 16.4745L263.783 15.4815ZM258.544 14.8552L259.54 14.9485C259.755 12.6589 260.437 11.1527 261.438 10.2428L260.765 9.50289L260.092 8.76295C258.588 10.1306 257.79 12.1927 257.549 14.7619L258.544 14.8552ZM260.765 9.50289L261.45 10.2317C262.424 9.31655 264.194 8.73777 267.028 8.73777V7.73777V6.73777C264.017 6.73777 261.612 7.33574 260.08 8.77405L260.765 9.50289ZM267.028 7.73777V8.73777C269.822 8.73777 271.731 9.31238 272.93 10.2915C274.089 11.2391 274.74 12.6963 274.74 14.8552H275.74H276.74C276.74 12.2692 275.939 10.1676 274.195 8.74272C272.49 7.3494 270.043 6.73777 267.028 6.73777V7.73777ZM275.74 14.8552H274.74V28.7484H275.74H276.74V14.8552H275.74ZM275.74 28.7484V27.7484H271.527V28.7484V29.7484H275.74V28.7484ZM271.527 28.7484L272.359 28.1937L270.764 25.8023L269.932 26.357L269.1 26.9117L270.695 29.3031L271.527 28.7484ZM263.27 23.2822H262.27C262.27 24.3504 262.564 25.3292 263.319 26.0247C264.058 26.706 265.072 26.9584 266.174 26.9584V25.9584V24.9584C265.341 24.9584 264.903 24.7647 264.674 24.554C264.461 24.3575 264.27 23.9982 264.27 23.2822H263.27ZM266.174 25.9584V26.9584C267.607 26.9584 268.936 26.115 270.149 24.8203L269.42 24.1363L268.69 23.4524C267.627 24.5871 266.792 24.9584 266.174 24.9584V25.9584ZM269.42 24.1363H270.42V19.0687H269.42H268.42V24.1363H269.42ZM269.42 19.0687L269.224 18.0882L266.662 18.6006L266.858 19.5812L267.054 20.5618L269.616 20.0493L269.42 19.0687ZM266.858 19.5812L266.641 18.605C265.332 18.8959 264.23 19.4039 263.449 20.2091C262.647 21.0367 262.27 22.0902 262.27 23.2822H263.27H264.27C264.27 22.5383 264.492 22.0071 264.885 21.601C265.301 21.1724 265.992 20.7979 267.075 20.5574L266.858 19.5812ZM284.239 8.25022L285.052 7.66898L284.753 7.25022H284.239V8.25022ZM286.801 11.8374L285.987 12.4186L286.859 13.6391L287.65 12.3651L286.801 11.8374ZM293.292 8.07941H294.292V7.07941H293.292V8.07941ZM293.292 12.5776V13.5776H294.292V12.5776H293.292ZM288.908 13.4317L288.344 12.6055L288.335 12.6116L288.326 12.618L288.908 13.4317ZM287.712 28.7484V29.7484H288.712V28.7484H287.712ZM281.335 28.7484H280.335V29.7484H281.335V28.7484ZM281.335 8.25022V7.25022H280.335V8.25022H281.335ZM284.239 8.25022L283.425 8.83146L285.987 12.4186L286.801 11.8374L287.615 11.2562L285.052 7.66898L284.239 8.25022ZM286.801 11.8374L287.65 12.3651C289.038 10.1306 290.893 9.07941 293.292 9.07941V8.07941V7.07941C290.149 7.07941 287.676 8.5335 285.951 11.3097L286.801 11.8374ZM293.292 8.07941H292.292V12.5776H293.292H294.292V8.07941H293.292ZM293.292 12.5776V11.5776C291.178 11.5776 289.447 11.8536 288.344 12.6055L288.908 13.4317L289.471 14.2579C290.038 13.871 291.231 13.5776 293.292 13.5776V12.5776ZM288.908 13.4317L288.326 12.618C287.212 13.4142 286.712 14.6249 286.712 16.0509H287.712H288.712C288.712 15.1235 289.009 14.5881 289.489 14.2455L288.908 13.4317ZM287.712 16.0509H286.712V28.7484H287.712H288.712V16.0509H287.712ZM287.712 28.7484V27.7484H281.335V28.7484V29.7484H287.712V28.7484ZM281.335 28.7484H282.335V8.25022H281.335H280.335V28.7484H281.335ZM281.335 8.25022V9.25022H284.239V8.25022V7.25022H281.335V8.25022ZM310.775 14.7983H311.775V14.1416L311.173 13.8806L310.775 14.7983ZM310.775 19.9228L311.173 20.8405L311.775 20.5795V19.9228H310.775ZM296.312 26.1862H295.312V27.709L296.71 27.1038L296.312 26.1862ZM296.312 21.7449L295.935 20.8188L295.312 21.0725V21.7449H296.312ZM307.074 17.3605L307.451 18.2866L309.754 17.3483L307.443 16.4311L307.074 17.3605ZM296.312 13.0901H295.312V13.7691L295.944 14.0196L296.312 13.0901ZM296.312 8.53492L296.71 7.61728L295.312 7.0121V8.53492H296.312ZM310.775 14.7983H309.775V19.9228H310.775H311.775V14.7983H310.775ZM310.775 19.9228L310.378 19.0052L295.915 25.2685L296.312 26.1862L296.71 27.1038L311.173 20.8405L310.775 19.9228ZM296.312 26.1862H297.312V21.7449H296.312H295.312V26.1862H296.312ZM296.312 21.7449L296.69 22.671L307.451 18.2866L307.074 17.3605L306.697 16.4344L295.935 20.8188L296.312 21.7449ZM307.074 17.3605L307.443 16.4311L296.681 12.1606L296.312 13.0901L295.944 14.0196L306.705 18.29L307.074 17.3605ZM296.312 13.0901H297.312V8.53492H296.312H295.312V13.0901H296.312ZM296.312 8.53492L295.915 9.45256L310.378 15.7159L310.775 14.7983L311.173 13.8806L296.71 7.61728L296.312 8.53492Z" fill="#062B44" mask="url(#path-1-outside-1_1_3)"/>
<defs>
<linearGradient id="paint0_linear_1_3" x1="155.874" y1="-69.2516" x2="155.874" y2="97.7484" gradientUnits="userSpaceOnUse">
<stop stop-color="#C4ECFF"/>
<stop offset="1" stop-color="#5EADD2"/>
</linearGradient>
</defs>
</svg>
