<svg width="457" height="167" viewBox="0 0 457 167" fill="none" xmlns="http://www.w3.org/2000/svg">
<mask id="path-1-outside-1_1_3" maskUnits="userSpaceOnUse" x="72" y="69" width="313" height="31" fill="black">
<rect fill="white" x="72" y="69" width="313" height="31"/>
<path d="M88.0887 82.3416L77.3272 86.6121L88.0887 90.9964V95.4377L73.6261 89.1744V84.0498L88.0887 77.7865V82.3416ZM110.78 71.8078V74.8826H104.061V98H97.6842V74.8826H90.8514V71.8078H110.78ZM131.5 94.9822C129.905 97.3357 127.039 98.5125 122.902 98.5125C120.7 98.5125 118.84 98.1898 117.322 97.5445C113.64 95.8743 111.798 91.6607 111.798 84.9039C111.798 80.9181 112.501 77.7295 113.905 75.3381C115.5 72.6429 118.498 71.2954 122.902 71.2954C127.039 71.2954 129.905 72.5101 131.5 74.9395C133.132 77.331 133.948 80.6714 133.948 84.9609C133.948 89.2503 133.132 92.5907 131.5 94.9822ZM118.233 84.9039C118.233 87.1435 118.347 89.0225 118.574 90.5409C118.802 92.0593 119.277 93.3499 119.998 94.4128C120.719 95.4377 121.687 95.9502 122.902 95.9502C126.014 95.9502 127.571 92.2681 127.571 84.9039C127.571 77.5397 126.014 73.8577 122.902 73.8577C121.687 73.8577 120.719 74.3891 119.998 75.452C119.277 76.4769 118.802 77.7485 118.574 79.2669C118.347 80.7853 118.233 82.6643 118.233 84.9039ZM138.336 71.8078H147.788C151.204 71.8078 153.785 72.6429 155.532 74.3132C157.619 76.2871 158.663 79.8173 158.663 84.9039C158.663 89.0795 157.885 92.306 156.329 94.5836C154.81 96.8612 151.963 98 147.788 98H138.336V71.8078ZM144.77 95.6655H146.763C148.205 95.6655 149.325 95.153 150.122 94.1281C150.957 93.0652 151.508 91.8126 151.774 90.3701C152.039 88.8897 152.172 87.0676 152.172 84.9039C152.172 82.7402 152.039 80.9371 151.774 79.4947C151.508 78.0142 150.957 76.7616 150.122 75.7367C149.325 74.6738 148.205 74.1423 146.763 74.1423H144.77V95.6655ZM181.562 94.9822C179.968 97.3357 177.102 98.5125 172.964 98.5125C170.763 98.5125 168.903 98.1898 167.384 97.5445C163.702 95.8743 161.861 91.6607 161.861 84.9039C161.861 80.9181 162.563 77.7295 163.968 75.3381C165.562 72.6429 168.561 71.2954 172.964 71.2954C177.102 71.2954 179.968 72.5101 181.562 74.9395C183.194 77.331 184.01 80.6714 184.01 84.9609C184.01 89.2503 183.194 92.5907 181.562 94.9822ZM168.295 84.9039C168.295 87.1435 168.409 89.0225 168.637 90.5409C168.865 92.0593 169.339 93.3499 170.06 94.4128C170.782 95.4377 171.749 95.9502 172.964 95.9502C176.077 95.9502 177.633 92.2681 177.633 84.9039C177.633 77.5397 176.077 73.8577 172.964 73.8577C171.749 73.8577 170.782 74.3891 170.06 75.452C169.339 76.4769 168.865 77.7485 168.637 79.2669C168.409 80.7853 168.295 82.6643 168.295 84.9039ZM200.071 84.5053V88.605H187.487V84.5053H200.071ZM223.876 78.9253L218.751 79.7224C218.599 77.7865 218.22 76.344 217.613 75.395C217.043 74.446 215.961 73.9715 214.367 73.9715C212.811 73.9715 211.691 74.7877 211.008 76.4199C210.324 78.0142 209.983 80.8422 209.983 84.9039C209.983 88.9276 210.324 91.7556 211.008 93.3879C211.691 95.0202 212.849 95.8363 214.481 95.8363C216.151 95.8363 217.271 95.2669 217.84 94.1281C218.448 92.9893 218.751 91.2811 218.751 89.0036L223.933 89.2313C223.705 92.382 222.965 94.7165 221.712 96.2349C220.46 97.7533 217.935 98.5125 214.139 98.5125C210.343 98.5125 207.629 97.4116 205.997 95.21C204.365 93.0083 203.548 89.573 203.548 84.9039C203.548 80.2349 204.365 76.7995 205.997 74.5979C207.629 72.3962 210.533 71.2954 214.709 71.2954C217.897 71.2954 220.156 71.9407 221.484 73.2313C222.813 74.484 223.61 76.382 223.876 78.9253ZM238.308 95.6085C236.714 97.5445 234.588 98.5125 231.931 98.5125C230.147 98.5125 228.705 98 227.604 96.9751C226.541 95.9122 226.01 94.4887 226.01 92.7046C226.01 90.9205 226.636 89.573 227.889 88.6619C229.141 87.7129 231.267 86.9727 234.266 86.4413L237.796 85.758V83.7082C237.796 81.3167 236.942 80.121 235.234 80.121C233.336 80.121 232.311 81.6584 232.159 84.7331L226.921 84.1068C227.148 81.6773 227.889 79.8932 229.141 78.7544C230.394 77.5777 232.482 76.9893 235.405 76.9893C241.212 76.9893 244.116 79.3618 244.116 84.1068V98H239.903L238.308 95.6085ZM231.647 92.5338C231.647 94.3179 232.615 95.21 234.55 95.21C235.575 95.21 236.657 94.6026 237.796 93.3879V88.3203L235.234 88.8327C232.842 89.3642 231.647 90.5979 231.647 92.5338ZM256.088 98H249.711V71.1815L256.088 70.3843V98ZM279.282 88.605H267.153C267.153 91.1862 267.438 92.9703 268.008 93.9573C268.577 94.9063 269.469 95.3808 270.684 95.3808C272.734 95.3808 273.758 94.261 273.758 92.0214L278.997 92.1352C278.807 94.1091 278.067 95.6655 276.776 96.8043C275.486 97.9431 273.227 98.5125 270 98.5125C266.812 98.5125 264.477 97.6204 262.997 95.8363C261.554 94.0522 260.833 91.3571 260.833 87.7509C260.833 80.5765 263.946 76.9893 270.171 76.9893C276.245 76.9893 279.282 80.6335 279.282 87.9217V88.605ZM273.132 85.4733C273.056 83.6133 272.79 82.2657 272.335 81.4306C271.917 80.5575 271.215 80.121 270.228 80.121C269.279 80.121 268.577 80.5006 268.121 81.2598C267.704 81.981 267.419 83.3855 267.267 85.4733H273.132ZM288.909 79.3238C291.225 77.7675 293.502 76.9893 295.742 76.9893C297.981 76.9893 299.633 77.6157 300.696 78.8683C301.796 80.083 302.347 81.6584 302.347 83.5943V98H296.026V84.3915C296.026 83.0629 295.856 82.0949 295.514 81.4875C295.172 80.8802 294.47 80.5765 293.407 80.5765C292.382 80.5765 291.338 80.9371 290.276 81.6584V98H283.898V77.5018H286.802L288.909 79.3238ZM325.493 70.3843V98H321.165L319.799 96.0641C318.166 97.6963 316.344 98.5125 314.333 98.5125C309.208 98.5125 306.646 95.0771 306.646 88.2064C306.646 80.7284 309.512 76.9893 315.244 76.9893C316.648 76.9893 317.939 77.293 319.115 77.9004V71.1815L325.493 70.3843ZM316.155 95.3808C317.331 95.3808 318.318 94.9063 319.115 93.9573V81.032C318.508 80.7284 317.863 80.5765 317.179 80.5765C314.37 80.5765 312.966 83.0439 312.966 87.9786C312.966 92.9134 314.029 95.3808 316.155 95.3808ZM342.558 95.6085C340.964 97.5445 338.838 98.5125 336.181 98.5125C334.397 98.5125 332.955 98 331.854 96.9751C330.791 95.9122 330.26 94.4887 330.26 92.7046C330.26 90.9205 330.886 89.573 332.139 88.6619C333.391 87.7129 335.517 86.9727 338.516 86.4413L342.046 85.758V83.7082C342.046 81.3167 341.192 80.121 339.484 80.121C337.586 80.121 336.561 81.6584 336.409 84.7331L331.171 84.1068C331.398 81.6773 332.139 79.8932 333.391 78.7544C334.644 77.5777 336.732 76.9893 339.655 76.9893C345.462 76.9893 348.366 79.3618 348.366 84.1068V98H344.153L342.558 95.6085ZM335.897 92.5338C335.897 94.3179 336.865 95.21 338.8 95.21C339.825 95.21 340.907 94.6026 342.046 93.3879V88.3203L339.484 88.8327C337.092 89.3642 335.897 90.5979 335.897 92.5338ZM356.865 77.5018L359.427 81.089C360.983 78.5836 363.147 77.331 365.918 77.331V81.8292C363.83 81.8292 362.369 82.1139 361.534 82.6833C360.737 83.2527 360.338 84.1257 360.338 85.3025V98H353.961V77.5018H356.865ZM383.401 84.0498V89.1744L368.939 95.4377V90.9964L379.7 86.6121L368.939 82.3416V77.7865L383.401 84.0498Z"/>
</mask>
<path d="M88.0887 82.3416L77.3272 86.6121L88.0887 90.9964V95.4377L73.6261 89.1744V84.0498L88.0887 77.7865V82.3416ZM110.78 71.8078V74.8826H104.061V98H97.6842V74.8826H90.8514V71.8078H110.78ZM131.5 94.9822C129.905 97.3357 127.039 98.5125 122.902 98.5125C120.7 98.5125 118.84 98.1898 117.322 97.5445C113.64 95.8743 111.798 91.6607 111.798 84.9039C111.798 80.9181 112.501 77.7295 113.905 75.3381C115.5 72.6429 118.498 71.2954 122.902 71.2954C127.039 71.2954 129.905 72.5101 131.5 74.9395C133.132 77.331 133.948 80.6714 133.948 84.9609C133.948 89.2503 133.132 92.5907 131.5 94.9822ZM118.233 84.9039C118.233 87.1435 118.347 89.0225 118.574 90.5409C118.802 92.0593 119.277 93.3499 119.998 94.4128C120.719 95.4377 121.687 95.9502 122.902 95.9502C126.014 95.9502 127.571 92.2681 127.571 84.9039C127.571 77.5397 126.014 73.8577 122.902 73.8577C121.687 73.8577 120.719 74.3891 119.998 75.452C119.277 76.4769 118.802 77.7485 118.574 79.2669C118.347 80.7853 118.233 82.6643 118.233 84.9039ZM138.336 71.8078H147.788C151.204 71.8078 153.785 72.6429 155.532 74.3132C157.619 76.2871 158.663 79.8173 158.663 84.9039C158.663 89.0795 157.885 92.306 156.329 94.5836C154.81 96.8612 151.963 98 147.788 98H138.336V71.8078ZM144.77 95.6655H146.763C148.205 95.6655 149.325 95.153 150.122 94.1281C150.957 93.0652 151.508 91.8126 151.774 90.3701C152.039 88.8897 152.172 87.0676 152.172 84.9039C152.172 82.7402 152.039 80.9371 151.774 79.4947C151.508 78.0142 150.957 76.7616 150.122 75.7367C149.325 74.6738 148.205 74.1423 146.763 74.1423H144.77V95.6655ZM181.562 94.9822C179.968 97.3357 177.102 98.5125 172.964 98.5125C170.763 98.5125 168.903 98.1898 167.384 97.5445C163.702 95.8743 161.861 91.6607 161.861 84.9039C161.861 80.9181 162.563 77.7295 163.968 75.3381C165.562 72.6429 168.561 71.2954 172.964 71.2954C177.102 71.2954 179.968 72.5101 181.562 74.9395C183.194 77.331 184.01 80.6714 184.01 84.9609C184.01 89.2503 183.194 92.5907 181.562 94.9822ZM168.295 84.9039C168.295 87.1435 168.409 89.0225 168.637 90.5409C168.865 92.0593 169.339 93.3499 170.06 94.4128C170.782 95.4377 171.749 95.9502 172.964 95.9502C176.077 95.9502 177.633 92.2681 177.633 84.9039C177.633 77.5397 176.077 73.8577 172.964 73.8577C171.749 73.8577 170.782 74.3891 170.06 75.452C169.339 76.4769 168.865 77.7485 168.637 79.2669C168.409 80.7853 168.295 82.6643 168.295 84.9039ZM200.071 84.5053V88.605H187.487V84.5053H200.071ZM223.876 78.9253L218.751 79.7224C218.599 77.7865 218.22 76.344 217.613 75.395C217.043 74.446 215.961 73.9715 214.367 73.9715C212.811 73.9715 211.691 74.7877 211.008 76.4199C210.324 78.0142 209.983 80.8422 209.983 84.9039C209.983 88.9276 210.324 91.7556 211.008 93.3879C211.691 95.0202 212.849 95.8363 214.481 95.8363C216.151 95.8363 217.271 95.2669 217.84 94.1281C218.448 92.9893 218.751 91.2811 218.751 89.0036L223.933 89.2313C223.705 92.382 222.965 94.7165 221.712 96.2349C220.46 97.7533 217.935 98.5125 214.139 98.5125C210.343 98.5125 207.629 97.4116 205.997 95.21C204.365 93.0083 203.548 89.573 203.548 84.9039C203.548 80.2349 204.365 76.7995 205.997 74.5979C207.629 72.3962 210.533 71.2954 214.709 71.2954C217.897 71.2954 220.156 71.9407 221.484 73.2313C222.813 74.484 223.61 76.382 223.876 78.9253ZM238.308 95.6085C236.714 97.5445 234.588 98.5125 231.931 98.5125C230.147 98.5125 228.705 98 227.604 96.9751C226.541 95.9122 226.01 94.4887 226.01 92.7046C226.01 90.9205 226.636 89.573 227.889 88.6619C229.141 87.7129 231.267 86.9727 234.266 86.4413L237.796 85.758V83.7082C237.796 81.3167 236.942 80.121 235.234 80.121C233.336 80.121 232.311 81.6584 232.159 84.7331L226.921 84.1068C227.148 81.6773 227.889 79.8932 229.141 78.7544C230.394 77.5777 232.482 76.9893 235.405 76.9893C241.212 76.9893 244.116 79.3618 244.116 84.1068V98H239.903L238.308 95.6085ZM231.647 92.5338C231.647 94.3179 232.615 95.21 234.55 95.21C235.575 95.21 236.657 94.6026 237.796 93.3879V88.3203L235.234 88.8327C232.842 89.3642 231.647 90.5979 231.647 92.5338ZM256.088 98H249.711V71.1815L256.088 70.3843V98ZM279.282 88.605H267.153C267.153 91.1862 267.438 92.9703 268.008 93.9573C268.577 94.9063 269.469 95.3808 270.684 95.3808C272.734 95.3808 273.758 94.261 273.758 92.0214L278.997 92.1352C278.807 94.1091 278.067 95.6655 276.776 96.8043C275.486 97.9431 273.227 98.5125 270 98.5125C266.812 98.5125 264.477 97.6204 262.997 95.8363C261.554 94.0522 260.833 91.3571 260.833 87.7509C260.833 80.5765 263.946 76.9893 270.171 76.9893C276.245 76.9893 279.282 80.6335 279.282 87.9217V88.605ZM273.132 85.4733C273.056 83.6133 272.79 82.2657 272.335 81.4306C271.917 80.5575 271.215 80.121 270.228 80.121C269.279 80.121 268.577 80.5006 268.121 81.2598C267.704 81.981 267.419 83.3855 267.267 85.4733H273.132ZM288.909 79.3238C291.225 77.7675 293.502 76.9893 295.742 76.9893C297.981 76.9893 299.633 77.6157 300.696 78.8683C301.796 80.083 302.347 81.6584 302.347 83.5943V98H296.026V84.3915C296.026 83.0629 295.856 82.0949 295.514 81.4875C295.172 80.8802 294.47 80.5765 293.407 80.5765C292.382 80.5765 291.338 80.9371 290.276 81.6584V98H283.898V77.5018H286.802L288.909 79.3238ZM325.493 70.3843V98H321.165L319.799 96.0641C318.166 97.6963 316.344 98.5125 314.333 98.5125C309.208 98.5125 306.646 95.0771 306.646 88.2064C306.646 80.7284 309.512 76.9893 315.244 76.9893C316.648 76.9893 317.939 77.293 319.115 77.9004V71.1815L325.493 70.3843ZM316.155 95.3808C317.331 95.3808 318.318 94.9063 319.115 93.9573V81.032C318.508 80.7284 317.863 80.5765 317.179 80.5765C314.37 80.5765 312.966 83.0439 312.966 87.9786C312.966 92.9134 314.029 95.3808 316.155 95.3808ZM342.558 95.6085C340.964 97.5445 338.838 98.5125 336.181 98.5125C334.397 98.5125 332.955 98 331.854 96.9751C330.791 95.9122 330.26 94.4887 330.26 92.7046C330.26 90.9205 330.886 89.573 332.139 88.6619C333.391 87.7129 335.517 86.9727 338.516 86.4413L342.046 85.758V83.7082C342.046 81.3167 341.192 80.121 339.484 80.121C337.586 80.121 336.561 81.6584 336.409 84.7331L331.171 84.1068C331.398 81.6773 332.139 79.8932 333.391 78.7544C334.644 77.5777 336.732 76.9893 339.655 76.9893C345.462 76.9893 348.366 79.3618 348.366 84.1068V98H344.153L342.558 95.6085ZM335.897 92.5338C335.897 94.3179 336.865 95.21 338.8 95.21C339.825 95.21 340.907 94.6026 342.046 93.3879V88.3203L339.484 88.8327C337.092 89.3642 335.897 90.5979 335.897 92.5338ZM356.865 77.5018L359.427 81.089C360.983 78.5836 363.147 77.331 365.918 77.331V81.8292C363.83 81.8292 362.369 82.1139 361.534 82.6833C360.737 83.2527 360.338 84.1257 360.338 85.3025V98H353.961V77.5018H356.865ZM383.401 84.0498V89.1744L368.939 95.4377V90.9964L379.7 86.6121L368.939 82.3416V77.7865L383.401 84.0498Z" fill="url(#paint0_linear_1_3)"/>
<path d="M88.0887 82.3416L88.4576 83.2711L89.0887 83.0207V82.3416H88.0887ZM77.3272 86.6121L76.9583 85.6826L74.6468 86.5999L76.9499 87.5382L77.3272 86.6121ZM88.0887 90.9964H89.0887V90.324L88.466 90.0704L88.0887 90.9964ZM88.0887 95.4377L87.6913 96.3554L89.0887 96.9605V95.4377H88.0887ZM73.6261 89.1744H72.6261V89.8311L73.2287 90.092L73.6261 89.1744ZM73.6261 84.0498L73.2287 83.1322L72.6261 83.3931V84.0498H73.6261ZM88.0887 77.7865H89.0887V76.2637L87.6913 76.8688L88.0887 77.7865ZM88.0887 82.3416L87.7199 81.4121L76.9583 85.6826L77.3272 86.6121L77.696 87.5416L88.4576 83.2711L88.0887 82.3416ZM77.3272 86.6121L76.9499 87.5382L87.7114 91.9225L88.0887 90.9964L88.466 90.0704L77.7045 85.686L77.3272 86.6121ZM88.0887 90.9964H87.0887V95.4377H88.0887H89.0887V90.9964H88.0887ZM88.0887 95.4377L88.4861 94.5201L74.0235 88.2567L73.6261 89.1744L73.2287 90.092L87.6913 96.3554L88.0887 95.4377ZM73.6261 89.1744H74.6261V84.0498H73.6261H72.6261V89.1744H73.6261ZM73.6261 84.0498L74.0235 84.9675L88.4862 78.7041L88.0887 77.7865L87.6913 76.8688L73.2287 83.1322L73.6261 84.0498ZM88.0887 77.7865H87.0887V82.3416H88.0887H89.0887V77.7865H88.0887ZM110.78 71.8078H111.78V70.8078H110.78V71.8078ZM110.78 74.8826V75.8826H111.78V74.8826H110.78ZM104.061 74.8826V73.8826H103.061V74.8826H104.061ZM104.061 98V99H105.061V98H104.061ZM97.6842 98H96.6842V99H97.6842V98ZM97.6842 74.8826H98.6842V73.8826H97.6842V74.8826ZM90.8514 74.8826H89.8514V75.8826H90.8514V74.8826ZM90.8514 71.8078V70.8078H89.8514V71.8078H90.8514ZM110.78 71.8078H109.78V74.8826H110.78H111.78V71.8078H110.78ZM110.78 74.8826V73.8826H104.061V74.8826V75.8826H110.78V74.8826ZM104.061 74.8826H103.061V98H104.061H105.061V74.8826H104.061ZM104.061 98V97H97.6842V98V99H104.061V98ZM97.6842 98H98.6842V74.8826H97.6842H96.6842V98H97.6842ZM97.6842 74.8826V73.8826H90.8514V74.8826V75.8826H97.6842V74.8826ZM90.8514 74.8826H91.8514V71.8078H90.8514H89.8514V74.8826H90.8514ZM90.8514 71.8078V72.8078H110.78V71.8078V70.8078H90.8514V71.8078ZM131.5 94.9822L130.674 94.4185L130.672 94.4214L131.5 94.9822ZM117.322 97.5445L116.909 98.4552L116.919 98.4601L116.93 98.4648L117.322 97.5445ZM113.905 75.3381L113.045 74.8289L113.043 74.8317L113.905 75.3381ZM131.5 74.9395L130.664 75.4882L130.668 75.4958L130.674 75.5033L131.5 74.9395ZM118.574 90.5409L119.563 90.3926V90.3926L118.574 90.5409ZM119.998 94.4128L119.17 94.9743L119.175 94.9814L119.18 94.9883L119.998 94.4128ZM119.998 75.452L120.816 76.0275L120.82 76.0205L120.825 76.0135L119.998 75.452ZM118.574 79.2669L119.563 79.4152V79.4152L118.574 79.2669ZM131.5 94.9822L130.672 94.4214C129.339 96.3892 126.869 97.5125 122.902 97.5125V98.5125V99.5125C127.21 99.5125 130.472 98.2822 132.327 95.5431L131.5 94.9822ZM122.902 98.5125V97.5125C120.792 97.5125 119.074 97.2025 117.713 96.6242L117.322 97.5445L116.93 98.4648C118.606 99.1771 120.608 99.5125 122.902 99.5125V98.5125ZM117.322 97.5445L117.735 96.6338C114.612 95.2173 112.798 91.5535 112.798 84.9039H111.798H110.798C110.798 91.768 112.667 96.5312 116.909 98.4552L117.322 97.5445ZM111.798 84.9039H112.798C112.798 81.0229 113.484 78.0296 114.768 75.8445L113.905 75.3381L113.043 74.8317C111.517 77.4295 110.798 80.8134 110.798 84.9039H111.798ZM113.905 75.3381L114.766 75.8472C116.112 73.5723 118.692 72.2954 122.902 72.2954V71.2954V70.2954C118.304 70.2954 114.887 71.7136 113.045 74.8289L113.905 75.3381ZM122.902 71.2954V72.2954C126.857 72.2954 129.325 73.4491 130.664 75.4882L131.5 74.9395L132.336 74.3908C130.485 71.5711 127.221 70.2954 122.902 70.2954V71.2954ZM131.5 74.9395L130.674 75.5033C132.15 77.6663 132.948 80.781 132.948 84.9609H133.948H134.948C134.948 80.5618 134.114 76.9956 132.326 74.3758L131.5 74.9395ZM133.948 84.9609H132.948C132.948 89.1407 132.15 92.2554 130.674 94.4185L131.5 94.9822L132.326 95.546C134.114 92.9261 134.948 89.3599 134.948 84.9609H133.948ZM118.233 84.9039H117.233C117.233 87.1729 117.348 89.1051 117.585 90.6893L118.574 90.5409L119.563 90.3926C119.345 88.94 119.233 87.1142 119.233 84.9039H118.233ZM118.574 90.5409L117.585 90.6893C117.831 92.3271 118.35 93.7657 119.17 94.9743L119.998 94.4128L120.825 93.8513C120.203 92.9342 119.773 91.7915 119.563 90.3926L118.574 90.5409ZM119.998 94.4128L119.18 94.9883C120.081 96.2693 121.349 96.9502 122.902 96.9502V95.9502V94.9502C122.024 94.9502 121.357 94.6061 120.816 93.8373L119.998 94.4128ZM122.902 95.9502V96.9502C123.893 96.9502 124.795 96.6513 125.564 96.045C126.317 95.4505 126.892 94.6024 127.325 93.5779C128.182 91.5497 128.571 88.6261 128.571 84.9039H127.571H126.571C126.571 88.5459 126.181 91.1454 125.482 92.7993C125.137 93.6159 124.739 94.1485 124.325 94.4746C123.927 94.7888 123.467 94.9502 122.902 94.9502V95.9502ZM127.571 84.9039H128.571C128.571 81.1817 128.182 78.2581 127.325 76.2299C126.892 75.2054 126.317 74.3573 125.564 73.7628C124.795 73.1566 123.893 72.8577 122.902 72.8577V73.8577V74.8577C123.467 74.8577 123.927 75.019 124.325 75.3333C124.739 75.6593 125.137 76.1919 125.482 77.0085C126.181 78.6624 126.571 81.2619 126.571 84.9039H127.571ZM122.902 73.8577V72.8577C121.334 72.8577 120.065 73.572 119.17 74.8905L119.998 75.452L120.825 76.0135C121.373 75.2061 122.04 74.8577 122.902 74.8577V73.8577ZM119.998 75.452L119.18 74.8765C118.351 76.054 117.831 77.4805 117.585 79.1186L118.574 79.2669L119.563 79.4152C119.773 78.0166 120.202 76.8998 120.816 76.0275L119.998 75.452ZM118.574 79.2669L117.585 79.1186C117.348 80.7027 117.233 82.635 117.233 84.9039H118.233H119.233C119.233 82.6936 119.345 80.8678 119.563 79.4152L118.574 79.2669ZM138.336 71.8078V70.8078H137.336V71.8078H138.336ZM155.532 74.3132L154.84 75.0358L154.845 75.0398L155.532 74.3132ZM156.329 94.5836L155.503 94.0194L155.497 94.0289L156.329 94.5836ZM138.336 98H137.336V99H138.336V98ZM144.77 95.6655H143.77V96.6655H144.77V95.6655ZM150.122 94.1281L149.336 93.5103L149.333 93.5142L150.122 94.1281ZM151.774 90.3701L152.757 90.5513L152.758 90.5468L151.774 90.3701ZM151.774 79.4947L150.789 79.6713L150.79 79.6758L151.774 79.4947ZM150.122 75.7367L149.322 76.3367L149.334 76.3527L149.347 76.3683L150.122 75.7367ZM144.77 74.1423V73.1423H143.77V74.1423H144.77ZM138.336 71.8078V72.8078H147.788V71.8078V70.8078H138.336V71.8078ZM147.788 71.8078V72.8078C151.054 72.8078 153.345 73.6059 154.84 75.0358L155.532 74.3132L156.223 73.5905C154.225 71.68 151.355 70.8078 147.788 70.8078V71.8078ZM155.532 74.3132L154.845 75.0398C156.624 76.7226 157.663 79.8957 157.663 84.9039H158.663H159.663C159.663 79.7389 158.614 75.8515 156.219 73.5865L155.532 74.3132ZM158.663 84.9039H157.663C157.663 88.9751 156.901 91.9733 155.503 94.0194L156.329 94.5836L157.154 95.1478C158.869 92.6388 159.663 89.1839 159.663 84.9039H158.663ZM156.329 94.5836L155.497 94.0289C154.247 95.9035 151.814 97 147.788 97V98V99C152.113 99 155.374 97.8189 157.161 95.1383L156.329 94.5836ZM147.788 98V97H138.336V98V99H147.788V98ZM138.336 98H139.336V71.8078H138.336H137.336V98H138.336ZM144.77 95.6655V96.6655H146.763V95.6655V94.6655H144.77V95.6655ZM146.763 95.6655V96.6655C148.475 96.6655 149.902 96.0399 150.912 94.7421L150.122 94.1281L149.333 93.5142C148.748 94.2662 147.936 94.6655 146.763 94.6655V95.6655ZM150.122 94.1281L150.909 94.7459C151.852 93.545 152.465 92.1392 152.757 90.5513L151.774 90.3701L150.79 90.1889C150.551 91.4859 150.063 92.5855 149.336 93.5103L150.122 94.1281ZM151.774 90.3701L152.758 90.5468C153.037 88.9888 153.172 87.1035 153.172 84.9039H152.172H151.172C151.172 87.0317 151.041 88.7905 150.789 90.1934L151.774 90.3701ZM152.172 84.9039H153.172C153.172 82.7052 153.038 80.8366 152.757 79.3135L151.774 79.4947L150.79 79.6758C151.041 81.0377 151.172 82.7753 151.172 84.9039H152.172ZM151.774 79.4947L152.758 79.318C152.466 77.6939 151.854 76.2786 150.898 75.105L150.122 75.7367L149.347 76.3683C150.061 77.2445 150.549 78.3345 150.789 79.6713L151.774 79.4947ZM150.122 75.7367L150.922 75.1367C149.918 73.798 148.489 73.1423 146.763 73.1423V74.1423V75.1423C147.922 75.1423 148.732 75.5496 149.322 76.3367L150.122 75.7367ZM146.763 74.1423V73.1423H144.77V74.1423V75.1423H146.763V74.1423ZM144.77 74.1423H143.77V95.6655H144.77H145.77V74.1423H144.77ZM181.562 94.9822L180.736 94.4185L180.734 94.4214L181.562 94.9822ZM167.384 97.5445L166.971 98.4552L166.982 98.4601L166.993 98.4648L167.384 97.5445ZM163.968 75.3381L163.107 74.8289L163.105 74.8317L163.968 75.3381ZM181.562 74.9395L180.726 75.4882L180.731 75.4958L180.736 75.5033L181.562 74.9395ZM168.637 90.5409L169.626 90.3926V90.3926L168.637 90.5409ZM170.06 94.4128L169.233 94.9743L169.238 94.9814L169.242 94.9883L170.06 94.4128ZM170.06 75.452L170.878 76.0275L170.883 76.0205L170.888 76.0135L170.06 75.452ZM168.637 79.2669L169.626 79.4152V79.4152L168.637 79.2669ZM181.562 94.9822L180.734 94.4214C179.401 96.3892 176.932 97.5125 172.964 97.5125V98.5125V99.5125C177.272 99.5125 180.534 98.2822 182.39 95.5431L181.562 94.9822ZM172.964 98.5125V97.5125C170.854 97.5125 169.136 97.2025 167.775 96.6242L167.384 97.5445L166.993 98.4648C168.669 99.1771 170.671 99.5125 172.964 99.5125V98.5125ZM167.384 97.5445L167.797 96.6338C164.675 95.2173 162.861 91.5535 162.861 84.9039H161.861H160.861C160.861 91.768 162.729 96.5312 166.971 98.4552L167.384 97.5445ZM161.861 84.9039H162.861C162.861 81.0229 163.547 78.0296 164.83 75.8445L163.968 75.3381L163.105 74.8317C161.58 77.4295 160.861 80.8134 160.861 84.9039H161.861ZM163.968 75.3381L164.828 75.8472C166.174 73.5723 168.755 72.2954 172.964 72.2954V71.2954V70.2954C168.367 70.2954 164.95 71.7136 163.107 74.8289L163.968 75.3381ZM172.964 71.2954V72.2954C176.92 72.2954 179.388 73.4491 180.726 75.4882L181.562 74.9395L182.398 74.3908C180.548 71.5711 177.284 70.2954 172.964 70.2954V71.2954ZM181.562 74.9395L180.736 75.5033C182.212 77.6663 183.01 80.781 183.01 84.9609H184.01H185.01C185.01 80.5618 184.176 76.9956 182.388 74.3758L181.562 74.9395ZM184.01 84.9609H183.01C183.01 89.1407 182.212 92.2554 180.736 94.4185L181.562 94.9822L182.388 95.546C184.176 92.9261 185.01 89.3599 185.01 84.9609H184.01ZM168.295 84.9039H167.295C167.295 87.1729 167.41 89.1051 167.648 90.6893L168.637 90.5409L169.626 90.3926C169.408 88.94 169.295 87.1142 169.295 84.9039H168.295ZM168.637 90.5409L167.648 90.6893C167.894 92.3271 168.413 93.7657 169.233 94.9743L170.06 94.4128L170.888 93.8513C170.265 92.9342 169.836 91.7915 169.626 90.3926L168.637 90.5409ZM170.06 94.4128L169.242 94.9883C170.144 96.2693 171.412 96.9502 172.964 96.9502V95.9502V94.9502C172.087 94.9502 171.419 94.6061 170.878 93.8373L170.06 94.4128ZM172.964 95.9502V96.9502C173.956 96.9502 174.857 96.6513 175.626 96.045C176.38 95.4505 176.954 94.6024 177.387 93.5779C178.244 91.5497 178.633 88.6261 178.633 84.9039H177.633H176.633C176.633 88.5459 176.244 91.1454 175.545 92.7993C175.2 93.6159 174.801 94.1485 174.388 94.4746C173.989 94.7888 173.529 94.9502 172.964 94.9502V95.9502ZM177.633 84.9039H178.633C178.633 81.1817 178.244 78.2581 177.387 76.2299C176.954 75.2054 176.38 74.3573 175.626 73.7628C174.857 73.1566 173.956 72.8577 172.964 72.8577V73.8577V74.8577C173.529 74.8577 173.989 75.019 174.388 75.3333C174.801 75.6593 175.2 76.1919 175.545 77.0085C176.244 78.6624 176.633 81.2619 176.633 84.9039H177.633ZM172.964 73.8577V72.8577C171.396 72.8577 170.127 73.572 169.233 74.8905L170.06 75.452L170.888 76.0135C171.436 75.2061 172.103 74.8577 172.964 74.8577V73.8577ZM170.06 75.452L169.242 74.8765C168.414 76.054 167.894 77.4805 167.648 79.1186L168.637 79.2669L169.626 79.4152C169.836 78.0166 170.264 76.8998 170.878 76.0275L170.06 75.452ZM168.637 79.2669L167.648 79.1186C167.41 80.7027 167.295 82.635 167.295 84.9039H168.295H169.295C169.295 82.6936 169.408 80.8678 169.626 79.4152L168.637 79.2669ZM200.071 84.5053H201.071V83.5053H200.071V84.5053ZM200.071 88.605V89.605H201.071V88.605H200.071ZM187.487 88.605H186.487V89.605H187.487V88.605ZM187.487 84.5053V83.5053H186.487V84.5053H187.487ZM200.071 84.5053H199.071V88.605H200.071H201.071V84.5053H200.071ZM200.071 88.605V87.605H187.487V88.605V89.605H200.071V88.605ZM187.487 88.605H188.487V84.5053H187.487H186.487V88.605H187.487ZM187.487 84.5053V85.5053H200.071V84.5053V83.5053H187.487V84.5053ZM223.876 78.9253L224.03 79.9134L224.969 79.7672L224.87 78.8214L223.876 78.9253ZM218.751 79.7224L217.754 79.8006L217.839 80.8764L218.905 80.7105L218.751 79.7224ZM217.613 75.395L216.755 75.9095L216.762 75.9219L216.77 75.9341L217.613 75.395ZM211.008 76.4199L211.927 76.8139L211.93 76.8061L211.008 76.4199ZM211.008 93.3879L211.93 93.0018V93.0018L211.008 93.3879ZM217.84 94.1281L216.958 93.6575L216.952 93.6691L216.946 93.6809L217.84 94.1281ZM218.751 89.0036L218.795 88.0045L217.751 87.9586V89.0036H218.751ZM223.933 89.2313L224.93 89.3034L225.004 88.2775L223.977 88.2323L223.933 89.2313ZM221.712 96.2349L220.941 95.5985L221.712 96.2349ZM205.997 95.21L205.194 95.8055V95.8055L205.997 95.21ZM205.997 74.5979L205.194 74.0023V74.0023L205.997 74.5979ZM221.484 73.2313L220.788 73.9486L220.793 73.9538L220.798 73.9589L221.484 73.2313ZM223.876 78.9253L223.722 77.9371L218.598 78.7343L218.751 79.7224L218.905 80.7105L224.03 79.9134L223.876 78.9253ZM218.751 79.7224L219.748 79.6442C219.592 77.6474 219.194 76.0102 218.455 74.856L217.613 75.395L216.77 75.9341C217.246 76.6778 217.607 77.9256 217.754 79.8006L218.751 79.7224ZM217.613 75.395L218.47 74.8805C217.647 73.5088 216.143 72.9715 214.367 72.9715V73.9715V74.9715C215.78 74.9715 216.439 75.3833 216.755 75.9095L217.613 75.395ZM214.367 73.9715V72.9715C213.404 72.9715 212.523 73.2276 211.771 73.7755C211.028 74.3171 210.478 75.0952 210.085 76.0338L211.008 76.4199L211.93 76.8061C212.22 76.1124 212.572 75.6663 212.949 75.3918C213.317 75.1235 213.773 74.9715 214.367 74.9715V73.9715ZM211.008 76.4199L210.088 76.026C209.317 77.827 208.983 80.841 208.983 84.9039H209.983H210.983C210.983 80.8435 211.332 78.2015 211.927 76.8139L211.008 76.4199ZM209.983 84.9039H208.983C208.983 88.9337 209.318 91.9407 210.085 93.774L211.008 93.3879L211.93 93.0018C211.331 91.5706 210.983 88.9216 210.983 84.9039H209.983ZM211.008 93.3879L210.085 93.774C210.481 94.7206 211.046 95.5011 211.812 96.0415C212.584 96.5859 213.491 96.8363 214.481 96.8363V95.8363V94.8363C213.839 94.8363 213.35 94.6786 212.965 94.4069C212.573 94.1312 212.217 93.6875 211.93 93.0018L211.008 93.3879ZM214.481 95.8363V96.8363C216.391 96.8363 217.942 96.1615 218.735 94.5753L217.84 94.1281L216.946 93.6809C216.6 94.3723 215.911 94.8363 214.481 94.8363V95.8363ZM217.84 94.1281L218.723 94.5987C219.446 93.243 219.751 91.3374 219.751 89.0036H218.751H217.751C217.751 91.2249 217.45 92.7357 216.958 93.6575L217.84 94.1281ZM218.751 89.0036L218.707 90.0026L223.889 90.2304L223.933 89.2313L223.977 88.2323L218.795 88.0045L218.751 89.0036ZM223.933 89.2313L222.935 89.1592C222.714 92.2179 222.003 94.3107 220.941 95.5985L221.712 96.2349L222.484 96.8713C223.926 95.1223 224.696 92.546 224.93 89.3034L223.933 89.2313ZM221.712 96.2349L220.941 95.5985C219.995 96.745 217.889 97.5125 214.139 97.5125V98.5125V99.5125C217.981 99.5125 220.924 98.7615 222.484 96.8713L221.712 96.2349ZM214.139 98.5125V97.5125C210.529 97.5125 208.178 96.4723 206.8 94.6144L205.997 95.21L205.194 95.8055C207.081 98.3509 210.157 99.5125 214.139 99.5125V98.5125ZM205.997 95.21L206.8 94.6144C205.358 92.6691 204.548 89.4943 204.548 84.9039H203.548H202.548C202.548 89.6516 203.371 93.3475 205.194 95.8055L205.997 95.21ZM203.548 84.9039H204.548C204.548 80.3135 205.358 77.1387 206.8 75.1934L205.997 74.5979L205.194 74.0023C203.371 76.4603 202.548 80.1563 202.548 84.9039H203.548ZM205.997 74.5979L206.8 75.1934C208.161 73.3579 210.679 72.2954 214.709 72.2954V71.2954V70.2954C210.387 70.2954 207.097 71.4345 205.194 74.0023L205.997 74.5979ZM214.709 71.2954V72.2954C217.811 72.2954 219.741 72.9323 220.788 73.9486L221.484 73.2313L222.181 72.514C220.57 70.9491 217.983 70.2954 214.709 70.2954V71.2954ZM221.484 73.2313L220.798 73.9589C221.894 74.9921 222.631 76.6293 222.881 79.0292L223.876 78.9253L224.87 78.8214C224.59 76.1346 223.732 73.9759 222.17 72.5037L221.484 73.2313ZM238.309 95.6085L239.141 95.0538L238.393 93.9327L237.537 94.9728L238.309 95.6085ZM227.604 96.9751L226.897 97.6822L226.909 97.6948L226.922 97.707L227.604 96.9751ZM227.889 88.6619L228.477 89.4707L228.485 89.4649L228.492 89.459L227.889 88.6619ZM234.266 86.4413L234.44 87.4259L234.448 87.4246L234.456 87.4231L234.266 86.4413ZM237.796 85.758L237.986 86.7398L238.796 86.583V85.758H237.796ZM232.159 84.7331L232.04 85.726L233.105 85.8533L233.158 84.7824L232.159 84.7331ZM226.921 84.1068L225.925 84.0134L225.834 84.984L226.802 85.0997L226.921 84.1068ZM229.141 78.7544L229.814 79.4944L229.82 79.4889L229.826 79.4833L229.141 78.7544ZM244.116 98V99H245.116V98H244.116ZM239.903 98L239.071 98.5547L239.368 99H239.903V98ZM237.796 93.3879L238.526 94.0718L238.796 93.7833V93.3879H237.796ZM237.796 88.3203H238.796V87.1005L237.6 87.3397L237.796 88.3203ZM235.234 88.8327L235.038 87.8522L235.027 87.8542L235.017 87.8566L235.234 88.8327ZM238.309 95.6085L237.537 94.9728C236.145 96.6628 234.31 97.5125 231.931 97.5125V98.5125V99.5125C234.867 99.5125 237.284 98.4261 239.08 96.2442L238.309 95.6085ZM231.931 98.5125V97.5125C230.35 97.5125 229.167 97.0645 228.285 96.2432L227.604 96.9751L226.922 97.707C228.242 98.9355 229.944 99.5125 231.931 99.5125V98.5125ZM227.604 96.9751L228.311 96.268C227.47 95.4272 227.01 94.2768 227.01 92.7046H226.01H225.01C225.01 94.7007 225.612 96.3972 226.897 97.6822L227.604 96.9751ZM226.01 92.7046H227.01C227.01 91.1848 227.525 90.163 228.477 89.4707L227.889 88.6619L227.3 87.8532C225.747 88.9829 225.01 90.6562 225.01 92.7046H226.01ZM227.889 88.6619L228.492 89.459C229.548 88.6591 231.477 87.951 234.44 87.4259L234.266 86.4413L234.091 85.4566C231.057 85.9944 228.734 86.7668 227.285 87.8648L227.889 88.6619ZM234.266 86.4413L234.456 87.4231L237.986 86.7398L237.796 85.758L237.606 84.7762L234.076 85.4595L234.266 86.4413ZM237.796 85.758H238.796V83.7082H237.796H236.796V85.758H237.796ZM237.796 83.7082H238.796C238.796 82.4236 238.572 81.2806 237.969 80.4366C237.322 79.5305 236.351 79.121 235.234 79.121V80.121V81.121C235.825 81.121 236.135 81.3093 236.342 81.599C236.593 81.9507 236.796 82.6013 236.796 83.7082H237.796ZM235.234 80.121V79.121C233.961 79.121 232.913 79.6635 232.21 80.7193C231.551 81.7076 231.24 83.0729 231.16 84.6838L232.159 84.7331L233.158 84.7824C233.23 83.3186 233.508 82.3778 233.874 81.8287C234.195 81.3472 234.608 81.121 235.234 81.121V80.121ZM232.159 84.7331L232.278 83.7402L227.039 83.1138L226.921 84.1068L226.802 85.0997L232.04 85.726L232.159 84.7331ZM226.921 84.1068L227.916 84.2001C228.131 81.9105 228.813 80.4043 229.814 79.4944L229.141 78.7544L228.469 78.0145C226.964 79.3822 226.166 81.4442 225.925 84.0134L226.921 84.1068ZM229.141 78.7544L229.826 79.4833C230.8 78.5681 232.571 77.9893 235.405 77.9893V76.9893V75.9893C232.393 75.9893 229.988 76.5873 228.457 78.0256L229.141 78.7544ZM235.405 76.9893V77.9893C238.198 77.9893 240.107 78.5639 241.306 79.5431C242.466 80.4906 243.116 81.9478 243.116 84.1068H244.116H245.116C245.116 81.5208 244.315 79.4192 242.571 77.9943C240.866 76.601 238.419 75.9893 235.405 75.9893V76.9893ZM244.116 84.1068H243.116V98H244.116H245.116V84.1068H244.116ZM244.116 98V97H239.903V98V99H244.116V98ZM239.903 98L240.735 97.4453L239.141 95.0538L238.309 95.6085L237.476 96.1632L239.071 98.5547L239.903 98ZM231.647 92.5338H230.647C230.647 93.6019 230.94 94.5807 231.695 95.2763C232.434 95.9576 233.448 96.21 234.55 96.21V95.21V94.21C233.717 94.21 233.279 94.0163 233.05 93.8056C232.837 93.6091 232.647 93.2498 232.647 92.5338H231.647ZM234.55 95.21V96.21C235.983 96.21 237.312 95.3666 238.526 94.0718L237.796 93.3879L237.066 92.704C236.003 93.8386 235.168 94.21 234.55 94.21V95.21ZM237.796 93.3879H238.796V88.3203H237.796H236.796V93.3879H237.796ZM237.796 88.3203L237.6 87.3397L235.038 87.8522L235.234 88.8327L235.43 89.8133L237.992 89.3009L237.796 88.3203ZM235.234 88.8327L235.017 87.8566C233.708 88.1474 232.606 88.6555 231.825 89.4606C231.023 90.2882 230.647 91.3418 230.647 92.5338H231.647H232.647C232.647 91.7899 232.868 91.2586 233.261 90.8526C233.677 90.424 234.368 90.0495 235.451 89.8089L235.234 88.8327ZM256.088 98V99H257.088V98H256.088ZM249.711 98H248.711V99H249.711V98ZM249.711 71.1815L249.587 70.1892L248.711 70.2987V71.1815H249.711ZM256.088 70.3843H257.088V69.2516L255.964 69.3921L256.088 70.3843ZM256.088 98V97H249.711V98V99H256.088V98ZM249.711 98H250.711V71.1815H249.711H248.711V98H249.711ZM249.711 71.1815L249.835 72.1738L256.212 71.3766L256.088 70.3843L255.964 69.3921L249.587 70.1892L249.711 71.1815ZM256.088 70.3843H255.088V98H256.088H257.088V70.3843H256.088ZM279.282 88.605V89.605H280.282V88.605H279.282ZM267.153 88.605V87.605H266.153V88.605H267.153ZM268.008 93.9573L267.141 94.457L267.146 94.4644L267.15 94.4718L268.008 93.9573ZM273.758 92.0214L273.78 91.0216L272.758 90.9994V92.0214H273.758ZM278.997 92.1352L279.992 92.2309L280.095 91.1589L279.019 91.1355L278.997 92.1352ZM276.776 96.8043L276.115 96.0544V96.0544L276.776 96.8043ZM262.997 95.8363L262.219 96.4651L262.227 96.4749L262.997 95.8363ZM273.132 85.4733V86.4733H274.174L274.131 85.4325L273.132 85.4733ZM272.335 81.4306L271.433 81.8621L271.444 81.8861L271.457 81.9095L272.335 81.4306ZM268.121 81.2598L267.264 80.7453L267.26 80.752L267.256 80.7588L268.121 81.2598ZM267.267 85.4733L266.27 85.4008L266.192 86.4733H267.267V85.4733ZM279.282 88.605V87.605H267.153V88.605V89.605H279.282V88.605ZM267.153 88.605H266.153C266.153 91.1917 266.427 93.2186 267.141 94.457L268.008 93.9573L268.874 93.4576C268.449 92.7221 268.153 91.1808 268.153 88.605H267.153ZM268.008 93.9573L267.15 94.4718C267.92 95.7558 269.159 96.3808 270.684 96.3808V95.3808V94.3808C269.779 94.3808 269.233 94.0568 268.865 93.4428L268.008 93.9573ZM270.684 95.3808V96.3808C271.887 96.3808 272.966 96.0481 273.727 95.2161C274.474 94.4008 274.758 93.2745 274.758 92.0214H273.758H272.758C272.758 93.0079 272.531 93.5612 272.252 93.8658C271.989 94.1535 271.531 94.3808 270.684 94.3808V95.3808ZM273.758 92.0214L273.737 93.0211L278.975 93.135L278.997 92.1352L279.019 91.1355L273.78 91.0216L273.758 92.0214ZM278.997 92.1352L278.001 92.0395C277.832 93.8021 277.186 95.109 276.115 96.0544L276.776 96.8043L277.438 97.5541C278.948 96.222 279.782 94.4161 279.992 92.2309L278.997 92.1352ZM276.776 96.8043L276.115 96.0544C275.11 96.9406 273.171 97.5125 270 97.5125V98.5125V99.5125C273.283 99.5125 275.861 98.9455 277.438 97.5541L276.776 96.8043ZM270 98.5125V97.5125C266.992 97.5125 264.993 96.6756 263.766 95.1977L262.997 95.8363L262.227 96.4749C263.962 98.5652 266.632 99.5125 270 99.5125V98.5125ZM262.997 95.8363L263.775 95.2076C262.538 93.6781 261.833 91.2514 261.833 87.7509H260.833H259.833C259.833 91.4627 260.571 94.4263 262.219 96.465L262.997 95.8363ZM260.833 87.7509H261.833C261.833 84.2858 262.588 81.8737 263.923 80.3351C265.235 78.8236 267.253 77.9893 270.171 77.9893V76.9893V75.9893C266.865 75.9893 264.214 76.9486 262.412 79.0243C260.635 81.0729 259.833 84.0416 259.833 87.7509H260.833ZM270.171 76.9893V77.9893C273.001 77.9893 274.958 78.8296 276.236 80.3626C277.542 81.9306 278.282 84.3918 278.282 87.9217H279.282H280.282C280.282 84.1633 279.502 81.1584 277.772 79.0822C276.013 76.9711 273.415 75.9893 270.171 75.9893V76.9893ZM279.282 87.9217H278.282V88.605H279.282H280.282V87.9217H279.282ZM273.132 85.4733L274.131 85.4325C274.054 83.5388 273.783 81.9975 273.213 80.9518L272.335 81.4306L271.457 81.9095C271.798 82.5339 272.058 83.6878 272.133 85.5141L273.132 85.4733ZM272.335 81.4306L273.237 80.9991C272.96 80.4204 272.562 79.9343 272.023 79.5991C271.485 79.2647 270.872 79.121 270.228 79.121V80.121V81.121C270.572 81.121 270.803 81.1955 270.967 81.2977C271.13 81.3991 271.292 81.5678 271.433 81.8621L272.335 81.4306ZM270.228 80.121V79.121C268.959 79.121 267.915 79.6595 267.264 80.7453L268.121 81.2598L268.979 81.7743C269.239 81.3416 269.6 81.121 270.228 81.121V80.121ZM268.121 81.2598L267.256 80.7588C266.967 81.2572 266.765 81.9118 266.615 82.6554C266.461 83.4135 266.348 84.3319 266.27 85.4008L267.267 85.4733L268.265 85.5458C268.339 84.5269 268.444 83.6992 268.575 83.0528C268.709 82.3919 268.858 81.9836 268.987 81.7608L268.121 81.2598ZM267.267 85.4733V86.4733H273.132V85.4733V84.4733H267.267V85.4733ZM288.909 79.3238L288.255 80.0802L288.833 80.58L289.467 80.1538L288.909 79.3238ZM300.695 78.8683L299.933 79.5153L299.944 79.5278L299.955 79.5398L300.695 78.8683ZM302.347 98V99H303.347V98H302.347ZM296.026 98H295.026V99H296.026V98ZM295.514 81.4875L296.386 80.9973L295.514 81.4875ZM290.276 81.6584L289.714 80.8309L289.276 81.1284V81.6584H290.276ZM290.276 98V99H291.276V98H290.276ZM283.898 98H282.898V99H283.898V98ZM283.898 77.5018V76.5018H282.898V77.5018H283.898ZM286.802 77.5018L287.456 76.7454L287.175 76.5018H286.802V77.5018ZM288.909 79.3238L289.467 80.1538C291.658 78.681 293.745 77.9893 295.742 77.9893V76.9893V75.9893C293.26 75.9893 290.791 76.854 288.351 78.4939L288.909 79.3238ZM295.742 76.9893V77.9893C297.8 77.9893 299.122 78.56 299.933 79.5153L300.695 78.8683L301.458 78.2214C300.143 76.6713 298.163 75.9893 295.742 75.9893V76.9893ZM300.695 78.8683L299.955 79.5398C300.859 80.5382 301.347 81.859 301.347 83.5943H302.347H303.347C303.347 81.4577 302.733 79.6279 301.436 78.1968L300.695 78.8683ZM302.347 83.5943H301.347V98H302.347H303.347V83.5943H302.347ZM302.347 98V97H296.026V98V99H302.347V98ZM296.026 98H297.026V84.3915H296.026H295.026V98H296.026ZM296.026 84.3915H297.026C297.026 83.0209 296.858 81.8369 296.386 80.9973L295.514 81.4875L294.642 81.9778C294.853 82.3529 295.026 83.1049 295.026 84.3915H296.026ZM295.514 81.4875L296.386 80.9973C295.785 79.9293 294.626 79.5765 293.407 79.5765V80.5765V81.5765C294.315 81.5765 294.56 81.8311 294.642 81.9778L295.514 81.4875ZM293.407 80.5765V79.5765C292.137 79.5765 290.901 80.0258 289.714 80.8309L290.276 81.6584L290.837 82.4858C291.776 81.8485 292.628 81.5765 293.407 81.5765V80.5765ZM290.276 81.6584H289.276V98H290.276H291.276V81.6584H290.276ZM290.276 98V97H283.898V98V99H290.276V98ZM283.898 98H284.898V77.5018H283.898H282.898V98H283.898ZM283.898 77.5018V78.5018H286.802V77.5018V76.5018H283.898V77.5018ZM286.802 77.5018L286.148 78.2581L288.255 80.0802L288.909 79.3238L289.563 78.5675L287.456 76.7454L286.802 77.5018ZM325.493 70.3843H326.493V69.2516L325.369 69.3921L325.493 70.3843ZM325.493 98V99H326.493V98H325.493ZM321.165 98L320.348 98.5767L320.647 99H321.165V98ZM319.799 96.0641L320.616 95.4874L319.931 94.5175L319.092 95.3569L319.799 96.0641ZM319.115 77.9004L318.657 78.789L320.115 79.5418V77.9004H319.115ZM319.115 71.1815L318.991 70.1892L318.115 70.2987V71.1815H319.115ZM319.115 93.9573L319.881 94.6005L320.115 94.3216V93.9573H319.115ZM319.115 81.032H320.115V80.414L319.563 80.1376L319.115 81.032ZM325.493 70.3843H324.493V98H325.493H326.493V70.3843H325.493ZM325.493 98V97H321.165V98V99H325.493V98ZM321.165 98L321.982 97.4233L320.616 95.4874L319.799 96.0641L318.982 96.6407L320.348 98.5767L321.165 98ZM319.799 96.0641L319.092 95.3569C317.617 96.8317 316.04 97.5125 314.333 97.5125V98.5125V99.5125C316.649 99.5125 318.716 98.561 320.506 96.7712L319.799 96.0641ZM314.333 98.5125V97.5125C312.016 97.5125 310.423 96.7516 309.369 95.3381C308.274 93.8695 307.646 91.5465 307.646 88.2064H306.646H305.646C305.646 91.7371 306.299 94.5671 307.766 96.5338C309.274 98.5556 311.524 99.5125 314.333 99.5125V98.5125ZM306.646 88.2064H307.646C307.646 84.567 308.348 82.0208 309.589 80.4019C310.791 78.8334 312.614 77.9893 315.244 77.9893V76.9893V75.9893C312.142 75.9893 309.665 77.0148 308.001 79.1852C306.376 81.3054 305.646 84.3678 305.646 88.2064H306.646ZM315.244 76.9893V77.9893C316.498 77.9893 317.63 78.2592 318.657 78.789L319.115 77.9004L319.574 77.0117C318.247 76.3268 316.798 75.9893 315.244 75.9893V76.9893ZM319.115 77.9004H320.115V71.1815H319.115H318.115V77.9004H319.115ZM319.115 71.1815L319.239 72.1738L325.617 71.3766L325.493 70.3843L325.369 69.3921L318.991 70.1892L319.115 71.1815ZM316.155 95.3808V96.3808C317.644 96.3808 318.906 95.7619 319.881 94.6005L319.115 93.9573L318.35 93.3141C317.731 94.0507 317.018 94.3808 316.155 94.3808V95.3808ZM319.115 93.9573H320.115V81.032H319.115H318.115V93.9573H319.115ZM319.115 81.032L319.563 80.1376C318.816 79.764 318.017 79.5765 317.18 79.5765V80.5765V81.5765C317.709 81.5765 318.201 81.6927 318.668 81.9265L319.115 81.032ZM317.18 80.5765V79.5765C315.411 79.5765 314.028 80.3904 313.15 81.9324C312.32 83.3906 311.966 85.4492 311.966 87.9786H312.966H313.966C313.966 85.5734 314.314 83.9309 314.888 82.9217C315.415 81.9963 316.139 81.5765 317.18 81.5765V80.5765ZM312.966 87.9786H311.966C311.966 90.4872 312.232 92.5025 312.845 93.9259C313.156 94.6484 313.578 95.2681 314.148 95.709C314.731 96.1607 315.415 96.3808 316.155 96.3808V95.3808V94.3808C315.832 94.3808 315.585 94.2924 315.372 94.1273C315.144 93.9513 314.902 93.6458 314.682 93.1346C314.232 92.0906 313.966 90.4048 313.966 87.9786H312.966ZM342.559 95.6085L343.391 95.0538L342.643 93.9327L341.787 94.9728L342.559 95.6085ZM331.854 96.9751L331.147 97.6822L331.159 97.6948L331.172 97.707L331.854 96.9751ZM332.139 88.6619L332.727 89.4707L332.735 89.4649L332.742 89.459L332.139 88.6619ZM338.516 86.4413L338.69 87.4259L338.698 87.4246L338.706 87.4231L338.516 86.4413ZM342.046 85.758L342.236 86.7398L343.046 86.583V85.758H342.046ZM336.409 84.7331L336.29 85.726L337.355 85.8533L337.408 84.7824L336.409 84.7331ZM331.171 84.1068L330.175 84.0134L330.084 84.984L331.052 85.0997L331.171 84.1068ZM333.391 78.7544L334.064 79.4944L334.07 79.4889L334.076 79.4833L333.391 78.7544ZM348.366 98V99H349.366V98H348.366ZM344.153 98L343.321 98.5547L343.618 99H344.153V98ZM342.046 93.3879L342.776 94.0718L343.046 93.7833V93.3879H342.046ZM342.046 88.3203H343.046V87.1005L341.85 87.3397L342.046 88.3203ZM339.484 88.8327L339.288 87.8522L339.277 87.8542L339.267 87.8566L339.484 88.8327ZM342.559 95.6085L341.787 94.9728C340.395 96.6628 338.56 97.5125 336.181 97.5125V98.5125V99.5125C339.117 99.5125 341.534 98.4261 343.33 96.2442L342.559 95.6085ZM336.181 98.5125V97.5125C334.6 97.5125 333.417 97.0645 332.535 96.2432L331.854 96.9751L331.172 97.707C332.492 98.9355 334.194 99.5125 336.181 99.5125V98.5125ZM331.854 96.9751L332.561 96.268C331.72 95.4272 331.26 94.2768 331.26 92.7046H330.26H329.26C329.26 94.7007 329.862 96.3972 331.147 97.6822L331.854 96.9751ZM330.26 92.7046H331.26C331.26 91.1848 331.775 90.163 332.727 89.4707L332.139 88.6619L331.55 87.8532C329.997 88.9829 329.26 90.6562 329.26 92.7046H330.26ZM332.139 88.6619L332.742 89.459C333.798 88.6591 335.727 87.951 338.69 87.4259L338.516 86.4413L338.341 85.4566C335.307 85.9944 332.984 86.7668 331.535 87.8648L332.139 88.6619ZM338.516 86.4413L338.706 87.4231L342.236 86.7398L342.046 85.758L341.856 84.7762L338.326 85.4595L338.516 86.4413ZM342.046 85.758H343.046V83.7082H342.046H341.046V85.758H342.046ZM342.046 83.7082H343.046C343.046 82.4236 342.822 81.2806 342.219 80.4366C341.572 79.5305 340.601 79.121 339.484 79.121V80.121V81.121C340.075 81.121 340.385 81.3093 340.592 81.599C340.843 81.9507 341.046 82.6013 341.046 83.7082H342.046ZM339.484 80.121V79.121C338.211 79.121 337.163 79.6635 336.46 80.7193C335.801 81.7076 335.49 83.0729 335.41 84.6838L336.409 84.7331L337.408 84.7824C337.48 83.3186 337.758 82.3778 338.124 81.8287C338.445 81.3472 338.858 81.121 339.484 81.121V80.121ZM336.409 84.7331L336.528 83.7402L331.289 83.1138L331.171 84.1068L331.052 85.0997L336.29 85.726L336.409 84.7331ZM331.171 84.1068L332.166 84.2001C332.381 81.9105 333.063 80.4043 334.064 79.4944L333.391 78.7544L332.719 78.0145C331.214 79.3822 330.416 81.4442 330.175 84.0134L331.171 84.1068ZM333.391 78.7544L334.076 79.4833C335.05 78.5681 336.821 77.9893 339.655 77.9893V76.9893V75.9893C336.643 75.9893 334.238 76.5873 332.707 78.0256L333.391 78.7544ZM339.655 76.9893V77.9893C342.448 77.9893 344.357 78.5639 345.556 79.5431C346.716 80.4906 347.366 81.9478 347.366 84.1068H348.366H349.366C349.366 81.5208 348.565 79.4192 346.821 77.9943C345.116 76.601 342.669 75.9893 339.655 75.9893V76.9893ZM348.366 84.1068H347.366V98H348.366H349.366V84.1068H348.366ZM348.366 98V97H344.153V98V99H348.366V98ZM344.153 98L344.985 97.4453L343.391 95.0538L342.559 95.6085L341.726 96.1632L343.321 98.5547L344.153 98ZM335.897 92.5338H334.897C334.897 93.6019 335.19 94.5807 335.945 95.2763C336.684 95.9576 337.698 96.21 338.8 96.21V95.21V94.21C337.967 94.21 337.529 94.0163 337.3 93.8056C337.087 93.6091 336.897 93.2498 336.897 92.5338H335.897ZM338.8 95.21V96.21C340.233 96.21 341.562 95.3666 342.776 94.0718L342.046 93.3879L341.316 92.704C340.253 93.8386 339.418 94.21 338.8 94.21V95.21ZM342.046 93.3879H343.046V88.3203H342.046H341.046V93.3879H342.046ZM342.046 88.3203L341.85 87.3397L339.288 87.8522L339.484 88.8327L339.68 89.8133L342.242 89.3009L342.046 88.3203ZM339.484 88.8327L339.267 87.8566C337.958 88.1474 336.856 88.6555 336.075 89.4606C335.273 90.2882 334.897 91.3418 334.897 92.5338H335.897H336.897C336.897 91.7899 337.118 91.2586 337.511 90.8526C337.927 90.424 338.618 90.0495 339.701 89.8089L339.484 88.8327ZM356.865 77.5018L357.678 76.9205L357.379 76.5018H356.865V77.5018ZM359.427 81.089L358.613 81.6702L359.485 82.8907L360.276 81.6167L359.427 81.089ZM365.918 77.331H366.918V76.331H365.918V77.331ZM365.918 81.8292V82.8292H366.918V81.8292H365.918ZM361.534 82.6833L360.97 81.857L360.961 81.8632L360.953 81.8695L361.534 82.6833ZM360.338 98V99H361.338V98H360.338ZM353.961 98H352.961V99H353.961V98ZM353.961 77.5018V76.5018H352.961V77.5018H353.961ZM356.865 77.5018L356.051 78.083L358.613 81.6702L359.427 81.089L360.241 80.5077L357.678 76.9205L356.865 77.5018ZM359.427 81.089L360.276 81.6167C361.665 79.3822 363.519 78.331 365.918 78.331V77.331V76.331C362.775 76.331 360.302 77.7851 358.578 80.5613L359.427 81.089ZM365.918 77.331H364.918V81.8292H365.918H366.918V77.331H365.918ZM365.918 81.8292V80.8292C363.804 80.8292 362.073 81.1052 360.97 81.857L361.534 82.6833L362.097 83.5095C362.665 83.1226 363.857 82.8292 365.918 82.8292V81.8292ZM361.534 82.6833L360.953 81.8695C359.838 82.6657 359.338 83.8765 359.338 85.3025H360.338H361.338C361.338 84.375 361.635 83.8396 362.115 83.497L361.534 82.6833ZM360.338 85.3025H359.338V98H360.338H361.338V85.3025H360.338ZM360.338 98V97H353.961V98V99H360.338V98ZM353.961 98H354.961V77.5018H353.961H352.961V98H353.961ZM353.961 77.5018V78.5018H356.865V77.5018V76.5018H353.961V77.5018ZM383.401 84.0498H384.401V83.3931L383.799 83.1322L383.401 84.0498ZM383.401 89.1744L383.799 90.092L384.401 89.8311V89.1744H383.401ZM368.939 95.4377H367.939V96.9605L369.336 96.3554L368.939 95.4377ZM368.939 90.9964L368.561 90.0704L367.939 90.324V90.9964H368.939ZM379.7 86.6121L380.077 87.5382L382.381 86.5999L380.069 85.6826L379.7 86.6121ZM368.939 82.3416H367.939V83.0207L368.57 83.2711L368.939 82.3416ZM368.939 77.7865L369.336 76.8688L367.939 76.2637V77.7865H368.939ZM383.401 84.0498H382.401V89.1744H383.401H384.401V84.0498H383.401ZM383.401 89.1744L383.004 88.2567L368.541 94.5201L368.939 95.4377L369.336 96.3554L383.799 90.092L383.401 89.1744ZM368.939 95.4377H369.939V90.9964H368.939H367.939V95.4377H368.939ZM368.939 90.9964L369.316 91.9225L380.077 87.5382L379.7 86.6121L379.323 85.686L368.561 90.0704L368.939 90.9964ZM379.7 86.6121L380.069 85.6826L369.307 81.4121L368.939 82.3416L368.57 83.2711L379.331 87.5416L379.7 86.6121ZM368.939 82.3416H369.939V77.7865H368.939H367.939V82.3416H368.939ZM368.939 77.7865L368.541 78.7041L383.004 84.9675L383.401 84.0498L383.799 83.1322L369.336 76.8688L368.939 77.7865Z" fill="#062B44" mask="url(#path-1-outside-1_1_3)"/>
<defs>
<linearGradient id="paint0_linear_1_3" x1="228.5" y1="0" x2="228.5" y2="167" gradientUnits="userSpaceOnUse">
<stop stop-color="#C4ECFF"/>
<stop offset="1" stop-color="#5EADD2"/>
</linearGradient>
</defs>
</svg>
