<svg width="404" height="44" viewBox="0 0 404 44" fill="none" xmlns="http://www.w3.org/2000/svg">
<g filter="url(#filter0_d_1_3)">
<path d="M23.7037 7.11111V9.48148H21.3333V7.11111H23.7037ZM21.3333 7.11111V9.48148H18.963V7.11111H21.3333ZM21.3333 9.48148V11.8519H18.963V9.48148H21.3333ZM21.3333 11.8519V14.2222H18.963V11.8519H21.3333ZM23.7037 11.8519V14.2222H21.3333V11.8519H23.7037ZM23.7037 9.48148V11.8519H21.3333V9.48148H23.7037ZM18.963 9.48148V11.8519H16.5926V9.48148H18.963ZM16.5926 9.48148V11.8519H14.2222V9.48148H16.5926ZM16.5926 11.8519V14.2222H14.2222V11.8519H16.5926ZM16.5926 14.2222V16.5926H14.2222V14.2222H16.5926ZM18.963 14.2222V16.5926H16.5926V14.2222H18.963ZM18.963 11.8519V14.2222H16.5926V11.8519H18.963ZM14.2222 11.8519V14.2222H11.8518V11.8519H14.2222ZM11.8518 11.8519V14.2222H9.48147V11.8519H11.8518ZM11.8518 14.2222V16.5926H9.48147V14.2222H11.8518ZM11.8518 16.5926V18.963H9.48147V16.5926H11.8518ZM14.2222 16.5926V18.963H11.8518V16.5926H14.2222ZM14.2222 14.2222V16.5926H11.8518V14.2222H14.2222ZM2.37036 16.5926V18.963H-6.19888e-06V16.5926H2.37036ZM4.74073 18.963V21.3333H2.37036V18.963H4.74073ZM4.74073 21.3333V23.7037H2.37036V21.3333H4.74073ZM4.74073 16.5926V18.963H2.37036V16.5926H4.74073ZM2.37036 18.963V21.3333H-6.19888e-06V18.963H2.37036ZM2.37036 21.3333V23.7037H-6.19888e-06V21.3333H2.37036ZM7.1111 21.3333V23.7037H4.74073V21.3333H7.1111ZM9.48147 21.3333V23.7037H7.1111V21.3333H9.48147ZM9.48147 18.963V21.3333H7.1111V18.963H9.48147ZM7.1111 18.963V21.3333H4.74073V18.963H7.1111ZM7.1111 16.5926V18.963H4.74073V16.5926H7.1111ZM7.1111 14.2222V16.5926H4.74073V14.2222H7.1111ZM9.48147 14.2222V16.5926H7.1111V14.2222H9.48147ZM9.48147 16.5926V18.963H7.1111V16.5926H9.48147ZM11.8518 18.963V21.3333H9.48147V18.963H11.8518ZM11.8518 21.3333V23.7037H9.48147V21.3333H11.8518ZM14.2222 21.3333V23.7037H11.8518V21.3333H14.2222ZM11.8518 23.7037V26.0741H9.48147V23.7037H11.8518ZM9.48147 23.7037V26.0741H7.1111V23.7037H9.48147ZM7.1111 23.7037V26.0741H4.74073V23.7037H7.1111ZM11.8518 26.0741V28.4444H9.48147V26.0741H11.8518ZM14.2222 26.0741V28.4444H11.8518V26.0741H14.2222ZM16.5926 26.0741V28.4444H14.2222V26.0741H16.5926ZM16.5926 23.7037V26.0741H14.2222V23.7037H16.5926ZM14.2222 23.7037V26.0741H11.8518V23.7037H14.2222ZM18.963 23.7037V26.0741H16.5926V23.7037H18.963ZM18.963 26.0741V28.4444H16.5926V26.0741H18.963ZM18.963 28.4444V30.8148H16.5926V28.4444H18.963ZM16.5926 28.4444V30.8148H14.2222V28.4444H16.5926ZM21.3333 28.4444V30.8148H18.963V28.4444H21.3333ZM21.3333 26.0741V28.4444H18.963V26.0741H21.3333ZM23.7037 26.0741V28.4444H21.3333V26.0741H23.7037ZM23.7037 28.4444V30.8148H21.3333V28.4444H23.7037ZM23.7037 30.8148V33.1852H21.3333V30.8148H23.7037ZM21.3333 30.8148V33.1852H18.963V30.8148H21.3333ZM35.5486 33.1852H37.919V35.5556H35.5486V33.1852ZM37.919 33.1852H40.2893V35.5556H37.919V33.1852ZM40.2893 33.1852H42.6597V35.5556H40.2893V33.1852ZM40.2893 30.8148H42.6597V33.1852H40.2893V30.8148ZM40.2893 28.4444H42.6597V30.8148H40.2893V28.4444ZM40.2893 26.0741H42.6597V28.4444H40.2893V26.0741ZM40.2893 23.7037H42.6597V26.0741H40.2893V23.7037ZM40.2893 21.3333H42.6597V23.7037H40.2893V21.3333ZM40.2893 18.963H42.6597V21.3333H40.2893V18.963ZM40.2893 16.5926H42.6597V18.963H40.2893V16.5926ZM40.2893 14.2222H42.6597V16.5926H40.2893V14.2222ZM40.2893 11.8519H42.6597V14.2222H40.2893V11.8519ZM40.2893 9.48148H42.6597V11.8519H40.2893V9.48148ZM40.2893 7.11111H42.6597V9.48148H40.2893V7.11111ZM37.919 7.11111H40.2893V9.48148H37.919V7.11111ZM37.919 4.74074H40.2893V7.11111H37.919V4.74074ZM40.2893 4.74074H42.6597V7.11111H40.2893V4.74074ZM35.5486 4.74074H37.919V7.11111H35.5486V4.74074ZM35.5486 14.2222H37.919V16.5926H35.5486V14.2222ZM35.5486 16.5926H37.919V18.963H35.5486V16.5926ZM35.5486 18.963H37.919V21.3333H35.5486V18.963ZM35.5486 21.3333H37.919V23.7037H35.5486V21.3333ZM35.5486 23.7037H37.919V26.0741H35.5486V23.7037ZM37.919 26.0741H40.2893V28.4444H37.919V26.0741ZM37.919 28.4444H40.2893V30.8148H37.919V28.4444ZM37.919 30.8148H40.2893V33.1852H37.919V30.8148ZM35.5486 30.8148H37.919V33.1852H35.5486V30.8148ZM35.5486 28.4444H37.919V30.8148H35.5486V28.4444ZM35.5486 26.0741H37.919V28.4444H35.5486V26.0741ZM37.919 16.5926H40.2893V18.963H37.919V16.5926ZM37.919 14.2222H40.2893V16.5926H37.919V14.2222ZM37.919 11.8519H40.2893V14.2222H37.919V11.8519ZM37.919 9.48148H40.2893V11.8519H37.919V9.48148ZM35.5486 9.48148H37.919V11.8519H35.5486V9.48148ZM35.5486 11.8519H37.919V14.2222H35.5486V11.8519ZM37.919 23.7037H40.2893V26.0741H37.919V23.7037ZM37.919 21.3333H40.2893V23.7037H37.919V21.3333ZM37.919 18.963H40.2893V21.3333H37.919V18.963ZM35.5486 7.11111H37.919V9.48148H35.5486V7.11111ZM35.5486 2.37037H37.919V4.74074H35.5486V2.37037ZM37.919 2.37037H40.2893V4.74074H37.919V2.37037ZM40.2893 2.37037H42.6597V4.74074H40.2893V2.37037ZM40.2893 0H42.6597V2.37037H40.2893V0ZM37.919 0H40.2893V2.37037H37.919V0ZM35.5486 0H37.919V2.37037H35.5486V0ZM33.1782 0H35.5486V2.37037H33.1782V0ZM30.8079 0H33.1782V2.37037H30.8079V0ZM30.8079 2.37037H33.1782V4.74074H30.8079V2.37037ZM30.8079 4.74074H33.1782V7.11111H30.8079V4.74074ZM33.1782 2.37037H35.5486V4.74074H33.1782V2.37037ZM33.1782 4.74074H35.5486V7.11111H33.1782V4.74074ZM42.6597 0H45.0301V2.37037H42.6597V0ZM45.0301 0H47.4005V2.37037H45.0301V0ZM45.0301 2.37037H47.4005V4.74074H45.0301V2.37037ZM45.0301 4.74074H47.4005V7.11111H45.0301V4.74074ZM42.6597 4.74074H45.0301V7.11111H42.6597V4.74074ZM42.6597 2.37037H45.0301V4.74074H42.6597V2.37037ZM47.4005 0H49.7708V2.37037H47.4005V0ZM47.4005 2.37037H49.7708V4.74074H47.4005V2.37037ZM47.4005 4.74074H49.7708V7.11111H47.4005V4.74074ZM28.4375 0H30.8079V2.37037H28.4375V0ZM28.4375 2.37037H30.8079V4.74074H28.4375V2.37037ZM28.4375 4.74074H30.8079V7.11111H28.4375V4.74074ZM59.2407 0H61.6111V2.37037H59.2407V0ZM61.6111 0H63.9815V2.37037H61.6111V0ZM63.9815 0H66.3518V2.37037H63.9815V0ZM66.3518 0H68.7222V2.37037H66.3518V0ZM68.7222 0H71.0926V2.37037H68.7222V0ZM71.0926 0H73.463V2.37037H71.0926V0ZM71.0926 2.37037H73.463V4.74074H71.0926V2.37037ZM73.463 2.37037H75.8333V4.74074H73.463V2.37037ZM68.7222 2.37037H71.0926V4.74074H68.7222V2.37037ZM66.3518 2.37037H68.7222V4.74074H66.3518V2.37037ZM63.9815 2.37037H66.3518V4.74074H63.9815V2.37037ZM61.6111 2.37037H63.9815V4.74074H61.6111V2.37037ZM59.2407 2.37037H61.6111V4.74074H59.2407V2.37037ZM56.8704 4.74074H59.2407V7.11111H56.8704V4.74074ZM56.8704 2.37037H59.2407V4.74074H56.8704V2.37037ZM54.5 4.74074H56.8704V7.11111H54.5V4.74074ZM59.2407 4.74074H61.6111V7.11111H59.2407V4.74074ZM61.6111 4.74074H63.9815V7.11111H61.6111V4.74074ZM63.9815 4.74074H66.3518V7.11111H63.9815V4.74074ZM66.3518 4.74074H68.7222V7.11111H66.3518V4.74074ZM68.7222 4.74074H71.0926V7.11111H68.7222V4.74074ZM71.0926 4.74074H73.463V7.11111H71.0926V4.74074ZM73.463 4.74074H75.8333V7.11111H73.463V4.74074ZM75.8333 4.74074H78.2037V7.11111H75.8333V4.74074ZM75.8333 7.11111H78.2037V9.48148H75.8333V7.11111ZM73.463 7.11111H75.8333V9.48148H73.463V7.11111ZM71.0926 7.11111H73.463V9.48148H71.0926V7.11111ZM68.7222 7.11111H71.0926V9.48148H68.7222V7.11111ZM71.0926 9.48148H73.463V11.8519H71.0926V9.48148ZM71.0926 11.8519H73.463V14.2222H71.0926V11.8519ZM71.0926 14.2222H73.463V16.5926H71.0926V14.2222ZM71.0926 16.5926H73.463V18.963H71.0926V16.5926ZM71.0926 18.963H73.463V21.3333H71.0926V18.963ZM73.463 16.5926H75.8333V18.963H73.463V16.5926ZM75.8333 16.5926H78.2037V18.963H75.8333V16.5926ZM75.8333 14.2222H78.2037V16.5926H75.8333V14.2222ZM75.8333 11.8519H78.2037V14.2222H75.8333V11.8519ZM75.8333 9.48148H78.2037V11.8519H75.8333V9.48148ZM73.463 9.48148H75.8333V11.8519H73.463V9.48148ZM73.463 11.8519H75.8333V14.2222H73.463V11.8519ZM73.463 14.2222H75.8333V16.5926H73.463V14.2222ZM73.463 18.963H75.8333V21.3333H73.463V18.963ZM73.463 21.3333H75.8333V23.7037H73.463V21.3333ZM75.8333 21.3333H78.2037V23.7037H75.8333V21.3333ZM75.8333 18.963H78.2037V21.3333H75.8333V18.963ZM75.8333 23.7037H78.2037V26.0741H75.8333V23.7037ZM75.8333 26.0741H78.2037V28.4444H75.8333V26.0741ZM75.8333 28.4444H78.2037V30.8148H75.8333V28.4444ZM73.463 28.4444H75.8333V30.8148H73.463V28.4444ZM73.463 26.0741H75.8333V28.4444H73.463V26.0741ZM73.463 23.7037H75.8333V26.0741H73.463V23.7037ZM71.0926 21.3333H73.463V23.7037H71.0926V21.3333ZM71.0926 23.7037H73.463V26.0741H71.0926V23.7037ZM71.0926 26.0741H73.463V28.4444H71.0926V26.0741ZM68.7222 26.0741H71.0926V28.4444H68.7222V26.0741ZM71.0926 28.4444H73.463V30.8148H71.0926V28.4444ZM73.463 30.8148H75.8333V33.1852H73.463V30.8148ZM71.0926 30.8148H73.463V33.1852H71.0926V30.8148ZM68.7222 28.4444H71.0926V30.8148H68.7222V28.4444ZM68.7222 30.8148H71.0926V33.1852H68.7222V30.8148ZM71.0926 33.1852H73.463V35.5556H71.0926V33.1852ZM68.7222 33.1852H71.0926V35.5556H68.7222V33.1852ZM66.3518 33.1852H68.7222V35.5556H66.3518V33.1852ZM63.9815 33.1852H66.3518V35.5556H63.9815V33.1852ZM61.6111 33.1852H63.9815V35.5556H61.6111V33.1852ZM59.2407 33.1852H61.6111V35.5556H59.2407V33.1852ZM59.2407 30.8148H61.6111V33.1852H59.2407V30.8148ZM61.6111 30.8148H63.9815V33.1852H61.6111V30.8148ZM61.6111 28.4444H63.9815V30.8148H61.6111V28.4444ZM63.9815 28.4444H66.3518V30.8148H63.9815V28.4444ZM66.3518 28.4444H68.7222V30.8148H66.3518V28.4444ZM66.3518 30.8148H68.7222V33.1852H66.3518V30.8148ZM63.9815 30.8148H66.3518V33.1852H63.9815V30.8148ZM56.8704 30.8148H59.2407V33.1852H56.8704V30.8148ZM59.2407 28.4444H61.6111V30.8148H59.2407V28.4444ZM61.6111 26.0741H63.9815V28.4444H61.6111V26.0741ZM59.2407 26.0741H61.6111V28.4444H59.2407V26.0741ZM56.8704 26.0741H59.2407V28.4444H56.8704V26.0741ZM56.8704 28.4444H59.2407V30.8148H56.8704V28.4444ZM54.5 28.4444H56.8704V30.8148H54.5V28.4444ZM54.5 26.0741H56.8704V28.4444H54.5V26.0741ZM54.5 23.7037H56.8704V26.0741H54.5V23.7037ZM54.5 21.3333H56.8704V23.7037H54.5V21.3333ZM54.5 18.963H56.8704V21.3333H54.5V18.963ZM54.5 16.5926H56.8704V18.963H54.5V16.5926ZM54.5 14.2222H56.8704V16.5926H54.5V14.2222ZM54.5 11.8519H56.8704V14.2222H54.5V11.8519ZM54.5 9.48148H56.8704V11.8519H54.5V9.48148ZM54.5 7.11111H56.8704V9.48148H54.5V7.11111ZM56.8704 7.11111H59.2407V9.48148H56.8704V7.11111ZM59.2407 7.11111H61.6111V9.48148H59.2407V7.11111ZM61.6111 7.11111H63.9815V9.48148H61.6111V7.11111ZM59.2407 9.48148H61.6111V11.8519H59.2407V9.48148ZM59.2407 11.8519H61.6111V14.2222H59.2407V11.8519ZM59.2407 14.2222H61.6111V16.5926H59.2407V14.2222ZM59.2407 16.5926H61.6111V18.963H59.2407V16.5926ZM59.2407 18.963H61.6111V21.3333H59.2407V18.963ZM59.2407 21.3333H61.6111V23.7037H59.2407V21.3333ZM59.2407 23.7037H61.6111V26.0741H59.2407V23.7037ZM56.8704 23.7037H59.2407V26.0741H56.8704V23.7037ZM56.8704 21.3333H59.2407V23.7037H56.8704V21.3333ZM56.8704 18.963H59.2407V21.3333H56.8704V18.963ZM56.8704 16.5926H59.2407V18.963H56.8704V16.5926ZM56.8704 14.2222H59.2407V16.5926H56.8704V14.2222ZM56.8704 11.8519H59.2407V14.2222H56.8704V11.8519ZM56.8704 9.48148H59.2407V11.8519H56.8704V9.48148ZM87.6782 0H90.0486V2.37037H87.6782V0ZM90.0486 0H92.419V2.37037H90.0486V0ZM92.419 0H94.7893V2.37037H92.419V0ZM94.7893 0H97.1597V2.37037H94.7893V0ZM97.1597 0H99.5301V2.37037H97.1597V0ZM99.5301 0H101.9V2.37037H99.5301V0ZM99.5301 2.37037H101.9V4.74074H99.5301V2.37037ZM101.9 2.37037H104.271V4.74074H101.9V2.37037ZM97.1597 2.37037H99.5301V4.74074H97.1597V2.37037ZM94.7893 2.37037H97.1597V4.74074H94.7893V2.37037ZM92.419 2.37037H94.7893V4.74074H92.419V2.37037ZM90.0486 2.37037H92.419V4.74074H90.0486V2.37037ZM87.6782 2.37037H90.0486V4.74074H87.6782V2.37037ZM85.3079 4.74074H87.6782V7.11111H85.3079V4.74074ZM85.3079 2.37037H87.6782V4.74074H85.3079V2.37037ZM82.9375 4.74074H85.3079V7.11111H82.9375V4.74074ZM87.6782 4.74074H90.0486V7.11111H87.6782V4.74074ZM90.0486 4.74074H92.419V7.11111H90.0486V4.74074ZM92.419 4.74074H94.7893V7.11111H92.419V4.74074ZM94.7893 4.74074H97.1597V7.11111H94.7893V4.74074ZM97.1597 4.74074H99.5301V7.11111H97.1597V4.74074ZM99.5301 4.74074H101.9V7.11111H99.5301V4.74074ZM101.9 4.74074H104.271V7.11111H101.9V4.74074ZM104.271 4.74074H106.641V7.11111H104.271V4.74074ZM104.271 7.11111H106.641V9.48148H104.271V7.11111ZM101.9 7.11111H104.271V9.48148H101.9V7.11111ZM99.5301 7.11111H101.9V9.48148H99.5301V7.11111ZM97.1597 7.11111H99.5301V9.48148H97.1597V7.11111ZM99.5301 9.48148H101.9V11.8519H99.5301V9.48148ZM99.5301 11.8519H101.9V14.2222H99.5301V11.8519ZM99.5301 14.2222H101.9V16.5926H99.5301V14.2222ZM99.5301 16.5926H101.9V18.963H99.5301V16.5926ZM99.5301 18.963H101.9V21.3333H99.5301V18.963ZM101.9 16.5926H104.271V18.963H101.9V16.5926ZM104.271 16.5926H106.641V18.963H104.271V16.5926ZM104.271 14.2222H106.641V16.5926H104.271V14.2222ZM104.271 11.8519H106.641V14.2222H104.271V11.8519ZM104.271 9.48148H106.641V11.8519H104.271V9.48148ZM101.9 9.48148H104.271V11.8519H101.9V9.48148ZM101.9 11.8519H104.271V14.2222H101.9V11.8519ZM101.9 14.2222H104.271V16.5926H101.9V14.2222ZM101.9 18.963H104.271V21.3333H101.9V18.963ZM101.9 21.3333H104.271V23.7037H101.9V21.3333ZM104.271 21.3333H106.641V23.7037H104.271V21.3333ZM104.271 18.963H106.641V21.3333H104.271V18.963ZM104.271 23.7037H106.641V26.0741H104.271V23.7037ZM104.271 26.0741H106.641V28.4444H104.271V26.0741ZM104.271 28.4444H106.641V30.8148H104.271V28.4444ZM101.9 28.4444H104.271V30.8148H101.9V28.4444ZM101.9 26.0741H104.271V28.4444H101.9V26.0741ZM101.9 23.7037H104.271V26.0741H101.9V23.7037ZM99.5301 21.3333H101.9V23.7037H99.5301V21.3333ZM99.5301 23.7037H101.9V26.0741H99.5301V23.7037ZM99.5301 26.0741H101.9V28.4444H99.5301V26.0741ZM97.1597 26.0741H99.5301V28.4444H97.1597V26.0741ZM99.5301 28.4444H101.9V30.8148H99.5301V28.4444ZM101.9 30.8148H104.271V33.1852H101.9V30.8148ZM99.5301 30.8148H101.9V33.1852H99.5301V30.8148ZM97.1597 28.4444H99.5301V30.8148H97.1597V28.4444ZM97.1597 30.8148H99.5301V33.1852H97.1597V30.8148ZM99.5301 33.1852H101.9V35.5556H99.5301V33.1852ZM97.1597 33.1852H99.5301V35.5556H97.1597V33.1852ZM94.7893 33.1852H97.1597V35.5556H94.7893V33.1852ZM92.419 33.1852H94.7893V35.5556H92.419V33.1852ZM90.0486 33.1852H92.419V35.5556H90.0486V33.1852ZM87.6782 33.1852H90.0486V35.5556H87.6782V33.1852ZM87.6782 30.8148H90.0486V33.1852H87.6782V30.8148ZM90.0486 30.8148H92.419V33.1852H90.0486V30.8148ZM90.0486 28.4444H92.419V30.8148H90.0486V28.4444ZM92.419 28.4444H94.7893V30.8148H92.419V28.4444ZM94.7893 28.4444H97.1597V30.8148H94.7893V28.4444ZM94.7893 30.8148H97.1597V33.1852H94.7893V30.8148ZM92.419 30.8148H94.7893V33.1852H92.419V30.8148ZM85.3079 30.8148H87.6782V33.1852H85.3079V30.8148ZM87.6782 28.4444H90.0486V30.8148H87.6782V28.4444ZM87.6782 26.0741H90.0486V28.4444H87.6782V26.0741ZM85.3079 26.0741H87.6782V28.4444H85.3079V26.0741ZM85.3079 28.4444H87.6782V30.8148H85.3079V28.4444ZM82.9375 28.4444H85.3079V30.8148H82.9375V28.4444ZM82.9375 26.0741H85.3079V28.4444H82.9375V26.0741ZM82.9375 23.7037H85.3079V26.0741H82.9375V23.7037ZM82.9375 21.3333H85.3079V23.7037H82.9375V21.3333ZM82.9375 18.963H85.3079V21.3333H82.9375V18.963ZM82.9375 16.5926H85.3079V18.963H82.9375V16.5926ZM82.9375 14.2222H85.3079V16.5926H82.9375V14.2222ZM82.9375 11.8519H85.3079V14.2222H82.9375V11.8519ZM82.9375 9.48148H85.3079V11.8519H82.9375V9.48148ZM82.9375 7.11111H85.3079V9.48148H82.9375V7.11111ZM85.3079 7.11111H87.6782V9.48148H85.3079V7.11111ZM87.6782 7.11111H90.0486V9.48148H87.6782V7.11111ZM87.6782 9.48148H90.0486V11.8519H87.6782V9.48148ZM87.6782 11.8519H90.0486V14.2222H87.6782V11.8519ZM87.6782 14.2222H90.0486V16.5926H87.6782V14.2222ZM87.6782 16.5926H90.0486V18.963H87.6782V16.5926ZM87.6782 18.963H90.0486V21.3333H87.6782V18.963ZM87.6782 21.3333H90.0486V23.7037H87.6782V21.3333ZM87.6782 23.7037H90.0486V26.0741H87.6782V23.7037ZM85.3079 23.7037H87.6782V26.0741H85.3079V23.7037ZM85.3079 21.3333H87.6782V23.7037H85.3079V21.3333ZM85.3079 18.963H87.6782V21.3333H85.3079V18.963ZM85.3079 16.5926H87.6782V18.963H85.3079V16.5926ZM85.3079 14.2222H87.6782V16.5926H85.3079V14.2222ZM85.3079 11.8519H87.6782V14.2222H85.3079V11.8519ZM85.3079 9.48148H87.6782V11.8519H85.3079V9.48148ZM82.9375 30.8148H85.3079V33.1852H82.9375V30.8148ZM82.9375 33.1852H85.3079V35.5556H82.9375V33.1852ZM85.3079 33.1852H87.6782V35.5556H85.3079V33.1852ZM85.3079 0H87.6782V2.37037H85.3079V0ZM82.9375 0H85.3079V2.37037H82.9375V0ZM82.9375 2.37037H85.3079V4.74074H82.9375V2.37037ZM116.116 0H118.486V2.37037H116.116V0ZM118.486 0H120.856V2.37037H118.486V0ZM120.856 0H123.227V2.37037H120.856V0ZM123.227 0H125.597V2.37037H123.227V0ZM125.597 0H127.968V2.37037H125.597V0ZM127.968 0H130.338V2.37037H127.968V0ZM127.968 2.37037H130.338V4.74074H127.968V2.37037ZM130.338 2.37037H132.708V4.74074H130.338V2.37037ZM125.597 2.37037H127.968V4.74074H125.597V2.37037ZM123.227 2.37037H125.597V4.74074H123.227V2.37037ZM120.856 2.37037H123.227V4.74074H120.856V2.37037ZM118.486 2.37037H120.856V4.74074H118.486V2.37037ZM116.116 2.37037H118.486V4.74074H116.116V2.37037ZM113.745 4.74074H116.116V7.11111H113.745V4.74074ZM113.745 2.37037H116.116V4.74074H113.745V2.37037ZM111.375 4.74074H113.745V7.11111H111.375V4.74074ZM116.116 4.74074H118.486V7.11111H116.116V4.74074ZM118.486 4.74074H120.856V7.11111H118.486V4.74074ZM120.856 4.74074H123.227V7.11111H120.856V4.74074ZM123.227 4.74074H125.597V7.11111H123.227V4.74074ZM125.597 4.74074H127.968V7.11111H125.597V4.74074ZM127.968 4.74074H130.338V7.11111H127.968V4.74074ZM130.338 4.74074H132.708V7.11111H130.338V4.74074ZM132.708 4.74074H135.079V7.11111H132.708V4.74074ZM132.708 7.11111H135.079V9.48148H132.708V7.11111ZM130.338 7.11111H132.708V9.48148H130.338V7.11111ZM127.968 7.11111H130.338V9.48148H127.968V7.11111ZM125.597 7.11111H127.968V9.48148H125.597V7.11111ZM127.968 9.48148H130.338V11.8519H127.968V9.48148ZM127.968 11.8519H130.338V14.2222H127.968V11.8519ZM127.968 14.2222H130.338V16.5926H127.968V14.2222ZM127.968 16.5926H130.338V18.963H127.968V16.5926ZM127.968 18.963H130.338V21.3333H127.968V18.963ZM130.338 16.5926H132.708V18.963H130.338V16.5926ZM132.708 16.5926H135.079V18.963H132.708V16.5926ZM132.708 14.2222H135.079V16.5926H132.708V14.2222ZM132.708 11.8519H135.079V14.2222H132.708V11.8519ZM132.708 9.48148H135.079V11.8519H132.708V9.48148ZM130.338 9.48148H132.708V11.8519H130.338V9.48148ZM130.338 11.8519H132.708V14.2222H130.338V11.8519ZM130.338 14.2222H132.708V16.5926H130.338V14.2222ZM130.338 18.963H132.708V21.3333H130.338V18.963ZM130.338 21.3333H132.708V23.7037H130.338V21.3333ZM132.708 21.3333H135.079V23.7037H132.708V21.3333ZM132.708 18.963H135.079V21.3333H132.708V18.963ZM132.708 23.7037H135.079V26.0741H132.708V23.7037ZM132.708 26.0741H135.079V28.4444H132.708V26.0741ZM132.708 28.4444H135.079V30.8148H132.708V28.4444ZM130.338 28.4444H132.708V30.8148H130.338V28.4444ZM130.338 26.0741H132.708V28.4444H130.338V26.0741ZM130.338 23.7037H132.708V26.0741H130.338V23.7037ZM127.968 21.3333H130.338V23.7037H127.968V21.3333ZM127.968 23.7037H130.338V26.0741H127.968V23.7037ZM127.968 26.0741H130.338V28.4444H127.968V26.0741ZM125.597 26.0741H127.968V28.4444H125.597V26.0741ZM127.968 28.4444H130.338V30.8148H127.968V28.4444ZM130.338 30.8148H132.708V33.1852H130.338V30.8148ZM127.968 30.8148H130.338V33.1852H127.968V30.8148ZM125.597 28.4444H127.968V30.8148H125.597V28.4444ZM125.597 30.8148H127.968V33.1852H125.597V30.8148ZM127.968 33.1852H130.338V35.5556H127.968V33.1852ZM125.597 33.1852H127.968V35.5556H125.597V33.1852ZM123.227 33.1852H125.597V35.5556H123.227V33.1852ZM120.856 33.1852H123.227V35.5556H120.856V33.1852ZM118.486 33.1852H120.856V35.5556H118.486V33.1852ZM116.116 33.1852H118.486V35.5556H116.116V33.1852ZM116.116 30.8148H118.486V33.1852H116.116V30.8148ZM118.486 30.8148H120.856V33.1852H118.486V30.8148ZM118.486 28.4444H120.856V30.8148H118.486V28.4444ZM120.856 28.4444H123.227V30.8148H120.856V28.4444ZM123.227 28.4444H125.597V30.8148H123.227V28.4444ZM123.227 30.8148H125.597V33.1852H123.227V30.8148ZM120.856 30.8148H123.227V33.1852H120.856V30.8148ZM113.745 30.8148H116.116V33.1852H113.745V30.8148ZM116.116 28.4444H118.486V30.8148H116.116V28.4444ZM118.486 26.0741H120.856V28.4444H118.486V26.0741ZM116.116 26.0741H118.486V28.4444H116.116V26.0741ZM113.745 26.0741H116.116V28.4444H113.745V26.0741ZM113.745 28.4444H116.116V30.8148H113.745V28.4444ZM111.375 28.4444H113.745V30.8148H111.375V28.4444ZM111.375 26.0741H113.745V28.4444H111.375V26.0741ZM111.375 23.7037H113.745V26.0741H111.375V23.7037ZM111.375 21.3333H113.745V23.7037H111.375V21.3333ZM111.375 18.963H113.745V21.3333H111.375V18.963ZM111.375 16.5926H113.745V18.963H111.375V16.5926ZM111.375 14.2222H113.745V16.5926H111.375V14.2222ZM111.375 11.8519H113.745V14.2222H111.375V11.8519ZM111.375 9.48148H113.745V11.8519H111.375V9.48148ZM111.375 7.11111H113.745V9.48148H111.375V7.11111ZM113.745 7.11111H116.116V9.48148H113.745V7.11111ZM116.116 7.11111H118.486V9.48148H116.116V7.11111ZM118.486 7.11111H120.856V9.48148H118.486V7.11111ZM116.116 9.48148H118.486V11.8519H116.116V9.48148ZM116.116 11.8519H118.486V14.2222H116.116V11.8519ZM116.116 14.2222H118.486V16.5926H116.116V14.2222ZM116.116 16.5926H118.486V18.963H116.116V16.5926ZM116.116 18.963H118.486V21.3333H116.116V18.963ZM116.116 21.3333H118.486V23.7037H116.116V21.3333ZM116.116 23.7037H118.486V26.0741H116.116V23.7037ZM113.745 23.7037H116.116V26.0741H113.745V23.7037ZM113.745 21.3333H116.116V23.7037H113.745V21.3333ZM113.745 18.963H116.116V21.3333H113.745V18.963ZM113.745 16.5926H116.116V18.963H113.745V16.5926ZM113.745 14.2222H116.116V16.5926H113.745V14.2222ZM113.745 11.8519H116.116V14.2222H113.745V11.8519ZM113.745 9.48148H116.116V11.8519H113.745V9.48148ZM139.812 14.2222H142.183V16.5926H139.812V14.2222ZM142.183 14.2222H144.553V16.5926H142.183V14.2222ZM144.553 14.2222H146.924V16.5926H144.553V14.2222ZM146.924 14.2222H149.294V16.5926H146.924V14.2222ZM149.294 14.2222H151.664V16.5926H149.294V14.2222ZM151.664 14.2222H154.035V16.5926H151.664V14.2222ZM154.035 14.2222H156.405V16.5926H154.035V14.2222ZM156.405 14.2222H158.775V16.5926H156.405V14.2222ZM156.405 16.5926H158.775V18.963H156.405V16.5926ZM158.775 16.5926H161.146V18.963H158.775V16.5926ZM158.775 18.963H161.146V21.3333H158.775V18.963ZM158.775 14.2222H161.146V16.5926H158.775V14.2222ZM156.405 18.963H158.775V21.3333H156.405V18.963ZM154.035 18.963H156.405V21.3333H154.035V18.963ZM151.664 18.963H154.035V21.3333H151.664V18.963ZM149.294 18.963H151.664V21.3333H149.294V18.963ZM146.924 18.963H149.294V21.3333H146.924V18.963ZM144.553 18.963H146.924V21.3333H144.553V18.963ZM142.183 18.963H144.553V21.3333H142.183V18.963ZM139.812 18.963H142.183V21.3333H139.812V18.963ZM139.812 16.5926H142.183V18.963H139.812V16.5926ZM142.183 16.5926H144.553V18.963H142.183V16.5926ZM144.553 16.5926H146.924V18.963H144.553V16.5926ZM149.294 16.5926H151.664V18.963H149.294V16.5926ZM151.664 16.5926H154.035V18.963H151.664V16.5926ZM154.035 16.5926H156.405V18.963H154.035V16.5926ZM146.924 16.5926H149.294V18.963H146.924V16.5926ZM170.616 0H172.986V2.37037H170.616V0ZM172.986 0H175.356V2.37037H172.986V0ZM175.356 0H177.727V2.37037H175.356V0ZM177.727 0H180.097V2.37037H177.727V0ZM180.097 0H182.468V2.37037H180.097V0ZM182.468 0H184.838V2.37037H182.468V0ZM182.468 2.37037H184.838V4.74074H182.468V2.37037ZM184.838 2.37037H187.208V4.74074H184.838V2.37037ZM180.097 2.37037H182.468V4.74074H180.097V2.37037ZM177.727 2.37037H180.097V4.74074H177.727V2.37037ZM175.356 2.37037H177.727V4.74074H175.356V2.37037ZM172.986 2.37037H175.356V4.74074H172.986V2.37037ZM170.616 2.37037H172.986V4.74074H170.616V2.37037ZM168.245 4.74074H170.616V7.11111H168.245V4.74074ZM168.245 2.37037H170.616V4.74074H168.245V2.37037ZM165.875 4.74074H168.245V7.11111H165.875V4.74074ZM170.616 4.74074H172.986V7.11111H170.616V4.74074ZM172.986 4.74074H175.356V7.11111H172.986V4.74074ZM175.356 4.74074H177.727V7.11111H175.356V4.74074ZM177.727 4.74074H180.097V7.11111H177.727V4.74074ZM180.097 4.74074H182.468V7.11111H180.097V4.74074ZM182.468 4.74074H184.838V7.11111H182.468V4.74074ZM184.838 4.74074H187.208V7.11111H184.838V4.74074ZM187.208 4.74074H189.579V7.11111H187.208V4.74074ZM187.208 7.11111H189.579V9.48148H187.208V7.11111ZM184.838 7.11111H187.208V9.48148H184.838V7.11111ZM182.468 7.11111H184.838V9.48148H182.468V7.11111ZM180.097 7.11111H182.468V9.48148H180.097V7.11111ZM182.468 9.48148H184.838V11.8519H182.468V9.48148ZM187.208 9.48148H189.579V11.8519H187.208V9.48148ZM184.838 9.48148H187.208V11.8519H184.838V9.48148ZM187.208 23.7037H189.579V26.0741H187.208V23.7037ZM187.208 26.0741H189.579V28.4444H187.208V26.0741ZM187.208 28.4444H189.579V30.8148H187.208V28.4444ZM184.838 28.4444H187.208V30.8148H184.838V28.4444ZM184.838 26.0741H187.208V28.4444H184.838V26.0741ZM184.838 23.7037H187.208V26.0741H184.838V23.7037ZM182.468 23.7037H184.838V26.0741H182.468V23.7037ZM182.468 26.0741H184.838V28.4444H182.468V26.0741ZM180.097 26.0741H182.468V28.4444H180.097V26.0741ZM182.468 28.4444H184.838V30.8148H182.468V28.4444ZM184.838 30.8148H187.208V33.1852H184.838V30.8148ZM182.468 30.8148H184.838V33.1852H182.468V30.8148ZM180.097 28.4444H182.468V30.8148H180.097V28.4444ZM180.097 30.8148H182.468V33.1852H180.097V30.8148ZM182.468 33.1852H184.838V35.5556H182.468V33.1852ZM180.097 33.1852H182.468V35.5556H180.097V33.1852ZM177.727 33.1852H180.097V35.5556H177.727V33.1852ZM175.356 33.1852H177.727V35.5556H175.356V33.1852ZM172.986 33.1852H175.356V35.5556H172.986V33.1852ZM170.616 33.1852H172.986V35.5556H170.616V33.1852ZM170.616 30.8148H172.986V33.1852H170.616V30.8148ZM172.986 30.8148H175.356V33.1852H172.986V30.8148ZM172.986 28.4444H175.356V30.8148H172.986V28.4444ZM175.356 28.4444H177.727V30.8148H175.356V28.4444ZM177.727 28.4444H180.097V30.8148H177.727V28.4444ZM177.727 30.8148H180.097V33.1852H177.727V30.8148ZM175.356 30.8148H177.727V33.1852H175.356V30.8148ZM168.245 30.8148H170.616V33.1852H168.245V30.8148ZM170.616 28.4444H172.986V30.8148H170.616V28.4444ZM172.986 26.0741H175.356V28.4444H172.986V26.0741ZM170.616 26.0741H172.986V28.4444H170.616V26.0741ZM168.245 26.0741H170.616V28.4444H168.245V26.0741ZM168.245 28.4444H170.616V30.8148H168.245V28.4444ZM165.875 28.4444H168.245V30.8148H165.875V28.4444ZM165.875 26.0741H168.245V28.4444H165.875V26.0741ZM165.875 23.7037H168.245V26.0741H165.875V23.7037ZM165.875 21.3333H168.245V23.7037H165.875V21.3333ZM165.875 18.963H168.245V21.3333H165.875V18.963ZM165.875 16.5926H168.245V18.963H165.875V16.5926ZM165.875 14.2222H168.245V16.5926H165.875V14.2222ZM165.875 11.8519H168.245V14.2222H165.875V11.8519ZM165.875 9.48148H168.245V11.8519H165.875V9.48148ZM165.875 7.11111H168.245V9.48148H165.875V7.11111ZM168.245 7.11111H170.616V9.48148H168.245V7.11111ZM170.616 7.11111H172.986V9.48148H170.616V7.11111ZM172.986 7.11111H175.356V9.48148H172.986V7.11111ZM170.616 9.48148H172.986V11.8519H170.616V9.48148ZM170.616 11.8519H172.986V14.2222H170.616V11.8519ZM170.616 14.2222H172.986V16.5926H170.616V14.2222ZM170.616 16.5926H172.986V18.963H170.616V16.5926ZM170.616 18.963H172.986V21.3333H170.616V18.963ZM170.616 21.3333H172.986V23.7037H170.616V21.3333ZM170.616 23.7037H172.986V26.0741H170.616V23.7037ZM168.245 23.7037H170.616V26.0741H168.245V23.7037ZM168.245 21.3333H170.616V23.7037H168.245V21.3333ZM168.245 18.963H170.616V21.3333H168.245V18.963ZM168.245 16.5926H170.616V18.963H168.245V16.5926ZM168.245 14.2222H170.616V16.5926H168.245V14.2222ZM168.245 11.8519H170.616V14.2222H168.245V11.8519ZM168.245 9.48148H170.616V11.8519H168.245V9.48148ZM213.275 35.5556H210.905V33.1852H213.275V35.5556ZM208.535 35.5556H206.164V33.1852H208.535V35.5556ZM206.164 35.5556H203.794V33.1852H206.164V35.5556ZM203.794 35.5556H201.424V33.1852H203.794V35.5556ZM201.424 35.5556H199.053V33.1852H201.424V35.5556ZM199.053 33.1852H196.683V30.8148H199.053V33.1852ZM201.424 33.1852H199.053V30.8148H201.424V33.1852ZM203.794 33.1852H201.424V30.8148H203.794V33.1852ZM206.164 33.1852H203.794V30.8148H206.164V33.1852ZM208.535 33.1852H206.164V30.8148H208.535V33.1852ZM210.905 33.1852H208.535V30.8148H210.905V33.1852ZM213.275 33.1852H210.905V30.8148H213.275V33.1852ZM215.646 33.1852H213.275V30.8148H215.646V33.1852ZM215.646 30.8148H213.275V28.4444H215.646V30.8148ZM213.275 30.8148H210.905V28.4444H213.275V30.8148ZM218.016 30.8148H215.646V28.4444H218.016V30.8148ZM218.016 28.4444H215.646V26.0741H218.016V28.4444ZM218.016 26.0741H215.646V23.7037H218.016V26.0741ZM215.646 26.0741H213.275V23.7037H215.646V26.0741ZM213.275 26.0741H210.905V23.7037H213.275V26.0741ZM213.275 28.4444H210.905V26.0741H213.275V28.4444ZM215.646 28.4444H213.275V26.0741H215.646V28.4444ZM215.646 23.7037H213.275V21.3333H215.646V23.7037ZM215.646 21.3333H213.275V18.963H215.646V21.3333ZM215.646 18.963H213.275V16.5926H215.646V18.963ZM218.016 18.963H215.646V16.5926H218.016V18.963ZM218.016 16.5926H215.646V14.2222H218.016V16.5926ZM218.016 21.3333H215.646V18.963H218.016V21.3333ZM218.016 23.7037H215.646V21.3333H218.016V23.7037ZM213.275 23.7037H210.905V21.3333H213.275V23.7037ZM213.275 21.3333H210.905V18.963H213.275V21.3333ZM213.275 18.963H210.905V16.5926H213.275V18.963ZM213.275 16.5926H210.905V14.2222H213.275V16.5926ZM215.646 16.5926H213.275V14.2222H215.646V16.5926ZM215.646 14.2222H213.275V11.8519H215.646V14.2222ZM213.275 14.2222H210.905V11.8519H213.275V14.2222ZM210.905 14.2222H208.535V11.8519H210.905V14.2222ZM210.905 16.5926H208.535V14.2222H210.905V16.5926ZM213.275 11.8519H210.905V9.48148H213.275V11.8519ZM210.905 11.8519H208.535V9.48148H210.905V11.8519ZM208.535 11.8519H206.164V9.48148H208.535V11.8519ZM206.164 11.8519H203.794V9.48148H206.164V11.8519ZM203.794 11.8519H201.424V9.48148H203.794V11.8519ZM201.424 11.8519H199.053V9.48148H201.424V11.8519ZM203.794 14.2222H201.424V11.8519H203.794V14.2222ZM206.164 14.2222H203.794V11.8519H206.164V14.2222ZM208.535 14.2222H206.164V11.8519H208.535V14.2222ZM201.424 14.2222H199.053V11.8519H201.424V14.2222ZM199.053 14.2222H196.683V11.8519H199.053V14.2222ZM201.424 16.5926H199.053V14.2222H201.424V16.5926ZM203.794 16.5926H201.424V14.2222H203.794V16.5926ZM199.053 16.5926H196.683V14.2222H199.053V16.5926ZM196.683 16.5926H194.312V14.2222H196.683V16.5926ZM199.053 28.4444H196.683V26.0741H199.053V28.4444ZM196.683 28.4444H194.312V26.0741H196.683V28.4444ZM196.683 30.8148H194.312V28.4444H196.683V30.8148ZM201.424 28.4444H199.053V26.0741H201.424V28.4444ZM201.424 30.8148H199.053V28.4444H201.424V30.8148ZM199.053 30.8148H196.683V28.4444H199.053V30.8148ZM208.535 16.5926H206.164V14.2222H208.535V16.5926ZM206.164 16.5926H203.794V14.2222H206.164V16.5926ZM199.053 26.0741H196.683V23.7037H199.053V26.0741ZM201.424 26.0741H199.053V23.7037H201.424V26.0741ZM208.535 23.7037H206.164V21.3333H208.535V23.7037ZM206.164 23.7037H203.794V21.3333H206.164V23.7037ZM203.794 23.7037H201.424V21.3333H203.794V23.7037ZM201.424 23.7037H199.053V21.3333H201.424V23.7037ZM210.905 23.7037H208.535V21.3333H210.905V23.7037ZM215.646 30.8148H218.016V33.1852H215.646V30.8148ZM215.646 33.1852H218.016V35.5556H215.646V33.1852ZM213.275 33.1852H215.646V35.5556H213.275V33.1852ZM208.535 18.963H210.905V21.3333H208.535V18.963ZM206.164 18.963H208.535V21.3333H206.164V18.963ZM203.794 18.963H206.164V21.3333H203.794V18.963ZM201.424 18.963H203.794V21.3333H201.424V18.963ZM199.053 18.963H201.424V21.3333H199.053V18.963ZM196.683 21.3333H199.053V23.7037H196.683V21.3333ZM194.312 23.7037H196.683V26.0741H194.312V23.7037ZM201.424 28.4444H203.794V30.8148H201.424V28.4444ZM203.794 28.4444H206.164V30.8148H203.794V28.4444ZM206.164 28.4444H208.535V30.8148H206.164V28.4444ZM208.535 28.4444H210.905V30.8148H208.535V28.4444ZM222.75 0H225.12V2.37037H222.75V0ZM222.75 2.37037H225.12V4.74074H222.75V2.37037ZM222.75 4.74074H225.12V7.11111H222.75V4.74074ZM222.75 7.11111H225.12V9.48148H222.75V7.11111ZM222.75 9.48148H225.12V11.8519H222.75V9.48148ZM222.75 11.8519H225.12V14.2222H222.75V11.8519ZM222.75 14.2222H225.12V16.5926H222.75V14.2222ZM222.75 16.5926H225.12V18.963H222.75V16.5926ZM222.75 18.963H225.12V21.3333H222.75V18.963ZM222.75 21.3333H225.12V23.7037H222.75V21.3333ZM222.75 23.7037H225.12V26.0741H222.75V23.7037ZM222.75 26.0741H225.12V28.4444H222.75V26.0741ZM222.75 28.4444H225.12V30.8148H222.75V28.4444ZM222.75 30.8148H225.12V33.1852H222.75V30.8148ZM222.75 33.1852H225.12V35.5556H222.75V33.1852ZM225.12 33.1852H227.491V35.5556H225.12V33.1852ZM227.491 33.1852H229.861V35.5556H227.491V33.1852ZM227.491 30.8148H229.861V33.1852H227.491V30.8148ZM227.491 28.4444H229.861V30.8148H227.491V28.4444ZM227.491 26.0741H229.861V28.4444H227.491V26.0741ZM227.491 23.7037H229.861V26.0741H227.491V23.7037ZM227.491 21.3333H229.861V23.7037H227.491V21.3333ZM227.491 18.963H229.861V21.3333H227.491V18.963ZM227.491 16.5926H229.861V18.963H227.491V16.5926ZM227.491 14.2222H229.861V16.5926H227.491V14.2222ZM227.491 0H229.861V2.37037H227.491V0ZM225.12 0H227.491V2.37037H225.12V0ZM225.12 2.37037H227.491V4.74074H225.12V2.37037ZM227.491 2.37037H229.861V4.74074H227.491V2.37037ZM227.491 4.74074H229.861V7.11111H227.491V4.74074ZM227.491 7.11111H229.861V9.48148H227.491V7.11111ZM227.491 9.48148H229.861V11.8519H227.491V9.48148ZM227.491 11.8519H229.861V14.2222H227.491V11.8519ZM225.12 9.48148H227.491V11.8519H225.12V9.48148ZM225.12 7.11111H227.491V9.48148H225.12V7.11111ZM225.12 4.74074H227.491V7.11111H225.12V4.74074ZM225.12 11.8519H227.491V14.2222H225.12V11.8519ZM225.12 14.2222H227.491V16.5926H225.12V14.2222ZM225.12 30.8148H227.491V33.1852H225.12V30.8148ZM225.12 28.4444H227.491V30.8148H225.12V28.4444ZM225.12 26.0741H227.491V28.4444H225.12V26.0741ZM225.12 23.7037H227.491V26.0741H225.12V23.7037ZM225.12 21.3333H227.491V23.7037H225.12V21.3333ZM225.12 18.963H227.491V21.3333H225.12V18.963ZM225.12 16.5926H227.491V18.963H225.12V16.5926ZM239.366 9.48148H241.736V11.8519H239.366V9.48148ZM241.736 9.48148H244.106V11.8519H241.736V9.48148ZM244.106 9.48148H246.477V11.8519H244.106V9.48148ZM246.477 9.48148H248.847V11.8519H246.477V9.48148ZM248.847 9.48148H251.218V11.8519H248.847V9.48148ZM251.218 9.48148H253.588V11.8519H251.218V9.48148ZM253.588 11.8519H255.958V14.2222H253.588V11.8519ZM251.218 11.8519H253.588V14.2222H251.218V11.8519ZM248.847 11.8519H251.218V14.2222H248.847V11.8519ZM246.477 11.8519H248.847V14.2222H246.477V11.8519ZM244.106 11.8519H246.477V14.2222H244.106V11.8519ZM241.736 11.8519H244.106V14.2222H241.736V11.8519ZM239.366 11.8519H241.736V14.2222H239.366V11.8519ZM236.995 11.8519H239.366V14.2222H236.995V11.8519ZM236.995 14.2222H239.366V16.5926H236.995V14.2222ZM239.366 14.2222H241.736V16.5926H239.366V14.2222ZM234.625 14.2222H236.995V16.5926H234.625V14.2222ZM234.625 16.5926H236.995V18.963H234.625V16.5926ZM234.625 18.963H236.995V21.3333H234.625V18.963ZM236.995 18.963H239.366V21.3333H236.995V18.963ZM239.366 18.963H241.736V21.3333H239.366V18.963ZM239.366 16.5926H241.736V18.963H239.366V16.5926ZM236.995 16.5926H239.366V18.963H236.995V16.5926ZM236.995 21.3333H239.366V23.7037H236.995V21.3333ZM236.995 23.7037H239.366V26.0741H236.995V23.7037ZM236.995 26.0741H239.366V28.4444H236.995V26.0741ZM234.625 26.0741H236.995V28.4444H234.625V26.0741ZM234.625 28.4444H236.995V30.8148H234.625V28.4444ZM234.625 23.7037H236.995V26.0741H234.625V23.7037ZM234.625 21.3333H236.995V23.7037H234.625V21.3333ZM239.366 21.3333H241.736V23.7037H239.366V21.3333ZM239.366 23.7037H241.736V26.0741H239.366V23.7037ZM239.366 26.0741H241.736V28.4444H239.366V26.0741ZM239.366 28.4444H241.736V30.8148H239.366V28.4444ZM236.995 28.4444H239.366V30.8148H236.995V28.4444ZM236.995 30.8148H239.366V33.1852H236.995V30.8148ZM239.366 30.8148H241.736V33.1852H239.366V30.8148ZM241.736 30.8148H244.106V33.1852H241.736V30.8148ZM241.736 28.4444H244.106V30.8148H241.736V28.4444ZM239.366 33.1852H241.736V35.5556H239.366V33.1852ZM241.736 33.1852H244.106V35.5556H241.736V33.1852ZM244.106 33.1852H246.477V35.5556H244.106V33.1852ZM246.477 33.1852H248.847V35.5556H246.477V33.1852ZM248.847 33.1852H251.218V35.5556H248.847V33.1852ZM251.218 33.1852H253.588V35.5556H251.218V33.1852ZM248.847 30.8148H251.218V33.1852H248.847V30.8148ZM246.477 30.8148H248.847V33.1852H246.477V30.8148ZM244.106 30.8148H246.477V33.1852H244.106V30.8148ZM251.218 30.8148H253.588V33.1852H251.218V30.8148ZM253.588 30.8148H255.958V33.1852H253.588V30.8148ZM251.218 28.4444H253.588V30.8148H251.218V28.4444ZM248.847 28.4444H251.218V30.8148H248.847V28.4444ZM253.588 28.4444H255.958V30.8148H253.588V28.4444ZM255.958 28.4444H258.329V30.8148H255.958V28.4444ZM253.588 16.5926H255.958V18.963H253.588V16.5926ZM255.958 16.5926H258.329V18.963H255.958V16.5926ZM255.958 14.2222H258.329V16.5926H255.958V14.2222ZM251.218 16.5926H253.588V18.963H251.218V16.5926ZM251.218 14.2222H253.588V16.5926H251.218V14.2222ZM253.588 14.2222H255.958V16.5926H253.588V14.2222ZM244.106 28.4444H246.477V30.8148H244.106V28.4444ZM246.477 28.4444H248.847V30.8148H246.477V28.4444ZM255.958 18.963H258.329V21.3333H255.958V18.963ZM253.588 18.963H255.958V21.3333H253.588V18.963ZM251.218 18.963H253.588V21.3333H251.218V18.963ZM244.106 21.3333H246.477V23.7037H244.106V21.3333ZM246.477 21.3333H248.847V23.7037H246.477V21.3333ZM248.847 21.3333H251.218V23.7037H248.847V21.3333ZM251.218 21.3333H253.588V23.7037H251.218V21.3333ZM253.588 21.3333H255.958V23.7037H253.588V21.3333ZM255.958 21.3333H258.329V23.7037H255.958V21.3333ZM241.736 21.3333H244.106V23.7037H241.736V21.3333ZM241.736 14.2222H244.106V16.5926H241.736V14.2222ZM244.106 14.2222H246.477V16.5926H244.106V14.2222ZM246.477 14.2222H248.847V16.5926H246.477V14.2222ZM248.847 14.2222H251.218V16.5926H248.847V14.2222ZM255.958 23.7037H258.329V26.0741H255.958V23.7037ZM253.588 23.7037H255.958V26.0741H253.588V23.7037ZM248.847 23.7037H251.218V26.0741H248.847V23.7037ZM246.477 23.7037H248.847V26.0741H246.477V23.7037ZM244.106 23.7037H246.477V26.0741H244.106V23.7037ZM241.736 23.7037H244.106V26.0741H241.736V23.7037ZM251.218 23.7037H253.588V26.0741H251.218V23.7037ZM267.803 9.48148H270.174V11.8519H267.803V9.48148ZM265.433 11.8519H267.803V14.2222H265.433V11.8519ZM265.433 14.2222H267.803V16.5926H265.433V14.2222ZM263.062 11.8519H265.433V14.2222H263.062V11.8519ZM263.062 9.48148H265.433V11.8519H263.062V9.48148ZM265.433 9.48148H267.803V11.8519H265.433V9.48148ZM265.433 16.5926H267.803V18.963H265.433V16.5926ZM263.062 16.5926H265.433V18.963H263.062V16.5926ZM263.062 18.963H265.433V21.3333H263.062V18.963ZM263.062 14.2222H265.433V16.5926H263.062V14.2222ZM263.062 21.3333H265.433V23.7037H263.062V21.3333ZM263.062 23.7037H265.433V26.0741H263.062V23.7037ZM263.062 26.0741H265.433V28.4444H263.062V26.0741ZM263.062 28.4444H265.433V30.8148H263.062V28.4444ZM263.062 30.8148H265.433V33.1852H263.062V30.8148ZM265.433 30.8148H267.803V33.1852H265.433V30.8148ZM267.803 30.8148H270.174V33.1852H267.803V30.8148ZM267.803 33.1852H270.174V35.5556H267.803V33.1852ZM265.433 33.1852H267.803V35.5556H265.433V33.1852ZM263.062 33.1852H265.433V35.5556H263.062V33.1852ZM267.803 28.4444H270.174V30.8148H267.803V28.4444ZM267.803 26.0741H270.174V28.4444H267.803V26.0741ZM267.803 23.7037H270.174V26.0741H267.803V23.7037ZM267.803 21.3333H270.174V23.7037H267.803V21.3333ZM267.803 18.963H270.174V21.3333H267.803V18.963ZM267.803 16.5926H270.174V18.963H267.803V16.5926ZM267.803 14.2222H270.174V16.5926H267.803V14.2222ZM267.803 11.8519H270.174V14.2222H267.803V11.8519ZM265.433 18.963H267.803V21.3333H265.433V18.963ZM265.433 23.7037H267.803V26.0741H265.433V23.7037ZM265.433 26.0741H267.803V28.4444H265.433V26.0741ZM265.433 28.4444H267.803V30.8148H265.433V28.4444ZM265.433 21.3333H267.803V23.7037H265.433V21.3333ZM279.655 33.1852H282.025V35.5556H279.655V33.1852ZM282.025 33.1852H284.396V35.5556H282.025V33.1852ZM282.025 30.8148H284.396V33.1852H282.025V30.8148ZM282.025 28.4444H284.396V30.8148H282.025V28.4444ZM282.025 26.0741H284.396V28.4444H282.025V26.0741ZM284.396 26.0741H286.766V28.4444H284.396V26.0741ZM284.396 23.7037H286.766V26.0741H284.396V23.7037ZM284.396 28.4444H286.766V30.8148H284.396V28.4444ZM284.396 30.8148H286.766V33.1852H284.396V30.8148ZM284.396 33.1852H286.766V35.5556H284.396V33.1852ZM279.655 30.8148H282.025V33.1852H279.655V30.8148ZM279.655 28.4444H282.025V30.8148H279.655V28.4444ZM279.655 26.0741H282.025V28.4444H279.655V26.0741ZM279.655 23.7037H282.025V26.0741H279.655V23.7037ZM279.655 21.3333H282.025V23.7037H279.655V21.3333ZM279.655 18.963H282.025V21.3333H279.655V18.963ZM279.655 16.5926H282.025V18.963H279.655V16.5926ZM279.655 14.2222H282.025V16.5926H279.655V14.2222ZM279.655 11.8519H282.025V14.2222H279.655V11.8519ZM277.285 11.8519H279.655V14.2222H277.285V11.8519ZM274.914 11.8519H277.285V14.2222H274.914V11.8519ZM282.025 14.2222H284.396V16.5926H282.025V14.2222ZM282.025 16.5926H284.396V18.963H282.025V16.5926ZM282.025 18.963H284.396V21.3333H282.025V18.963ZM282.025 21.3333H284.396V23.7037H282.025V21.3333ZM282.025 23.7037H284.396V26.0741H282.025V23.7037ZM284.396 21.3333H286.766V23.7037H284.396V21.3333ZM284.396 18.963H286.766V21.3333H284.396V18.963ZM284.396 16.5926H286.766V18.963H284.396V16.5926ZM284.396 14.2222H286.766V16.5926H284.396V14.2222ZM282.025 11.8519H284.396V14.2222H282.025V11.8519ZM279.655 9.48148H282.025V11.8519H279.655V9.48148ZM277.285 9.48148H279.655V11.8519H277.285V9.48148ZM274.914 9.48148H277.285V11.8519H274.914V9.48148ZM272.544 9.48148H274.914V11.8519H272.544V9.48148ZM272.544 11.8519H274.914V14.2222H272.544V11.8519ZM270.174 11.8519H272.544V14.2222H270.174V11.8519ZM270.174 14.2222H272.544V16.5926H270.174V14.2222ZM272.544 14.2222H274.914V16.5926H272.544V14.2222ZM274.914 14.2222H277.285V16.5926H274.914V14.2222ZM277.285 14.2222H279.655V16.5926H277.285V14.2222ZM270.174 16.5926H272.544V18.963H270.174V16.5926ZM315.204 0V2.37037H312.833V0H315.204ZM315.204 2.37037V4.74074H312.833V2.37037H315.204ZM315.204 4.74074V7.11111H312.833V4.74074H315.204ZM315.204 7.11111V9.48148H312.833V7.11111H315.204ZM315.204 9.48148V11.8519H312.833V9.48148H315.204ZM315.204 11.8519V14.2222H312.833V11.8519H315.204ZM315.204 30.8148V33.1852H312.833V30.8148H315.204ZM315.204 33.1852V35.5556H312.833V33.1852H315.204ZM312.833 33.1852V35.5556H310.463V33.1852H312.833ZM310.463 0V2.37037H308.093V0H310.463ZM312.833 0V2.37037H310.463V0H312.833ZM312.833 2.37037V4.74074H310.463V2.37037H312.833ZM310.463 2.37037V4.74074H308.093V2.37037H310.463ZM310.463 4.74074V7.11111H308.093V4.74074H310.463ZM310.463 7.11111V9.48148H308.093V7.11111H310.463ZM312.833 9.48148V11.8519H310.463V9.48148H312.833ZM312.833 7.11111V9.48148H310.463V7.11111H312.833ZM312.833 4.74074V7.11111H310.463V4.74074H312.833ZM305.722 9.48148V11.8519H303.352V9.48148H305.722ZM303.352 9.48148V11.8519H300.981V9.48148H303.352ZM300.981 9.48148V11.8519H298.611V9.48148H300.981ZM298.611 9.48148V11.8519H296.241V9.48148H298.611ZM296.241 11.8519V14.2222H293.87V11.8519H296.241ZM298.611 11.8519V14.2222H296.241V11.8519H298.611ZM300.981 11.8519V14.2222H298.611V11.8519H300.981ZM303.352 11.8519V14.2222H300.981V11.8519H303.352ZM305.722 11.8519V14.2222H303.352V11.8519H305.722ZM308.093 11.8519V14.2222H305.722V11.8519H308.093ZM312.833 11.8519V14.2222H310.463V11.8519H312.833ZM310.463 26.0741V28.4444H308.093V26.0741H310.463ZM308.093 30.8148V33.1852H305.722V30.8148H308.093ZM308.093 28.4444V30.8148H305.722V28.4444H308.093ZM305.722 33.1852V35.5556H303.352V33.1852H305.722ZM303.352 33.1852V35.5556H300.981V33.1852H303.352ZM300.981 33.1852V35.5556H298.611V33.1852H300.981ZM298.611 33.1852V35.5556H296.241V33.1852H298.611ZM300.981 30.8148V33.1852H298.611V30.8148H300.981ZM303.352 30.8148V33.1852H300.981V30.8148H303.352ZM305.722 30.8148V33.1852H303.352V30.8148H305.722ZM298.611 30.8148V33.1852H296.241V30.8148H298.611ZM296.241 30.8148V33.1852H293.87V30.8148H296.241ZM298.611 28.4444V30.8148H296.241V28.4444H298.611ZM300.981 28.4444V30.8148H298.611V28.4444H300.981ZM296.241 28.4444V30.8148H293.87V28.4444H296.241ZM293.87 28.4444V30.8148H291.5V28.4444H293.87ZM293.87 26.0741V28.4444H291.5V26.0741H293.87ZM296.241 23.7037V26.0741H293.87V23.7037H296.241ZM296.241 26.0741V28.4444H293.87V26.0741H296.241ZM298.611 26.0741V28.4444H296.241V26.0741H298.611ZM293.87 23.7037V26.0741H291.5V23.7037H293.87ZM293.87 21.3333V23.7037H291.5V21.3333H293.87ZM296.241 21.3333V23.7037H293.87V21.3333H296.241ZM296.241 18.963V21.3333H293.87V18.963H296.241ZM296.241 16.5926V18.963H293.87V16.5926H296.241ZM293.87 16.5926V18.963H291.5V16.5926H293.87ZM293.87 14.2222V16.5926H291.5V14.2222H293.87ZM293.87 18.963V21.3333H291.5V18.963H293.87ZM298.611 21.3333V23.7037H296.241V21.3333H298.611ZM298.611 23.7037V26.0741H296.241V23.7037H298.611ZM298.611 18.963V21.3333H296.241V18.963H298.611ZM298.611 16.5926V18.963H296.241V16.5926H298.611ZM298.611 14.2222V16.5926H296.241V14.2222H298.611ZM300.981 14.2222V16.5926H298.611V14.2222H300.981ZM296.241 14.2222V16.5926H293.87V14.2222H296.241ZM308.093 14.2222V16.5926H305.722V14.2222H308.093ZM305.722 14.2222V16.5926H303.352V14.2222H305.722ZM303.352 14.2222V16.5926H300.981V14.2222H303.352ZM305.722 28.4444V30.8148H303.352V28.4444H305.722ZM303.352 28.4444V30.8148H300.981V28.4444H303.352ZM310.463 33.1852V35.5556H308.093V33.1852H310.463ZM310.463 30.8148V33.1852H308.093V30.8148H310.463ZM310.463 28.4444V30.8148H308.093V28.4444H310.463ZM312.833 28.4444V30.8148H310.463V28.4444H312.833ZM312.833 30.8148V33.1852H310.463V30.8148H312.833ZM312.833 26.0741V28.4444H310.463V26.0741H312.833ZM310.463 23.7037V26.0741H308.093V23.7037H310.463ZM310.463 21.3333V23.7037H308.093V21.3333H310.463ZM310.463 18.963V21.3333H308.093V18.963H310.463ZM310.463 16.5926V18.963H308.093V16.5926H310.463ZM310.463 14.2222V16.5926H308.093V14.2222H310.463ZM310.463 11.8519V14.2222H308.093V11.8519H310.463ZM310.463 9.48148V11.8519H308.093V9.48148H310.463ZM312.833 14.2222V16.5926H310.463V14.2222H312.833ZM312.833 16.5926V18.963H310.463V16.5926H312.833ZM312.833 18.963V21.3333H310.463V18.963H312.833ZM312.833 21.3333V23.7037H310.463V21.3333H312.833ZM312.833 23.7037V26.0741H310.463V23.7037H312.833ZM315.204 26.0741V28.4444H312.833V26.0741H315.204ZM315.204 28.4444V30.8148H312.833V28.4444H315.204ZM315.204 23.7037V26.0741H312.833V23.7037H315.204ZM315.204 21.3333V23.7037H312.833V21.3333H315.204ZM315.204 18.963V21.3333H312.833V18.963H315.204ZM315.204 16.5926V18.963H312.833V16.5926H315.204ZM315.204 14.2222V16.5926H312.833V14.2222H315.204ZM305.722 26.0741H308.093V28.4444H305.722V26.0741ZM305.722 9.48148H308.093V11.8519H305.722V9.48148ZM338.9 35.5556H336.53V33.1852H338.9V35.5556ZM334.16 35.5556H331.789V33.1852H334.16V35.5556ZM331.789 35.5556H329.419V33.1852H331.789V35.5556ZM329.419 35.5556H327.049V33.1852H329.419V35.5556ZM327.049 35.5556H324.678V33.1852H327.049V35.5556ZM324.678 33.1852H322.308V30.8148H324.678V33.1852ZM327.049 33.1852H324.678V30.8148H327.049V33.1852ZM329.419 33.1852H327.049V30.8148H329.419V33.1852ZM331.789 33.1852H329.419V30.8148H331.789V33.1852ZM334.16 33.1852H331.789V30.8148H334.16V33.1852ZM336.53 33.1852H334.16V30.8148H336.53V33.1852ZM338.9 33.1852H336.53V30.8148H338.9V33.1852ZM341.271 33.1852H338.9V30.8148H341.271V33.1852ZM341.271 30.8148H338.9V28.4444H341.271V30.8148ZM338.9 30.8148H336.53V28.4444H338.9V30.8148ZM343.641 30.8148H341.271V28.4444H343.641V30.8148ZM343.641 28.4444H341.271V26.0741H343.641V28.4444ZM343.641 26.0741H341.271V23.7037H343.641V26.0741ZM341.271 26.0741H338.9V23.7037H341.271V26.0741ZM338.9 26.0741H336.53V23.7037H338.9V26.0741ZM338.9 28.4444H336.53V26.0741H338.9V28.4444ZM341.271 28.4444H338.9V26.0741H341.271V28.4444ZM341.271 23.7037H338.9V21.3333H341.271V23.7037ZM341.271 21.3333H338.9V18.963H341.271V21.3333ZM341.271 18.963H338.9V16.5926H341.271V18.963ZM343.641 18.963H341.271V16.5926H343.641V18.963ZM343.641 16.5926H341.271V14.2222H343.641V16.5926ZM343.641 21.3333H341.271V18.963H343.641V21.3333ZM343.641 23.7037H341.271V21.3333H343.641V23.7037ZM338.9 23.7037H336.53V21.3333H338.9V23.7037ZM338.9 21.3333H336.53V18.963H338.9V21.3333ZM338.9 18.963H336.53V16.5926H338.9V18.963ZM338.9 16.5926H336.53V14.2222H338.9V16.5926ZM341.271 16.5926H338.9V14.2222H341.271V16.5926ZM341.271 14.2222H338.9V11.8519H341.271V14.2222ZM338.9 14.2222H336.53V11.8519H338.9V14.2222ZM336.53 14.2222H334.16V11.8519H336.53V14.2222ZM336.53 16.5926H334.16V14.2222H336.53V16.5926ZM338.9 11.8519H336.53V9.48148H338.9V11.8519ZM336.53 11.8519H334.16V9.48148H336.53V11.8519ZM334.16 11.8519H331.789V9.48148H334.16V11.8519ZM331.789 11.8519H329.419V9.48148H331.789V11.8519ZM329.419 11.8519H327.049V9.48148H329.419V11.8519ZM327.049 11.8519H324.678V9.48148H327.049V11.8519ZM329.419 14.2222H327.049V11.8519H329.419V14.2222ZM331.789 14.2222H329.419V11.8519H331.789V14.2222ZM334.16 14.2222H331.789V11.8519H334.16V14.2222ZM327.049 14.2222H324.678V11.8519H327.049V14.2222ZM324.678 14.2222H322.308V11.8519H324.678V14.2222ZM327.049 16.5926H324.678V14.2222H327.049V16.5926ZM329.419 16.5926H327.049V14.2222H329.419V16.5926ZM324.678 16.5926H322.308V14.2222H324.678V16.5926ZM322.308 16.5926H319.937V14.2222H322.308V16.5926ZM324.678 28.4444H322.308V26.0741H324.678V28.4444ZM322.308 28.4444H319.937V26.0741H322.308V28.4444ZM322.308 30.8148H319.937V28.4444H322.308V30.8148ZM327.049 28.4444H324.678V26.0741H327.049V28.4444ZM327.049 30.8148H324.678V28.4444H327.049V30.8148ZM324.678 30.8148H322.308V28.4444H324.678V30.8148ZM334.16 16.5926H331.789V14.2222H334.16V16.5926ZM331.789 16.5926H329.419V14.2222H331.789V16.5926ZM324.678 26.0741H322.308V23.7037H324.678V26.0741ZM327.049 26.0741H324.678V23.7037H327.049V26.0741ZM334.16 23.7037H331.789V21.3333H334.16V23.7037ZM331.789 23.7037H329.419V21.3333H331.789V23.7037ZM329.419 23.7037H327.049V21.3333H329.419V23.7037ZM327.049 23.7037H324.678V21.3333H327.049V23.7037ZM336.53 23.7037H334.16V21.3333H336.53V23.7037ZM341.271 30.8148H343.641V33.1852H341.271V30.8148ZM341.271 33.1852H343.641V35.5556H341.271V33.1852ZM338.9 33.1852H341.271V35.5556H338.9V33.1852ZM334.16 18.963H336.53V21.3333H334.16V18.963ZM331.789 18.963H334.16V21.3333H331.789V18.963ZM329.419 18.963H331.789V21.3333H329.419V18.963ZM327.049 18.963H329.419V21.3333H327.049V18.963ZM324.678 18.963H327.049V21.3333H324.678V18.963ZM322.308 21.3333H324.678V23.7037H322.308V21.3333ZM319.937 23.7037H322.308V26.0741H319.937V23.7037ZM327.049 28.4444H329.419V30.8148H327.049V28.4444ZM329.419 28.4444H331.789V30.8148H329.419V28.4444ZM331.789 28.4444H334.16V30.8148H331.789V28.4444ZM334.16 28.4444H336.53V30.8148H334.16V28.4444ZM353.116 9.48148H355.486V11.8519H353.116V9.48148ZM350.745 11.8519H353.116V14.2222H350.745V11.8519ZM350.745 14.2222H353.116V16.5926H350.745V14.2222ZM348.375 11.8519H350.745V14.2222H348.375V11.8519ZM348.375 9.48148H350.745V11.8519H348.375V9.48148ZM350.745 9.48148H353.116V11.8519H350.745V9.48148ZM350.745 16.5926H353.116V18.963H350.745V16.5926ZM348.375 16.5926H350.745V18.963H348.375V16.5926ZM348.375 18.963H350.745V21.3333H348.375V18.963ZM348.375 14.2222H350.745V16.5926H348.375V14.2222ZM348.375 21.3333H350.745V23.7037H348.375V21.3333ZM348.375 23.7037H350.745V26.0741H348.375V23.7037ZM348.375 26.0741H350.745V28.4444H348.375V26.0741ZM348.375 28.4444H350.745V30.8148H348.375V28.4444ZM348.375 30.8148H350.745V33.1852H348.375V30.8148ZM350.745 30.8148H353.116V33.1852H350.745V30.8148ZM353.116 30.8148H355.486V33.1852H353.116V30.8148ZM353.116 33.1852H355.486V35.5556H353.116V33.1852ZM350.745 33.1852H353.116V35.5556H350.745V33.1852ZM348.375 33.1852H350.745V35.5556H348.375V33.1852ZM353.116 28.4444H355.486V30.8148H353.116V28.4444ZM353.116 26.0741H355.486V28.4444H353.116V26.0741ZM353.116 23.7037H355.486V26.0741H353.116V23.7037ZM353.116 21.3333H355.486V23.7037H353.116V21.3333ZM353.116 18.963H355.486V21.3333H353.116V18.963ZM353.116 16.5926H355.486V18.963H353.116V16.5926ZM353.116 14.2222H355.486V16.5926H353.116V14.2222ZM353.116 11.8519H355.486V14.2222H353.116V11.8519ZM350.745 18.963H353.116V21.3333H350.745V18.963ZM350.745 23.7037H353.116V26.0741H350.745V23.7037ZM350.745 26.0741H353.116V28.4444H350.745V26.0741ZM350.745 28.4444H353.116V30.8148H350.745V28.4444ZM350.745 21.3333H353.116V23.7037H350.745V21.3333ZM364.968 14.2222H367.338V16.5926H364.968V14.2222ZM364.968 11.8519H367.338V14.2222H364.968V11.8519ZM362.597 11.8519H364.968V14.2222H362.597V11.8519ZM360.227 11.8519H362.597V14.2222H360.227V11.8519ZM367.338 11.8519H369.708V14.2222H367.338V11.8519ZM364.968 9.48148H367.338V11.8519H364.968V9.48148ZM362.597 9.48148H364.968V11.8519H362.597V9.48148ZM360.227 9.48148H362.597V11.8519H360.227V9.48148ZM357.856 9.48148H360.227V11.8519H357.856V9.48148ZM357.856 11.8519H360.227V14.2222H357.856V11.8519ZM355.486 11.8519H357.856V14.2222H355.486V11.8519ZM355.486 14.2222H357.856V16.5926H355.486V14.2222ZM362.597 14.2222H364.968V16.5926H362.597V14.2222ZM362.597 16.5926H364.968V18.963H362.597V16.5926ZM360.227 14.2222H362.597V16.5926H360.227V14.2222ZM357.856 14.2222H360.227V16.5926H357.856V14.2222ZM355.486 16.5926H357.856V18.963H355.486V16.5926ZM372.062 7.11111H374.433V9.48148H372.062V7.11111ZM374.433 7.11111H376.803V9.48148H374.433V7.11111ZM374.433 9.48148H376.803V11.8519H374.433V9.48148ZM374.433 11.8519H376.803V14.2222H374.433V11.8519ZM372.062 11.8519H374.433V14.2222H372.062V11.8519ZM372.062 9.48148H374.433V11.8519H372.062V9.48148ZM376.803 9.48148H379.174V11.8519H376.803V9.48148ZM379.174 9.48148H381.544V11.8519H379.174V9.48148ZM379.174 11.8519H381.544V14.2222H379.174V11.8519ZM379.174 14.2222H381.544V16.5926H379.174V14.2222ZM376.803 14.2222H379.174V16.5926H376.803V14.2222ZM376.803 11.8519H379.174V14.2222H376.803V11.8519ZM381.544 11.8519H383.914V14.2222H381.544V11.8519ZM383.914 11.8519H386.285V14.2222H383.914V11.8519ZM383.914 14.2222H386.285V16.5926H383.914V14.2222ZM383.914 16.5926H386.285V18.963H383.914V16.5926ZM381.544 16.5926H383.914V18.963H381.544V16.5926ZM381.544 14.2222H383.914V16.5926H381.544V14.2222ZM393.396 16.5926H395.766V18.963H393.396V16.5926ZM391.025 18.963H393.396V21.3333H391.025V18.963ZM391.025 21.3333H393.396V23.7037H391.025V21.3333ZM391.025 16.5926H393.396V18.963H391.025V16.5926ZM393.396 18.963H395.766V21.3333H393.396V18.963ZM393.396 21.3333H395.766V23.7037H393.396V21.3333ZM388.655 21.3333H391.025V23.7037H388.655V21.3333ZM386.285 21.3333H388.655V23.7037H386.285V21.3333ZM386.285 18.963H388.655V21.3333H386.285V18.963ZM388.655 18.963H391.025V21.3333H388.655V18.963ZM388.655 16.5926H391.025V18.963H388.655V16.5926ZM388.655 14.2222H391.025V16.5926H388.655V14.2222ZM386.285 14.2222H388.655V16.5926H386.285V14.2222ZM386.285 16.5926H388.655V18.963H386.285V16.5926ZM383.914 18.963H386.285V21.3333H383.914V18.963ZM383.914 21.3333H386.285V23.7037H383.914V21.3333ZM381.544 21.3333H383.914V23.7037H381.544V21.3333ZM383.914 23.7037H386.285V26.0741H383.914V23.7037ZM386.285 23.7037H388.655V26.0741H386.285V23.7037ZM388.655 23.7037H391.025V26.0741H388.655V23.7037ZM383.914 26.0741H386.285V28.4444H383.914V26.0741ZM381.544 26.0741H383.914V28.4444H381.544V26.0741ZM379.174 26.0741H381.544V28.4444H379.174V26.0741ZM379.174 23.7037H381.544V26.0741H379.174V23.7037ZM381.544 23.7037H383.914V26.0741H381.544V23.7037ZM376.803 23.7037H379.174V26.0741H376.803V23.7037ZM376.803 26.0741H379.174V28.4444H376.803V26.0741ZM376.803 28.4444H379.174V30.8148H376.803V28.4444ZM379.174 28.4444H381.544V30.8148H379.174V28.4444ZM374.433 28.4444H376.803V30.8148H374.433V28.4444ZM374.433 26.0741H376.803V28.4444H374.433V26.0741ZM372.062 26.0741H374.433V28.4444H372.062V26.0741ZM372.062 28.4444H374.433V30.8148H372.062V28.4444ZM372.062 30.8148H374.433V33.1852H372.062V30.8148ZM374.433 30.8148H376.803V33.1852H374.433V30.8148Z" fill="url(#paint0_linear_1_3)"/>
</g>
<defs>
<filter id="filter0_d_1_3" x="0" y="0" width="403.766" height="43.5556" filterUnits="userSpaceOnUse" color-interpolation-filters="sRGB">
<feFlood flood-opacity="0" result="BackgroundImageFix"/>
<feColorMatrix in="SourceAlpha" type="matrix" values="0 0 0 0 0 0 0 0 0 0 0 0 0 0 0 0 0 0 127 0" result="hardAlpha"/>
<feOffset dx="4" dy="4"/>
<feGaussianBlur stdDeviation="2"/>
<feComposite in2="hardAlpha" operator="out"/>
<feColorMatrix type="matrix" values="0 0 0 0 0.143296 0 0 0 0 0.55808 0 0 0 0 0.604167 0 0 0 0.81 0"/>
<feBlend mode="normal" in2="BackgroundImageFix" result="effect1_dropShadow_1_3"/>
<feBlend mode="normal" in="SourceGraphic" in2="effect1_dropShadow_1_3" result="shape"/>
</filter>
<linearGradient id="paint0_linear_1_3" x1="197.88" y1="-65.4444" x2="197.88" y2="101.556" gradientUnits="userSpaceOnUse">
<stop stop-color="#C4ECFF"/>
<stop offset="1" stop-color="#5EADD2"/>
</linearGradient>
</defs>
</svg>
